<?xml version="1.0" encoding="utf-8"?>
<!-- Generator: Adobe Illustrator 22.0.0, SVG Export Plug-In . SVG Version: 6.00 Build 0)  -->
<svg version="1.1" id="Слой_1" xmlns="http://www.w3.org/2000/svg" xmlns:xlink="http://www.w3.org/1999/xlink" x="0px" y="0px"
	 viewBox="0 0 4300 1080" style="enable-background:new 0 0 4300 1080;" xml:space="preserve">
<style type="text/css">
	.st0{display:none;}
	.st1{display:inline;}
	.st2{fill:url(#SVGID_1_);}
	.st3{fill:url(#SVGID_2_);}
	.st4{fill:url(#SVGID_3_);}
	.st5{fill:url(#SVGID_4_);}
	.st6{fill:url(#SVGID_5_);}
	.st7{fill:url(#SVGID_6_);}
	.st8{fill:#999999;}
</style>
<g id="Слой_2_1_" class="st0">
	<rect x="230" class="st1" width="3840" height="1080"/>
</g>
<g id="Слой_3">
	
		<linearGradient id="SVGID_1_" gradientUnits="userSpaceOnUse" x1="3811.3779" y1="902.5165" x2="4194.3472" y2="902.5165" gradientTransform="matrix(1 0 0 -1 0 1080)">
		<stop  offset="0" style="stop-color:#242124;stop-opacity:0.2"/>
		<stop  offset="1" style="stop-color:#242124;stop-opacity:0.2"/>
	</linearGradient>
	<path class="st2" d="M4061.1,75.9c10.2-5.3,21.1-3.4,31.7-2.9c6.4,0.3,12.5,1.9,17.8,5.5c1.9,1.3,3,0.4,4.3-0.6
		c6.8-4.9,13.4-9.9,20.8-13.9c6-3.2,12.2-6.5,18.9-5.8c10.7,1.2,20.4-2.4,30.6-3.9c1.6-0.2,3.2-1,4.7-1.3c1.4-0.2,2.9-2,4.1-0.6
		c0.6,0.7,0,2.6-0.4,3.9c-3.7,12.3-11,21.5-22.3,28c-6.4,3.6-12.5,6.4-19.9,5.7c-0.5-0.1-1.2,0.2-1.4,0.6c-3.5,4.6-8.8,5.1-13.7,6.5
		c-7.7,2.1-9,5.7-4,12.1c6.2,8,9.5,17.1,9.9,27.2c0.1,2.2-0.3,4.3-1.4,6.3c-1.7,2.9-2.1,2.9-4.9,0.3c0.3,7.4-2.5,13.8-5,20.2
		c-4.9,12.9-2.3,24.4,6.5,34.7c3.6,4.2,7.7,8,12.2,11c9.5,6.3,12.4,15.4,12.5,26c0.2,7.3-0.8,14.4-0.2,21.7
		c0.9,10.3,4.2,19.3,13.1,25.6c2.4,1.7,2.8,4.3,2.3,7.3c-0.6,4-2.7,6.5-6.4,7.7c-6.4,2-12.3-0.1-17.4-3.6
		c-10.8-7.3-16.3-18.1-19.3-30.3c-1.3-5.4-2-11-4.1-17.1c-4.4,7.7-11.7,11.4-17.3,17c-2.9,3-5.3,6.3-5.5,10.7
		c-0.2,2.3-1.1,3.2-3.4,2.9c-9.9-1.2-18.8,2.1-27.3,6.9c-2.5,1.4-5.1,2.5-7.7,3.7c-5.2,2.4-9.5-0.6-13.6-3c-2.8-1.7-2.1-5.1-1-7.9
		c2.1-5,5.7-8.7,10.4-11c1.8-0.9,3.8-1.8,5.8-2.2c17.4-2.9,26.9-15.1,34.6-29.2c4.7-8.7,4.2-9.6-5.1-12.6c-0.4-0.1-0.9-0.4-1.1-0.3
		c-6.2,4.4-11.6-0.2-16.4-2.4c-12.3-5.8-19.8-16.1-22.8-29.4c-0.9-3.8-3.2-2.9-4.7-1.8c-10.7,7.5-22.7,6.9-34.7,5.9
		c-3.2-0.3-5.7,1.2-8.5,1.4c-7.3,0.6-14.4,0.4-21.5-1.5c-0.6,4.8-0.6,4.8-5.1,3.1c4.7,10.4,5.6,20.8,3.8,31.5
		c-0.9,5.8-1.8,11.6-2.6,17.4c-0.8,6,0.3,11.7,2.6,17.2c5.8,13.7,4.8,18.8-6.2,28.8c-3.4,3.2-7.3,5.8-11.1,8.4
		c-7.5,5-15.4,3.6-23.1,1.1c-3.2-0.9-3.2-4.7-0.7-7.9c2-2.5,4.8-3.9,7.1-6.1c11.3-10.7,12.1-23.3,9-37.4
		c-3.7-16.9-10.9-31.9-22-45.6c-2.5,9.5-8.2,15.6-17.4,18.1c-1.6,0.4-3.5,2.1-4.7-0.8c-0.4-0.8-1.5,0.2-2.1,0.6
		c-2.8,1.7-5.5,3.5-8.2,5.4c-2.4,1.7-4,2.3-3.2-2.2c-5.7,3.8-11,6.9-17.1,8.7c-3.4,1-4.8,4.3-5.9,7.4c-0.9,2.3,1.3,3,2.6,4.2
		c2.1,2,5,3.6,4.7,6.8c-0.3,4.7-3.5,8.2-6.5,11.2c-2.9,2.8-6.7,1.3-10-0.2c-6.2-2.9-9.8-8.1-12.2-14.3c-2.2-5.6-2.8-11.4-2.2-17.4
		c0.5-4.5,2.3-8.2,5.8-11.4c5.6-4.9,11.8-8.9,17.8-13.1c6.7-4.7,13.7-9.1,18.5-15.9c1.6-2.1,2.9-4.3,3.9-6.7c1.9-5,1.9-9-1.5-14.2
		c-6.4-9.7-14.2-17.5-24-23.6c-1.3-0.9-2.8-1.5-4.7-2.5c-0.5,3.8-1.3,7-3.2,9.8c-1,1.4-2.2,2.8-3.7,0.5c-1-1.6-1.7-0.6-2.5,0.2
		c-2.2,1.8-4.5,3.6-6.8,5.2c-0.9,0.6-1.7,1.7-2.8,1.2c-1.3-0.6-0.5-2-0.6-3c-0.1-0.8,0.2-1.7-0.4-2.4c-0.9,0.1-1.1,1-1.7,1.6
		c-0.9,0.8-1.6,2.2-3,1.7c-1.2-0.5-0.9-1.8-1.1-2.9c-0.2-0.9-0.4-1.9-0.7-2.8c-1.7-5.1-2.2-5.4-7.6-4.3c-6.2,1.3-12.2,2.8-18.6,2.8
		c-8,0.2-8.7-1.3-10.8-8.9c-1.4-5,0.3-8.5,1.7-12.5c2-5.4,2.3-11.2,2.6-16.9c0.3-6.6,2.2-12.6,6.4-17.8c1.2-1.5,1.7-2.7,1-4.7
		c-1.7-5-0.7-10,0.2-15c0.9-4.6,2-8.9-0.4-13.5c-0.9-1.8-0.9-4.3-1.2-6.4c-0.1-0.6,0.2-1.9,0.6-1.7c3,2.4,1.8-2.1,3.6-2.1
		c0.4,2.8,0.8,5.5,1.3,8.5c1.7-1.5,1-4.1,3.2-5.2c0.2,0.5,0.6,0.9,0.5,1.1c-2.8,5.9-0.9,10.7,3.6,14.9c3,2.8,5.2,6.3,7.2,10.7
		c6-9.9,18.3-15.6,15.9-30.1c2.4,1.7,1.3,3.7,2.4,5.2c0.4-0.4,0.7-0.8,1.1-1.1c0.7-0.7,1.2-2,2.6-1.3c-1,1.6,2.5,2.7,0.6,4.2
		c-5.7,4.3-3.2,8.7-0.6,13.4c3.2,5.8,6.4,11.4,9.7,17c1.1,1.8,2.3,2.6,4.3,3.1c16.9,4,33,1.5,48.8-5.3c12-5.2,24.5-8.4,37.8-7.6
		c2.8,0.2,5.7,0.5,8.4,1.3c28.2,8.9,55.5,4.8,82.1-6.3c1.1-0.5,2.2-1,3.4-1.5c2.5-1,2,0.7,1.7,2.1c0,0.3-0.1,0.6-0.1,0.9
		C4060.5,76.1,4060.8,76,4061.1,75.9z"/>
	
		<linearGradient id="SVGID_2_" gradientUnits="userSpaceOnUse" x1="621.0472" y1="875.92" x2="1019.9836" y2="875.92" gradientTransform="matrix(1 0 0 -1 0 1080)">
		<stop  offset="0" style="stop-color:#242124;stop-opacity:0.2"/>
		<stop  offset="1" style="stop-color:#242124;stop-opacity:0.2"/>
	</linearGradient>
	<path class="st3" d="M946.1,190.6c-3.4,4.5-3.9,4.5-6.7,0.5c-1.3-1.8-2.2-3.9-3.4-6.1c-1.5,3.2-2.1,6.4-1.4,9.9
		c0.8,4,1.3,8.1,0.6,12.3c-0.4,2.1-0.2,4.5-3.3,4.6c-1.3,0.1-0.8,0.8-0.6,1.4c5.7,16,4.5,32.8,5.5,49.4c0.5,7.5,1.5,15,3.5,22.3
		c1.8,6.7,5.3,11.9,12.5,13.7c1.2,0.3,2.4,1,3.4,1.7c3.4,2.1,3.6,5.5,3.5,9c-0.2,3.3-2.9,3.6-5.1,4.3c-8.8,2.9-17.5,3.6-26.3,0.2
		c-2.8-1.1-5.8-2.8-6.5-5.8c-0.9-3.9-3.5-5.4-6.5-7.2c-7.7-4.3-11.7-11.8-15.5-19.3c-3.7-7.5-6.6-15.4-11.4-22.8
		c-3.1,4.7-5.7,2.1-8.4-0.4c-5.8-5.4-9.2-12.2-11.4-19.7c-0.4-1.4-0.9-2.9-1.4-4.4c-2.9,4.3-4,4.3-6.9,0.4c-3.9-5.4-5.9-11.5-7.7-18
		c-5.5,18-18.5,31.2-27.9,46.7c-5.6,9.2-8.4,19.3-10.1,29.9c-0.4,2.4,1.4,2.1,2.6,2.4c6,1.4,11.3,8.8,9.4,15.5
		c-0.5,1.6-0.9,2.5-2.1,3.2c-17.2,10-32.7,6.2-39.2-13c-5.7-16.8-3.5-33.1,4.8-48.5c0.8-1.5,2.8-2.8,0.5-4.9
		c-0.4-0.4,0.5-2.4,0.9-3.5c2-4.4,4.7-8.3,8.4-11.4c-0.9-1.3-1.8-0.9-2.6-0.9c-6.2-0.2-6.2-0.2-5.6-6.5c-5,2-9.9,3.9-14.7,5.8
		c-1.7,0.6-3.5,2.7-5,1.7c-1.7-1.1,0.5-3.3,0.2-5.4c-2.8-0.2-5,1.7-7.6,2.2c-3.4,0.8-6,4.3-10,2.7c-0.3-0.1-1.1,0.8-1.5,1.3
		c-2.2,2.8-4.6,5.4-8,6.9c-0.8,0.4-1.4,0.9-1.7,1.7c-4.2,11-11.4,20.6-15.9,31.6c-2.9,6.9-4.4,14-3.7,21.6c0.2,2.4,0.8,3.6,3.5,4.3
		c6.5,1.7,10.1,5.6,10.1,10c0,4.7-5.5,10.9-11,12.3c-2.9,0.7-5.9,1.1-8.9,0.7c-6.1-0.7-12.1-1.9-17.9-3.7
		c-13.3-4.2-23.5-15.2-17.5-33.2c-3.9,0-3.9,0-2.4-10.6c-4.9-0.1-4.2,1.9-3.2-9.8c-4.1,4.2-9.1,6-13.7,8.4s-7.9,5.9-9.7,10.8
		c-1,2.7-2.3,5.2-3.3,7.8c-1.2,3-3,5.4,0.1,9c3.4,3.9-1.2,10.7-7.1,11c-5.1,0.4-9.3-1.8-12.1-5.9c-7.9-11.9-11-25.2-9.2-39.4
		c0.7-5.4,3.7-9.9,6.5-14.6c5.2-8.6,12.9-14.7,19.9-21.5c3.7-3.6,6.2-7.5,6.7-13.4c0.6-7.7,3.5-15.1,5.4-22.7
		c0.6-2.6,1.2-5.3,1.9-7.9c0.4-1.3,0.3-2.4-0.4-3.6c-5.9-9.8-5-20-1-30c4.7-12,11.8-22.3,21.7-30.7c1.1-0.9,4.1-1.3,1.9-4.3
		c-0.6-0.8,1.7-2,2.9-2.7c10.6-6.4,21.2-12.6,31.8-19c1.3-0.8,4.7-0.7,2.5-4.1c-0.4-0.6,1.1-1.4,2.1-1.8c5.4-2.5,11-4.5,17.2-4
		c1.2,0.1,2.5,0.9,3.1-1.5c0.5-2.2,2.9-1.2,4.5-1.1c25.1,0.5,49.9,2,74.3,8.8c7.7,2.1,15.8,2.4,23.7,0.9c1.2-0.2,2.8,0.4,2.3-2.1
		c-0.3-1.4,1.3-2.1,2.7-2.1c2.7,0.1,5.4,0.2,8,0.3c2.3,0.2,4.3,0.7,6.5-1.4c1.8-1.8,4.8-0.6,7.3-0.5c13.8,0.6,24.9,6.9,34.6,16.3
		c1.4,1.3,2.8,2.1,4.7,2.5c9.5,2.3,18.9,0,28.5-0.2c0.4,0,0.8-0.2,1.2-0.4c8.6-3.7,12.8-3,19.2,3.9c1.7,1.9,3.6,2.8,6.1,3.3
		c15.4,3.9,26.2,13.3,32.4,27.7c3.1,7.2,5.4,14.7,8.1,21.9c2,5.1,5.1,9.5,9.5,12.9c3.2,2.4,3.5,5,1.3,8.4
		c-4.1,6.5-10.7,9.3-17.4,8.6c-8.3-0.8-15.7,2-23.4,3.5c-4.9,0.9-9.7,2.1-14.8,2.3C956.2,199.9,949.7,198.4,946.1,190.6z"/>
	
		<linearGradient id="SVGID_3_" gradientUnits="userSpaceOnUse" x1="3377.908" y1="436.8848" x2="3722.8398" y2="436.8848" gradientTransform="matrix(1 0 0 -1 0 1080)">
		<stop  offset="0" style="stop-color:#242124;stop-opacity:0.2"/>
		<stop  offset="1" style="stop-color:#242124;stop-opacity:0.2"/>
	</linearGradient>
	<path class="st4" d="M3524.6,788.7c-3.9,4.3-7.7,7.7-12.6,9.7c-4.7,1.9-9.6,3.2-14-0.9c-1.1-1-1.7-0.2-2.4,0.2
		c-2.7,1.1-5.3,2.2-8.2,2.4c-3.5,0.2-6.7-0.4-7.8-4.3c-0.9-3-2.8-1.2-3.9-0.8c-4.7,1.7-9.5,2.4-14.4,2c-3.3-0.3-7.3-1.3-8-3.9
		c-0.9-3.5,3.6-4.8,6.2-7.1c-4.4-2.5-9.2-3.2-13.8-4.4c-8-2.1-15.3-5.7-21.9-10.7c-5-3.7-6.7-8-4.9-11.4c1.9-3.6,6.1-4.5,12.1-2.7
		c1,0.3,2.1,0.6,3.1,1c2.5,1.1,5,3.6,6.4-1.5c0.6-1.9,3.1-2.2,5-1.3c2,0.9,4,1.8,5.8,3.1c13,9.5,26.5,8.9,39.4,0.4
		c18.4-12.2,30.1-28.7,30.8-51.6c0.2-5.4-1.7-9.2-6-12.8c-19.4-16.3-42.2-25.3-66.3-31.6c-8.4-2.2-16.9-4.5-24.6-8.8
		c-4.8-2.7-9.3-5.8-12.3-10.6c-1-1.6-2.4-2.1-3.9-2.7c-9.9-3.9-19.4-8.8-27.7-15.7c-1-0.9-3.1-1.5-2.1-3.4c0.9-1.7,2.7-1.2,4.4-0.9
		c4.8,1,9.5,2.4,14,4.3c6.9,2.8,14.2,4,21.7,3.1c9.6-1.2,17.6,1.9,23.8,9.2c3.3,3.9,7.3,6.4,11.8,8.4c25.2,11.7,50.9,13.9,77.3,5.1
		c6.9-2.3,13.3-5.8,19.8-8.8c0.6-0.2,1.2-0.7,1.6-1.3c9.8-13.3,21.5-24.9,31-38.6c14.7-21,18.3-43.6,13.7-68.2
		c-1-5.6-2.7-11.2-3.1-16.9c-0.1-1.5-0.1-3,0.1-4.5c0.2-2.8,1.3-5,4.2-6c2.8-0.9,4.3,1.3,5.7,3.1c1.9,2.3,3.3,4.9,5.3,7.5
		c-0.7-5.5-1.5-11-2.2-16.5c-0.2-1.7-0.5-3.3-0.3-4.9c0.6-5.8,3.1-7,8.1-4.1c1-0.6,0.4-1.7,0.6-2.5c0.3-2.4,0.9-4.7,3.6-5.4
		c2.8-0.6,4.8,0.6,6.3,2.8c2.9,4.2,4.6,9,5.8,13.9c1.2,4.5,2.1,9,3.2,13.5c0.3-0.2,0.6-0.2,0.6-0.3c1-2.1,1.5-5.7,3.9-5.5
		c2.3,0.2,2.9,3.6,3.9,5.8c2.1,5.1,2.6,10.6,2.4,16.3c0.6-0.2,1.1-0.2,1.2-0.3c1.3-1.9,2.5-4.7,5-4.3c2.2,0.4,3,3.3,3.9,5.4
		c3.7,8.4,2.4,17.1,1,25.8c-0.2,1.3-0.5,2.7-0.9,4c-0.8,2.2-1,3.6,2.2,4c3.2,0.5,3.9,3.6,4,6.4c0.2,4.9-1.3,9.5-3.1,13.9
		c-0.7,1.7-1.4,3.5-2.4,5.6c2.1,0.2,3.2-1.3,4.6-1.9c2.4-1.1,4.8-1.3,6.9,0.6c2.1,1.9,1.3,4.3,0.4,6.5c-2.8,6.6-7.5,12-12.2,17.4
		c-1.1,1.3-2.3,2.5-3.9,4.3c1.4-0.2,2.1-0.2,2.8-0.3c2.1-0.4,3.9-0.1,5,1.8c1,1.9,0.8,3.9-0.6,5.8c-1.7,2.3-3.9,3.8-6.2,5.3
		c-0.8,0.6-2.3,0.9-0.9,2.4c2.4,2.4,1.4,5,0.2,7.6c-0.9,1.7-2.1,3.2-3.3,4.7c-1.9,2.2-4,3.8-3.1,7.6c0.7,3-1.8,5.8-3.7,8.4
		c-5.4,7.3-12.3,13.1-19,19.2c-7.7,7-7.8,8.4-0.3,15.4c8,7.5,17.1,13.4,27.3,17.8c6.2,2.7,12.4,5.7,18.5,8.7c3.9,2,4,4.3,0.9,7.1
		c-2.1,1.9-2.2,5.4-5.3,6.7c-0.9,0.4,0.2,1.4,0.8,1.9c10.2,8.5,19.6,17.8,30.9,25c3.6,2.4,7.3,3.5,11.4,1.7c1.3-0.6,2.8-1,4.3-1.3
		c1.1-0.2,2.6-1.1,3.4,0.2c0.9,1.3-1.3,1.7-1.4,3.1c2.6,0.1,4.8-2,7.7-1.5c-1.3,2.9-4.2,3.3-7,5c2.4,0.5,4,0.7,5.6,1.3
		c1.2,0.4,3.2,0.2,3.1,2c-0.1,1.3-1.8,1.3-3,1.7c-6.1,1.5-11.9,0.3-17.7-1.9c-9.5-3.6-17.4-9.7-25-16.1c-4.4-3.7-8.7-7.5-13.1-11.2
		c-1-0.9-2.9-2.5-3.1-2.3c-2.1,1.7-5.5,1.3-6.7,3.3c-1.4,2.5-3.2,3.4-6.3,3.6c4.9,5.4,9.2,10.7,14,15.6c7,7.3,13.2,15.4,20.8,22
		c7.3,6.4,9.1,6.4,17.2,1c0.8-0.6,1.7-2,2.8-0.9c1.2,1.3-0.5,2.1-1.1,3c-0.9,1.2-2.7,1.4-3.2,3.1c3.8,0.1,7.1-2.3,11-2
		c-0.8,3.3-4.1,3.3-6.5,5.1c2.9,1,5.6,1.9,8.1,2.9c0.9,0.4,2.5,0.4,2.3,1.8c-0.2,1.2-1.5,1.5-2.6,1.4c-10.8-0.2-21.2-1.6-30.1-8.6
		c-9.2-7.3-16.4-16.4-24.4-24.9c-4-4.3-7.9-8.8-11.8-13.2c-1.2-1.3-1.8-2.5-3.6-0.2c-2.1,2.7-5,2.5-7.7,0.7c-3.6-2.4-6.2-5.8-8-9.7
		c-1-2.4-2.3-4.1-4.8-5.1c-3-1.3-4.8-3.9-6.9-6.2c-6.3-6.6-13.8-11.3-23.3-13.3c2,9.9,0.9,19.3-2.9,28.3c-1.7,4.1-4.3,7.4-9.1,7.9
		c-1.4,0.2-1.7,0.9-2.3,2c-2.1,4.4-4.6,8.5-10.7,7.4c-1.5-0.2-1.5,1.3-1.9,2.3c-2,4.3-4.5,8.1-8.3,11c-2,1.5-3.8,3.7-6.9,2
		c-1.3-0.8-1.8,0.8-2.5,1.5c-3.4,3.6-6.9,7.2-11.8,8.5C3527.7,795.2,3525.7,794.5,3524.6,788.7z M3656.7,591.8
		c-0.1-0.2-0.2-0.3-0.3-0.6c-0.1,0.1-0.2,0.2-0.2,0.2c0.1,0.2,0.2,0.4,0.2,0.6C3656.5,591.9,3656.6,591.9,3656.7,591.8z
		 M3609.6,518.4l-0.2,0.2h0.2V518.4z"/>
	
		<linearGradient id="SVGID_4_" gradientUnits="userSpaceOnUse" x1="89.6275" y1="517.2667" x2="310.7312" y2="517.2667" gradientTransform="matrix(1 0 0 -1 0 1080)">
		<stop  offset="0" style="stop-color:#242124;stop-opacity:0.2"/>
		<stop  offset="1" style="stop-color:#242124;stop-opacity:0.2"/>
	</linearGradient>
	<path class="st5" d="M195.8,656.1c5.2,1.9,9.6,4.1,13.5,7.3c2.1,1.7,3.6,3.6,4.8,5.9c2,3.7,1.1,7.7-2.5,9c-4,1.5-7.1,4.5-10.8,6.3
		c-0.6,0.3-1.5,1-1.9,0.9c-4.2-1.8-6.7,1.4-9.9,2.8c-2.4,1.1-5.4,1.1-7.4-0.3c-11.7-8.1-25.2-6.7-38.3-7.7c-3.6-0.2-7-1-10.3-2.7
		c-5-2.5-6.2-6.9-2.4-11c1.3-1.5,0.9-2.1,0.4-3.8c-3.1-8.4-7.3-15.9-13.3-22.6c-1.5-1.6-2-2.7-4.4-0.9c-4.7,3.4-14.7,0-18.7-5.9
		c-4.7-6.9-6.1-14.7-4.1-22.8c0.6-2.4,0.4-4.6,5-4.8c3.9-0.2,7-0.1,10.7,2c-0.3-7.1,1.5-13.6,2.5-20c2.4-14.6,10.5-25.8,21.9-34.8
		c1.2-0.9,4.1-1.7,1.7-4.3c-0.1-0.2,0.6-1.2,1-1.7c0.8-0.8,1.7-1.5,2.6-2.2c6.6-5.4,15.2-6.9,22.6-11.1c5.7-3.2,13.1-2,19.7-2.8
		c2.3-0.2,4.6-0.2,6.8-0.2c4.1,0,8-0.9,12.1-1.7c7-1.3,15,1.6,22.4,6.3c1.9-3.9,3.6-8,5.7-11.8c1.3-2.4-0.3-3.7-1.3-5.3
		c-8.4-12.2-13.7-25.5-13.4-40.6c0.1-3.6,0.7-6.9,2.1-10.3c0.9-2.4,0.6-5.3,0.5-8c-0.2-6.7,0.5-13.3,2.4-19.8c1-3.7,3.2-3.6,5.7-2.5
		c2.7,1.1,4.7,3.2,6.5,5.4c11.6,15,18.9,31.9,22.1,50.6c0.9,5.8,1.9,11.5,2.4,17.3c0.3,3.6,2.7,2.1,4.3,2.3c1.2,0.2,2.4,0.2,2.2-1.9
		c-2-21.1,7.4-38,20.1-53.5c5-6.2,10.9-11.6,18.9-13.9c6.1-1.7,8-1,10.3,4.7c4.7,11.4,2.5,22.3-2.6,32.8
		c-6.3,12.9-15.1,24.3-23.2,36.1c-2.6,3.9-2,7.3-1.3,11.2c1.6,8.2,4.5,16.1,5.9,24.4c1.6,9.2,0.3,17.5-5.8,24.9
		c-0.7,0.9-1.3,1.5-0.9,2.9c2.4,10.5,1.3,20.8-2.1,31c-0.2,0.8-0.6,2.1-1,2.2c-6.2,1.7-6.3,8.4-9.9,12.2c-2.9,3.1-5.8,6.2-8.5,9.5
		c-7.5,8.7-6.7,24.7,1.7,32.9c2,1.9,3.8,3.9,4.7,6.5c0.8,2.2,0.6,4.7-1.8,5.4c-4.4,1.3-7.7,4.5-11.7,6.6c-2.1,1.2-4.1,2.1-6.4,1.1
		c-1.3-0.6-2.1-0.2-3.2,0.2c-2.3,0.8-4.5,0.6-6.5-0.8c-0.5-0.3-0.9-0.9-1.4-0.8c-9.1,0.9-11.7-6.2-14-12.3
		c-3.1-8-7.7-14.3-14.3-19.6c-2.6-2.1-4.3-3.2-6.8-0.3C198.2,655,197.2,655.3,195.8,656.1z"/>
	
		<linearGradient id="SVGID_5_" gradientUnits="userSpaceOnUse" x1="423.8253" y1="303.8198" x2="839.8887" y2="303.8198" gradientTransform="matrix(1 0 0 -1 0 1080)">
		<stop  offset="0" style="stop-color:#242124;stop-opacity:0.2"/>
		<stop  offset="1" style="stop-color:#242124;stop-opacity:0.2"/>
	</linearGradient>
	<path class="st6" d="M695.6,662.8c-1.2-2.3-4.4-2-3.8-3.9c0.7-2.1,3.2-0.7,4.9-0.6c8.4,0.9,17,1.3,25.3,3.1
		c0.4,0.1,0.9,0.3,1.3,0.2c7.8-5.1,15,0.2,22.3,1.6c3.2,0.6,6.1,2.2,9.5,3.5c-0.4-3.4-1.5-6.6-1.1-9.9c0.3-2.4,1.1-3.5,3.6-2.1
		c1.9,1,3.9,1.7,5.7,2.9c10.4,7.2,21.8,12.8,32.6,19.2c7.2,4.3,12.7,9.9,15.8,17.8c3.9,10.2,10,18.7,19.6,24.5
		c0.9,0.5,1.7,1.2,2.4,1.8c8.5,7.9,8.2,7,0.3,15.2c-5.8,6-13.1,7.4-20.8,4.7c-9-3.2-18.2-4.1-27.6-4c-4.9,0-9.6-0.9-13.8-3.6
		c-1.3-0.9-2.1-0.6-3.4,0.1c-8.7,4.7-15.8,11.3-23.4,17.3c-9.7,7.6-15.2,19.6-27.2,24.4c-1.3,0.5-1.1,1.3-0.9,2.4
		c2,11.7,7.7,20.8,18,27.1c7,4.3,14.6,7.7,20.6,13.6c10.8,10.6,12.2,29.9,2.9,40.4c-1.3,1.4-2.7,2.5-4.3,3.5
		c-3.6,2.1-7.4,0.7-8.7-3.3c-0.9-3.2-0.1-6.2,0.5-9.3c1.4-8.2,0-11-7.6-14.4c-5.8-2.7-12.2-4-18.1-6.1c-6.4-2.2-12.5-4.7-16-11
		c-0.2-0.2-0.3-0.6-0.5-0.7c-7.3-1.6-9.9-7.9-13.2-13.5c-4.4,4.4-4.7,4.3-12.9-6.3c-6.1,9.5-10.3,19.5-11.1,30.8
		c-0.8,11.3-2.3,22.6,0.5,33.9c0.9,4,2.4,7.9,4.5,11.4c1.2,2,2.4,3.7,5,4.1c2,0.3,3.7,1.5,3.9,3.9c0.2,2.3-1.6,2.8-3,4.1
		c-2.2,1.9-4.7,2.7-7,4.1c-4.5,2.7-8,1-11.4-1.5c-3.5-2.7-6.2-6.2-7.9-10.4c-4.7-11-7.1-22.4-8-34.2c-0.9-10.3-2.2-20.6-3.3-30.9
		c-0.1-0.6,0.2-1.8-0.6-1.7c-6.6,0.3-2.6-4.1-2.1-5.8c1-3.9,2.8-7.7,4.5-11.4c1.5-3.2,0.8-4.6-2.6-6.2
		c-16.6-7.8-34.3-10.6-52.5-11.6c-2.4-0.2-2.8,0.7-2.8,2.8c0.1,4.3,0.8,8.8-1,12.7c-3.6,8-3.9,17.4-8.8,24.5
		c-7,10.1-11,22.2-19.7,31.2c-2.9,3-3.2,6.2-0.6,9.8c4.7,6.5,8.8,13.7,13.9,19.9c2.3,2.8,4.8,4.7,8.5,5c2.7,0.2,5.2,1.5,5.2,4.7
		c0,3-0.9,5.4-3.9,7.3c-8,4.8-16.4,1.2-22.2-5.1c-7.5-8.2-15.1-16.3-23.8-23.1c-8-6.2-7-15.4-7.8-23.8c-0.7-8.1,0.6-16.2,4.3-24.1
		c-6.2,0.8-5-2.1-3-5.3c1.1-1.9,0.6-3.6-0.7-5c-2-2.4-4.1-4.7-6.3-7.2c-4.4,13.5-12.9,22.6-22.7,30.8c-3.3,2.7-6.7,5.3-9.9,8
		c-4.7,4-6.9,9.2-7.4,15.2c-0.7,9.1-1.8,18.1-2.9,27.1c-0.2,1.8-0.3,3.3,1.2,4.6c0.3,0.2,0.6,0.7,0.7,1.1c1.5,3.2,4.1,6.6,0.9,9.8
		c-3,3-7.3,2.5-10.8,0.6c-4.2-2.3-7.8-5.3-8.7-10.4c-3-17.2-4.4-34.5-1.6-51.8c1.3-7.5,5.4-14.3,9.8-20.6c1.8-2.7,3.6-5.3,5.3-8.3
		c-7.4,4.2-14.9,8-23.1,9.9c-6.8,1.7-13.6,3.2-20.6,1.6c-4.7-1-4.9-1.7-1.9-5.3c6.8-8.2,15.1-15.1,21.7-23.4
		c6.6-8.4,13.5-16.5,20-25c2.5-3.4,3.5-7.2,3.9-11.8c1.7-19.1,5.4-37.8,20.2-51.9c0.7-0.7,1.5-1.3,2.3-1.9
		c6.2-4.8,13.3-8.4,19.5-13.5c6.7-5.6,15.6-6.3,24.2-6.9c16.8-1.2,33.5,0.9,50.3,1.8c15.8,0.9,31.2-0.3,46.1-6.1
		C653.6,665.4,674,661.4,695.6,662.8z"/>
	
		<linearGradient id="SVGID_6_" gradientUnits="userSpaceOnUse" x1="4002.8625" y1="268.7575" x2="4255.3223" y2="268.7575" gradientTransform="matrix(1 0 0 -1 0 1080)">
		<stop  offset="0" style="stop-color:#242124;stop-opacity:0.2"/>
		<stop  offset="1" style="stop-color:#242124;stop-opacity:0.2"/>
	</linearGradient>
	<path class="st7" d="M4140.9,1006.4c-13.6-2.2-25.7-7.3-34.2-18.8c-4.8-6.5-8-13.6-7.9-21.9c0.1-8.5,4.5-14.6,10.5-19.9
		c1.8-1.6,3.3-1.9,3.9,1.1c0.2,1,0.9,2,1.2,3.1c0.8,3,1.6,4.8,5.7,3.5c4.3-1.4,7.7,1.9,11,4.3c1.7,1.2,3.1,4,4.8,3.3
		c3.5-1.3,7.2-1.7,10.4-3.6c2-1.1,1.9-5.3-0.1-6.2c-5.4-2.6-8-7.5-9.3-12.8c-2.2-8.7-5.8-16.6-10.5-24.2c-4.9-7.8-6.1-16.3-1.8-25.5
		c-5.8,0.2-11.1,0.2-16.3-1.6c-2.2-0.8-2.7,1.3-3.4,2.8c-3.6,7.4-4.1,15.5-5,23.5c-1.5,13-1.6,26.2-4.2,39.1
		c-0.9,4.7-2.3,9.2-5.1,13.3c-2.5,3.6-5.8,5.8-10.1,6.2c-0.8,0.1-1.8,0-2.3,0.5c-6.5,6-15.1,5.6-23,7.1c-5.3,1-8.9-2.2-12.3-5
		c-2.4-2.1-1.9-5.6-0.2-8.4c2-3.1,4.7-5.4,8.2-6.5c6.8-2.3,9.3-6.9,9.1-14c-0.3-9.4-2.1-18.5-4.6-27.4c-3.2-12-4.3-24.2-4.5-36.5
		c-0.1-7.9-2.8-14.3-6.9-20.4c-2.2-3.2-4.6-6.5-6.9-9.6c-0.4-0.6-1.1-1.5-1.3-1.4c-4.6,2.3-4.1-2.4-5-4.1
		c-3.2-6.2-4.7-13.1-4.8-20.1c-0.1-4.1-2-7.7-3.6-11.1c-4.6-10-8.5-20.2-6.7-32.2c-3.1,2.1-4.3,0.6-5.4-1.7
		c-2.2-4.2-3.6-8.5-3.9-13.3c-0.1-1.9,1.7-5-2.6-5c-0.9,0-0.6-1.9-0.7-3c-0.9-9.8,1.7-18.6,7.5-26.6c1-1.4,2.1-2.8,3.2-4.1
		c-0.9-1.3-2.8,0.5-3.2-1.3c-0.2-1.1,1-1.8,1.7-2.6c1.7-1.8,3.5-3.5,4.3-5.8c0.2-0.3,0.9-0.6,0.2-1.1c-0.1-0.1-0.5,0.4-0.7,0.6
		c-1.2,0.6-2.4,1.3-3.6,2c-0.9,0.5-1.8,1.8-2.8,0.9c-1.2-1.2,0.4-1.9,1-2.6c4.9-5.7,8-12.3,10-19.5c0.3-1.2,1.2-2.4,0.4-3.6
		c-3.9-5.4-2.4-11.3-1.4-17c1.2-7.4,0.6-14.3-3.6-20.8c-2.3-3.5-4-7.9-1.3-11.5c3-3.9,7.9-3.9,12.5-2.4c1.9,0.6,3.7,1.6,6.1,2.6
		c0-4.3-0.2-8.1,0-12c0.2-4.5,1.7-8.5,4.7-11.9c2-2.1,2.4-5.4,5.4-6.8c3.2-1.5,6-0.3,7.3,2.7c5.9,13.1,12.7,25.6,24.9,34.1
		c2.7,1.9,5.4,3.7,8,5.7c10.1,7.3,15.7,17.3,16.4,29.7c0.2,2.5,0.9,3.9,3.2,5c6.1,3.4,12.2,6.9,17,11.9c3.3,3.4,3,5.6-1.3,8
		c-4.8,2.7-9.8,4.9-16.6,4.3c4.3,3.3,7.8,5.8,9.9,9.7c0.6,1.3,2,2.6,1,4.1c-1,1.7-2.8,0.6-4.2,0.6c-0.4,0-0.8,0.1-1.7,0.2
		c2.4,4.5,5.3,8.4,8.4,12c12.8,15.3,29.4,25.5,46.8,34.6c11.1,5.8,22.6,11,32.7,18.5c6.9,5.1,12.9,11.1,16.2,19.2
		c0.9,2.1,3.6,4.9-0.6,6.9c-0.9,0.4-0.2,1.3,0.2,1.7c9.7,11.4,15,25.2,20.9,38.7c1.6,3.6,2.8,8.1,7.6,9.6c0.9,0.3,1.1,1.5,0.2,2
		c-2.2,1.3-1.3,2.4-0.2,3.8c22.6,30.7,19.8,67.8-6.9,95.4c-9.5,9.9-19.9,18.7-32.3,24.9c-4.7,2.3-9.6,3.8-14.8,4.6
		c-1.7,0-3.3,0.1-5,0.1c-1.3-0.2-2.7-0.4-4-0.6c0.1-1.7-0.7-1.9-2.1-1.3c-7.4,3.5-15.5,3.8-23.4,4.7c-2.4-0.1-4.9-0.2-7.4-0.2
		C4143.2,1006.1,4142,1006.3,4140.9,1006.4z"/>
	<g>
		<path class="st8" d="M3889.2,483.1c2.5-2.8,4.6-5,6.6-7.3c13.9-14.8,27.9-29.6,41.7-44.4c0.9-0.9,1.7-2.8,3.2-1.6
			c1.7,1.4-0.1,2.7-1,3.7c-15.6,16.7-31.2,33.4-46.9,50.1c-0.7,0.8-1.4,2.2-2.8,1.5C3889,484.6,3888.9,483.5,3889.2,483.1z"/>
		<path class="st8" d="M3885.4,608.9c-5.9-0.6-8.8,1.5-10,6.6c-2.3-4.3-5.3-5.9-10.2-4.6c3-4.4,2.2-8-1-11.7
			c4.9,0.2,8.1-1.3,9.2-6.5c2.4,3.9,5,6.3,10.8,3.6C3880.6,601.6,3881,605.1,3885.4,608.9z"/>
		<path class="st8" d="M3946,428.2c3.6-4.3,2.4-7.8-0.6-11.7c4.7-0.1,8.4-0.9,8.8-7.3c2.6,5,5.7,6.5,10.7,5.2
			c-3.4,4.3-2.3,7.8,0.9,11.5c-4.7,0.2-8.2,1.3-9.2,6.8C3954.1,428.1,3950.9,427.1,3946,428.2z"/>
		<path class="st8" d="M3870.9,497c5.5-0.2,9-1.4,9.5-7.7c2.5,5.3,5.7,6.9,10.5,5.3c-2.2,4.3-3.7,7.9,1.8,11.4
			c-5.4,0.3-8.9,1.7-9.9,7c-2.4-3.9-5.1-6.2-10.3-4.3C3874.9,504.4,3875.6,500.8,3870.9,497z"/>
		<path class="st8" d="M3908,661.2c-4.2,1.9-6.9,4.4-6,9.5c-3.6-2.8-6.9-3.6-10.8-0.1c0.6-5-0.2-8.7-5.4-10.3
			c3.5-2.1,6.9-3.5,6.2-7.8c-0.2-0.8,1.1-1.9,1.6-1c2.5,4.4,8.3-1.4,8.8,1.6C3903.1,656.9,3904.6,659.1,3908,661.2z"/>
		<path class="st8" d="M3874.7,581.5c-0.1,1.7-1,1.6-1.8,1.4c-1.6-0.2-1.1-1.7-1-2.4c0.3-5,0.9-10.1,1.3-15.1
			c1.3-15.4,2.7-30.7,4-46.1c0.2-1.3-0.6-3.6,1.9-3.4c2.1,0.2,1.2,2.1,1.1,3.3c-1.7,20.2-3.3,40.5-5,60.7
			C3874.9,580.6,3874.7,581.2,3874.7,581.5z"/>
		<path class="st8" d="M3891.8,642.3c-0.3,0.2-0.7,0.6-1.1,0.7c-0.9,0.3-1.6-0.1-2-1c-3.2-6.9-6.4-13.9-9.6-20.8
			c-0.4-0.9-0.5-1.7,0.3-2.3c0.9-0.6,1.7-0.3,2.1,0.6c3.4,7.2,6.8,14.4,10.2,21.7C3891.8,641.4,3891.7,641.7,3891.8,642.3z"/>
	</g>
	<g>
		<path class="st8" d="M248.4,159.2c-0.1-0.6-0.4-1.2-0.2-1.7c0.4-1.9,2.1-1.4,3.4-1.5c9.1-0.7,18.1-1.3,27.2-2
			c22.9-1.7,45.8-3.3,68.7-4.9c1.6-0.1,4.6-1.9,4.8,1.3c0.3,3.1-2.8,2.1-4.5,2.2c-31,2.3-62,4.6-93,6.7
			C252.8,159.6,250.6,159.3,248.4,159.2z"/>
		<path class="st8" d="M223.7,155.6c1.7-0.4,2.5-0.4,2.8-0.7c4.7-4.7,9.6-3.2,14.8-0.2c-0.2,1.9-2.2,4.5,0.4,7c1,0.9-0.1,1.9-1,1.9
			c-3.5,0-4.4,2.8-6.1,5.4c-2.8-1.8-4.5-6.2-9.8-2.8C226.6,161.7,227.6,158.5,223.7,155.6z"/>
		<path class="st8" d="M255.1,237.1c-4.9,1.1-5.1,4.8-6.1,8.5c-3.2-2.8-6.3-3.9-9.3-1.2c-0.6-0.6-0.8-0.8-0.8-0.9
			c1.5-3.6-3.9-7-2.4-8.3c2.5-2.3,4.3-4.3,3.9-8.4c3.7,2.7,6.8,4.2,10.7,1.1C251,231.7,250.7,235.2,255.1,237.1z"/>
		<path class="st8" d="M159.5,195.7c4.7-1.1,1.5-11.3,9.4-7.6c7.7-6.1,3.6,8.5,10,5c-3.3,2.6-4.3,5.4-3.2,9.7
			c-3.9-2.5-6.9-2.1-9.9,1.2C164.4,200.6,164.2,196.5,159.5,195.7z"/>
		<path class="st8" d="M246.5,224c-0.9,0.2-1.7,0.6-2.4,0.6c-1.7-0.1-1.3-1.6-1.4-2.6c-1.7-9.2-3.4-18.3-5-27.5
			c-0.9-5-1.9-10.1-2.8-15.1c-0.2-1.2-0.4-2.4,1.3-2.8c1.5-0.3,2.1,0.6,2.3,1.9c2.8,14.6,5.5,29.2,8.2,43.8
			C246.6,222.7,246.5,223.3,246.5,224z"/>
		<path class="st8" d="M374.4,143.8c-2.7,4.3-2.4,7.2,0.2,9.9c-2.4,1.7-6.1,0.5-6.9,4.2c-0.4,1.7-2.1,2.1-3,0.4
			c-1.7-3.2-4.8-1.8-7.7-2.6c2.1-3.2,1.9-6.2-1.5-9.4c4.7-0.1,7.6-1.6,8.8-6.4C366.6,143.9,369.2,145.8,374.4,143.8z"/>
		<path class="st8" d="M127,216.2c0.1,4.7,2.4,6.5,6.2,8c-3.3,2.3-5.9,4.5-3.5,9c-4.3-0.2-8-3.2-10.3,2.4c-1.7-4-1.2-8.3-6-7.8
			c0.4-1.2,0.4-1.8,0.6-1.8c4.3-1.2,1.6-7.3,4.3-7.7C121,217.7,124.2,220.2,127,216.2z"/>
		<path class="st8" d="M178.7,187.8c-1.4-2.1,0.3-2.8,1.7-3.6c12.8-6.8,25.6-13.5,38.3-20.3c1.1-0.6,2.2-1.2,3.1,0.1
			c1.2,1.7-0.3,2.5-1.5,3.2c-6.8,3.6-13.7,7.2-20.5,10.8c-5.8,3.1-11.5,6.2-17.3,9.2C181.3,187.9,180.2,189.1,178.7,187.8z"/>
		<path class="st8" d="M157.5,203.5c-7.2,5.1-14.8,10.6-22.3,15.9c-1,0.7-2.1,1.3-3-0.1c-0.9-1.3-0.1-2.2,0.9-2.9
			c7.7-5.5,15.4-11,23.1-16.6c1-0.7,2.2-1.3,3.1,0.1C160.5,201.7,158.7,202.3,157.5,203.5z"/>
	</g>
	<g>
		<path class="st8" d="M3409.7,939.5c2.5-4.3,2.4-7.6-1.1-11.3c5.6,0.9,7.7-2.1,9.6-6.2c2.4,3.8,5.1,6.2,10,4.8
			c-1.8,3.7-2.9,6.9,1.2,10.2c-4.7,0.6-8,1.9-9,6.9C3417.5,940.4,3415,937.5,3409.7,939.5z"/>
		<path class="st8" d="M3317,908.5c-4-0.6-7-2.1-9.2,1.2c-1.1,1.6-2.9,1.4-3.1-0.6c-0.2-4.1-3.8-3.9-6.7-5c2.4-3,4.8-5.6,1.7-9.6
			c4.2-0.1,8.3,1.6,10.3-3.6c2.7,3.2,3,8.2,9,6.8C3316.4,901.3,3313.7,904,3317,908.5z"/>
		<path class="st8" d="M3324.1,956.5c3.8-3,4.8-5.9,2.8-10.3c4.5,1.3,7.9,0.6,10.6-3.2c1.8,3.9,2.7,8,8.3,7.5
			c-3.5,3.1-4.3,6-2.3,9.8c-3.9,0.3-8.2-1.6-10.3,5C3331.6,959.7,3329.6,956.7,3324.1,956.5z"/>
		<path class="st8" d="M3254.3,919.5c-2,4.7-1.3,7.7,2.3,9.9c-2.7,2-6.5,2.1-6.5,6.3c0,1.7-1.7,2-2.6,0.8c-2.3-3.1-5.1-2.1-8.5-1.3
			c0.4-3.6,0.8-7.1-3.2-9.4c3-1.9,6.5-2.3,6.6-6.5c0-1.7,2-1.7,2.8-0.5C3247.3,922.2,3250.2,920.8,3254.3,919.5z"/>
		<path class="st8" d="M3495.1,999.4c-0.2,0.3-0.6,0.6-0.7,1c-0.8,6.8-5.9,8.8-11.9,10.4c-1.3-2.6-2.1-6.7-7.4-6.2
			c5.6-1.2-1.6-11.9,8-9.5C3490.2,986.6,3489.3,1003.3,3495.1,999.4z"/>
		<path class="st8" d="M3430.8,941.2c14.4,16.1,28.8,32.1,43.2,48.2c-0.5,0.4-0.9,0.9-1.4,1.3c-14.4-16.1-28.8-32.1-43.2-48.2
			C3429.9,942,3430.3,941.6,3430.8,941.2z"/>
		<path class="st8" d="M3407.4,934c-18.5,4.8-36.9,9.7-55.3,14.5c-0.2-0.6-0.3-1.2-0.5-1.8c18.5-4.9,36.9-9.7,55.3-14.6
			C3407.1,932.8,3407.2,933.5,3407.4,934z"/>
		<path class="st8" d="M3259.8,923.1c13-5.2,26-10.4,39.1-15.6c0.2,0.6,0.5,1.2,0.7,1.8c-13,5.2-26,10.3-39.1,15.5
			C3260.3,924.2,3260.1,923.7,3259.8,923.1z"/>
		<path class="st8" d="M3330.4,943.8c-5.4-10.1-10.8-20.2-16.3-30.3c7.7,8.8,12.1,19.5,17.8,29.4
			C3331.5,943.2,3331,943.5,3330.4,943.8z"/>
	</g>
	<g>
		<path class="st8" d="M480.4,425.4c0.9,4.8,2.7,7.9,8.3,7.5c-3.1,3.3-5.6,6.2-1.5,11.1c-5.7-1.9-9.4-1.3-11.8,3.3
			c-0.8-5-3.1-7.7-8.6-7.7c3.2-2.9,5.1-5.5,3-9.2c-0.5-0.9,0.5-1.6,1.2-1.3C475.2,431.2,477.5,428.6,480.4,425.4z"/>
		<path class="st8" d="M572,406.9c-1.7,5.7-1.7,5.7,0.9,11c-3.8,0.6-8.2,0.6-7.8,7.3c-3.6-3.9-5.7-7.8-11.4-4.7
			c2.3-4.5,3.1-8-1.3-11.2c4.7-0.7,8.8-1.1,8.8-7.9C564.3,406.3,566.7,409.6,572,406.9z"/>
		<path class="st8" d="M642.7,479.4c-2.5,2.9-6.2,5.5-1.1,10.5c-5-0.9-8.6-2-10.8,2.1c-0.6,1.2-1.8,0.5-1.9-0.6
			c-0.2-4.6-3.9-5.1-7.8-6.1c4.5-2.8,4.3-6.3,2.4-10.4c3.8,1.3,7,2,9.3-1.5c1-1.5,2.4-1.1,2.4,0.5
			C635.4,478.8,639.4,478.4,642.7,479.4z"/>
		<path class="st8" d="M375.8,409.5c5.6-0.1,6.5-3.7,6.9-8.8c3.2,3.9,6.6,5.8,11.5,2.4c-1.2,4.7-2.1,8.4,3.2,10.3
			c-4.5,1.3-7.7,3.2-7.2,8.8c-3.7-2.7-6.6-5.9-11.9-1.2C380.2,415.5,379.7,412.1,375.8,409.5z"/>
		<path class="st8" d="M451.7,372.8c0.7,4.9,2.9,7.5,8.5,7.1c-3.1,3.5-6,6.2-1.6,10.9c-5.3-0.9-9.3-2.1-11.4,3.6
			c-1.3-4.8-3.6-7.7-9.3-7.7c4.2-3.2,5.5-6.2,2.1-11.1C445.4,377.9,449,377.2,451.7,372.8z"/>
		<path class="st8" d="M619.1,471.6c-15.1-16.2-30.2-32.4-45.3-48.5c0.4-0.4,0.9-0.8,1.3-1.2c15.1,16.2,30.1,32.4,45.2,48.5
			C619.9,470.8,619.5,471.2,619.1,471.6z"/>
		<path class="st8" d="M551.5,414.9c-18.9,5.4-37.9,10.7-56.8,16.1c-0.2-0.6-0.3-1.1-0.5-1.7c18.9-5.4,37.9-10.7,56.8-16.1
			C551.1,413.7,551.3,414.4,551.5,414.9z"/>
		<path class="st8" d="M441.1,391.6c-13.5,5.7-27,11.4-40.6,17.1c-0.2-0.6-0.5-1.1-0.7-1.7c13.5-5.7,27-11.4,40.6-17.1
			C440.8,390.4,441,391,441.1,391.6z"/>
		<path class="st8" d="M457.2,395c5.8,10.3,11.6,20.7,17.4,31c-0.5,0.2-0.9,0.6-1.5,0.8c-5.8-10.3-11.7-20.7-17.5-31
			C456.1,395.6,456.6,395.3,457.2,395z"/>
	</g>
	<g>
		
			<ellipse transform="matrix(0.8173 -0.5762 0.5762 0.8173 -442.2678 280.6208)" class="st8" cx="221.4" cy="837.8" rx="67.1" ry="0.8"/>
		<path class="st8" d="M177.8,866.2c-0.2,3.6,0.8,6,4.4,6.9c-3.2,1.7-4.8,3.8-3.8,7.6c-3.1-1.4-5.8-2.3-8.8,1c0.6-3.9-0.9-5.9-4-7.2
			c3-1.7,4.9-3.6,3.1-7.7C172.3,868.5,175.1,869.4,177.8,866.2z"/>
		<path class="st8" d="M179.9,943.9c-3.1-1.3-5.8-2.4-7.9,1.7c-1.3-2.8-0.9-5.6-4.1-6c-0.8-0.1-1.1-1.2-0.4-1.6
			c3.1-1.5,2.1-4.2,2-6.9c3,1.3,5.8,2.4,8.1-2.6c0.2,4.5,1.2,6.9,5.5,6.9C180.2,938,178.4,940.3,179.9,943.9z"/>
		<path class="st8" d="M90.4,1022c2.2-3.2,2.4-5.8-1.1-8.4c4-0.2,6.7-0.9,7.6-5.2c1.6,3.7,4,4.3,7.2,3.7c-0.9,2.5-2.5,4.7-0.1,6.7
			c0.1,0.1,0.2,0.2,0.2,0.3c0.4,0.7,0.2,1.8-0.6,1.5c-3.6-1.6-4.3,5-6.9,2.9C94.8,1021.9,93.3,1021.8,90.4,1022z"/>
		<path class="st8" d="M285.5,932.2c-3.9,1.7-4.2,4.3-3.3,7.5c-2.9-0.4-5.8-2.2-8,2.4c-0.6-3.9-2.3-5.5-5.2-6.2
			c2.2-2.5,4.4-4.8,2.5-8.8c3.3,1.5,6,2.1,8.7-1.3C280.1,929.5,281.9,931.3,285.5,932.2z"/>
		<path class="st8" d="M73,944.8c-3-2.2-5.5-1.7-8.3,0.6c0-3.2-0.4-5.7-4.3-6.2c2.9-2.1,4.7-4.3,3.6-8c3.2,1.8,5.8,2,8.6-0.8
			c0,3.3,0.2,6,4.6,6.4C74.6,939.3,72,941.1,73,944.8z"/>
		<path class="st8" d="M262.7,815c2.1-3.9,2.1-6.3-2.3-8.6c4.9-0.2,6.6-2.1,7.3-5.7c2.3,2.7,4.5,4.3,8.4,2.1c-1.7,3.6-0.8,6,1.5,8.3
			c-3.2,0.6-5.9,1.5-5.4,6.7C269.3,814.1,266.9,812.7,262.7,815z"/>
		<path class="st8" d="M218.7,916.4c3.6-0.3,5.8-1.8,5.9-6.1c2.4,3,4.7,4.7,8,2.7c-0.6,4.7-0.6,4.7,1.8,7.9
			c-2.8,0.8-5.5,1.7-5.3,6.1c-2.8-2.6-5-4.6-8.9-2.4C222.1,921.1,221.3,918.6,218.7,916.4z"/>
		<path class="st8" d="M116.6,922.6c2.8,1.4,5.4,2.8,8-1.3c0.3,3.7,0.3,6.5,4.9,7c-3.8,2-4.8,4.4-3.9,8.1c-3.1-1.6-5.7-3.1-8.3,0.6
			c-0.7-3.2-0.8-6.2-4.7-6.8C116.5,928.9,116.6,925.9,116.6,922.6z"/>
		<path class="st8" d="M134,964.9c-1.7,5-1.7,5,0.6,8.6c-2.3,1.4-6.5,0.2-6.3,5.2c-1.9-2.9-4.1-4-7.3-3.5c1.3-3,2.1-5.7-1.4-8.2
			c3.8-0.5,6.6-0.9,7.1-5C128.7,964.4,130.1,967.2,134,964.9z"/>
		<path class="st8" d="M127.1,918.6c12.5-12.3,25-24.6,37.5-36.8c0.5,0.5,0.9,0.9,1.3,1.3c-12.5,12.3-25,24.6-37.5,36.9
			C128,919.5,127.6,919,127.1,918.6z"/>
		<path class="st8" d="M215.2,920.3c-9.6,4.4-19.7,7.3-30.1,9.5C194.7,925.5,204.8,922.5,215.2,920.3z"/>
		<path class="st8" d="M103,1004.6c0.9-3.3,3.5-5.5,5.4-8.2c3.3-4.9,7-9.5,10.6-14.4c0.5-0.7,0.9-1.6,1.9-1.3
			c0.9,0.3,0.7,1.1,0.2,1.7c-5.7,7.7-11.3,15.3-17,22.9C103.8,1005.2,103.4,1005,103,1004.6z"/>
		<path class="st8" d="M167,946.1c-9.1,6.4-18.1,12.8-27.2,19.2c-0.2-0.2-0.4-0.6-0.6-0.8c9.1-6.4,18.1-12.8,27.2-19.2
			C166.6,945.6,166.8,945.9,167,946.1z"/>
		<path class="st8" d="M82.2,933.6c1.6-1.8,3.8-1.4,5.8-1.7c6.4-1,12.8-2,19.3-2.9c0.8-0.2,1.8-0.4,2,0.9c0.1,0.6-0.5,0.9-1.1,1
			c-8.4,1.1-16.6,2.9-25.1,3.5C82.7,934.3,82.5,934,82.2,933.6z"/>
		<path class="st8" d="M241.8,921.2c3-0.1,5.5,1.6,8.2,2.5c5,1.8,10,3.8,15,5.7c0.9,0.3,1.7,0.6,1.5,1.7c-0.2,0.6-0.8,0.7-1.3,0.5
			c-8-3-15.9-6-23.8-9C241.6,922.1,241.7,921.6,241.8,921.2z"/>
		<path class="st8" d="M124.3,939.5c0.4,0.3,1,0.6,1.2,1c2.3,6.5,4.6,13.1,6.8,19.6c0.2,0.6,0.6,1.4-0.2,1.9
			c-0.9,0.5-1.3-0.3-1.5-0.9c-2.4-7-4.8-14-7.2-21.1C123.6,939.8,124,939.6,124.3,939.5z"/>
	</g>
	<g>
		<path class="st8" d="M987.8,783.9c5.4-1.6,8.5-3.1,7.7-8.3c3.6,1.9,6.6,5.1,11.3,1.3c-1.6,5.2-1,8.8,4,11.2
			c-4.2,1.5-7.6,2.3-7.7,6.5c0,1.3-1.3,2.1-2.2,1c-2.3-3.2-5.1-2.5-8.8-0.8C993.6,790,993.3,786.3,987.8,783.9z"/>
		<path class="st8" d="M964.3,698.2c9.1-22.7,18.3-45.4,27.4-68.1c0.7,0.3,1.4,0.6,2.1,0.8c-9.1,22.8-18.3,45.4-27.5,68.2
			C965.6,698.8,965,698.4,964.3,698.2z"/>
		<path class="st8" d="M996.5,626.3c-1.5-3.9-3.8-4.9-7.8-4.5c3-3.3,2.8-6.3,0.9-9.6c3.5,0.1,6.7,0.3,8.1-4.4
			c1.7,3.5,3.9,5.4,7.9,5.3c-3.1,3.2-2.8,6-0.9,9.1C1001.5,622.7,997.6,621.3,996.5,626.3z"/>
		<path class="st8" d="M917.9,590.9c3.4-0.9,7-0.8,6-6.9c3.2,3.9,5.6,5.3,9.6,3.4c-1.7,3.9-2.1,7,2,9.4c-4.1,1-7.2,1.6-7.2,6.8
			c-2.6-3.6-5-5.1-9.5-3.2C921.7,596.3,920.1,593.8,917.9,590.9z"/>
		<path class="st8" d="M1058.7,683.4c3.1-3.8,2.8-6.4,0.1-9.2c2.7-1.1,5.9-0.4,6.7-3.9c0.4-1.5,1.8-0.9,2.3,0.2c1.2,2.6,3.6,1.8,6,2
			c-0.9,3-1.9,6,1.3,8.6c-2.6,1.3-6,0.6-6.6,4.2c-0.2,1.3-1.6,1.1-2,0.3C1065.1,682.6,1062.6,682.9,1058.7,683.4z"/>
		<path class="st8" d="M959.9,561c-2.8,0.7-5-1.7-6.9,0.7c-1.7,2-2.7,1.5-2.9-1.1c-0.2-2.7-3.1-2.2-4.6-3.9c2.5-2.1,3.8-4.7,2-8.6
			c3.8,1.1,6.9,1.5,9.6-2.5c0.1,4.3,2.2,6.1,5.7,7.1C959.5,555.2,958.4,557.7,959.9,561z"/>
		<path class="st8" d="M880.2,586.7c2.1-4,1.9-6.9-1.4-9.5c3.9-0.7,6.7-1.8,6.8-6.2c2.8,2,4.6,5.3,9.5,1.6c-2.7,5-1.4,7.7,0.9,10.5
			c-3.7,0.5-6.4,1.6-6.7,6.6C886.9,586,884.4,584.7,880.2,586.7z"/>
		<path class="st8" d="M934.7,530.6c-3.2-1.6-6-1.7-8.3,1.8c-1.2-3.2-2-6.3-7.1-6c4-2.9,4.9-5.7,3-10.2c4.3,2.5,7,1.8,9.4-1.1
			c1.2,2.6,1.1,5.6,4.5,5.8c1.2,0.1,1,1.5,0.2,2C933.7,524.7,934.7,527.4,934.7,530.6z"/>
		<path class="st8" d="M957.5,703.6c2.6,0.3,4.3,3,6.9,0.9c1.5-1.2,2.4-0.3,2,1.5c-0.5,2.9,1.5,4.2,4.2,5.6c-2.8,2-5.7,3.4-4.6,7.6
			c-3.1-0.5-5.7-3.9-8.7,1.9c-0.1-5.2-0.7-8.3-5.2-9.6C956,709.5,958.1,707.3,957.5,703.6z"/>
		<path class="st8" d="M1015.5,728c-2.4,3.7-1.8,6.5,0.9,9.3c-3.5,0.4-6.7,0.7-7.6,5.6c-2.1-3.2-4.3-4.8-7.9-3.9
			c1.4-3.4,2.1-6.3-2.2-9.5c5.1,0.3,7.6-1.2,8.6-5.3C1009.3,727.3,1011.4,729.3,1015.5,728z"/>
		<path class="st8" d="M951.5,781.3c-1.9-4-3.7-6.1-7.6-5.2c1-3.4,3.6-6.5-1.4-9.9c4.9,0.5,7.7-0.2,9.1-3.7c2.1,1.5,2.6,4.6,5.7,3.9
			c1-0.2,2,0.9,1.2,1.7c-2.4,2.6-0.3,5,0.5,7.8C955.6,776.1,952.2,775.9,951.5,781.3z"/>
		<path class="st8" d="M1059,669.4c-16.9-15.3-33.7-30.6-50.6-45.8c0.5-0.5,1-1.1,1.4-1.6c16.9,15.3,33.7,30.5,50.6,45.8
			C1060,668.3,1059.4,668.9,1059,669.4z"/>
		<path class="st8" d="M1019.4,721.6c12.1-12.2,24.2-24.6,36.3-36.8c0.5,0.5,1,1,1.5,1.5c-12.1,12.3-24.2,24.6-36.3,36.9
			C1020.5,722.7,1020,722.2,1019.4,721.6z"/>
		<path class="st8" d="M962.3,565.8c10.5,13.3,21,26.5,31.5,39.9c-0.6,0.4-1.1,0.9-1.7,1.3c-10.6-13.2-21-26.5-31.6-39.8
			C961.1,566.7,961.7,566.2,962.3,565.8z"/>
		<path class="st8" d="M984,613.6c-15-6-30-11.9-45-17.9c0.3-0.7,0.5-1.4,0.8-2c15,6,30,11.9,45,17.9
			C984.5,612.2,984.2,612.9,984,613.6z"/>
		<path class="st8" d="M951.4,754.3c-0.2,0.8-0.6,1.3-1.5,1c-0.9-0.3-1-1.1-0.8-1.8c2-8.7,4.2-17.3,6.3-25.9
			c0.2-0.8,0.6-1.3,1.6-1.1c0.9,0.3,0.8,0.9,0.7,1.7C955.5,737.1,953.5,745.7,951.4,754.3z"/>
		<path class="st8" d="M1005.3,771.1c1.9-9.5,3.8-19,5.7-28.5c0.6,0.1,1.2,0.2,1.8,0.4c-1.2,9.6-3.2,19.2-5.5,28.6
			C1006.6,771.4,1006,771.3,1005.3,771.1z"/>
		<path class="st8" d="M971.6,716.2c7.7,3,15.5,5.9,23.3,8.9c-0.2,0.5-0.4,1.1-0.6,1.7c-8.1-1.9-15.6-5.9-23.5-8.5
			C971.1,717.6,971.3,716.9,971.6,716.2z"/>
		<path class="st8" d="M985.8,782c-7-0.5-13.1-3.4-20.6-5.2C969.5,775.2,981.4,778.4,985.8,782z"/>
		<path class="st8" d="M902.2,582.8c4.4-0.8,7.8,1.6,11.6,2.8c0.3,0.1,0.8,0.9,0.7,1.2c-0.2,0.8-0.8,1.1-1.6,0.8
			C909.2,586.2,905.2,585.7,902.2,582.8z"/>
		<path class="st8" d="M937.7,534.1c4.4,2.6,7.8,6.3,9.9,10.9C943.2,542.5,940.1,538.7,937.7,534.1z"/>
	</g>
	<g>
		<path class="st8" d="M3606,210.4c-6,3.5-7.3,8-3.8,14.8c-5.9-2.1-10.6-3.2-14,1.7c-0.9,1.3-2.1,0.1-2.1-1c0.1-5.7-3.8-7.3-9.8-8.2
			c6.1-3.9,8.4-8.1,3.9-15.5c7,3.6,11.9,3.8,15.9-2.5C3596.5,206,3598.9,210.2,3606,210.4z"/>
		<path class="st8" d="M3457,367.4c15.2-10,30.5-20,45.8-30.1c15.5-10.2,31.2-20.4,46.7-30.5c0.6-0.4,1.1-0.9,1.7-1.3
			c0.9-0.6,2-1.3,2.8-0.3c1.2,1.5-0.4,2.2-1.3,2.8c-7.7,5.1-15.3,10.3-23,15.2c-22.1,14.4-44.2,28.9-66.3,43.2
			c-1.7,1-3.3,2.1-4.9,3.2c-0.9,0.6-1.8,1.7-2.7,0.5C3454.4,368.6,3456.2,368.2,3457,367.4z"/>
		<path class="st8" d="M3448.1,360.1c-0.7,0.9-1.4,1.3-2.1,0.7c-1.3-1.2-0.2-2.4,0.3-3.3c3.7-8.4,7.5-16.8,11.3-25.2
			c10.6-23.5,21.2-47.1,31.8-70.6c0.6-1.3,1.3-2.5,1.8-3.9c0.5-1.1,0.7-2.7,2.4-1.8c1.3,0.7,0.3,1.9-0.1,2.8
			c-3.5,8-6.9,15.9-10.5,23.8c-11.1,24.7-22.3,49.3-33.4,74C3449.3,357.9,3448.6,359.2,3448.1,360.1z"/>
		<path class="st8" d="M3607,131.2c0,5.3,3.1,7.3,8.3,8.1c-5.3,3.2-5.8,7.2-3.9,12.5c-5.1-2.8-9.1-2.4-12.6,2.7
			c-0.4-5.5-2.3-8.7-8.6-9c5.4-3.2,6-7.2,4.5-12.3C3599.6,135.4,3603.5,135.5,3607,131.2z"/>
		<path class="st8" d="M3544.6,197.6c-3.2,3.1-6.4,6.2-9.5,9.2c-0.9,0.9-2.1,2.7-3.4,1.2c-1.3-1.5,0.6-2.4,1.5-3.4
			c9.6-9.2,19.2-18.4,28.9-27.6c8.2-7.8,16.4-15.6,24.8-23.4c0.9-0.9,2.1-3.4,3.7-1.6c1.4,1.7-1,2.6-2.1,3.6
			C3573.8,169.5,3559.2,183.6,3544.6,197.6L3544.6,197.6z"/>
		<path class="st8" d="M3569,309.4c-2.9-4-6-4-10.4-2.3c2.4-4.7,1.3-7.9-2.5-11c4.9-0.6,7.7-2.8,8-7.3c4.7,3.8,4.7,3.8,10,2.9
			c-2,4-1.3,7.4,2.6,10.2C3572.9,303.3,3568.6,303.7,3569,309.4z"/>
		<path class="st8" d="M3443.7,383.9c-2.9-2.9-4.4-7.4-10.6-3.5c2.3-4.8,3.6-8.2-1.3-11.9c6,0.9,8.4-1.3,9.7-5.5
			c2.9,2.4,4.6,6.8,9.9,3.7c-1.3,4.3-3.3,7.7,1.7,10.7C3448.4,378,3444.5,378.8,3443.7,383.9z"/>
		<path class="st8" d="M3493.9,234c2.9,3.9,5.5,5.7,9.6,3.2c-0.3,4.1-1.7,8.1,3.9,10.8c-5.4,0.9-8,2.8-8.6,7.7
			c-2.7-4-5.8-4.7-9.8-2.8c0.3-3.3,2.1-6.5-1.3-8.8c-1.4-0.9-1-2.4,0.6-2.6C3492.3,241.1,3493.2,238.4,3493.9,234z"/>
		<path class="st8" d="M3520.7,227.8c0.1-5.2-3-6.4-6.9-7.3c3.2-2.9,5.8-5.6,2.4-10.6c4.9,1.3,8.5,2.1,11.2-2.7
			c0.9,4.4,2.4,7.7,7.8,7.7c-4,3.1-6,6.2-3.4,10.7C3527.4,224.9,3523.4,222.5,3520.7,227.8z"/>
		<path class="st8" d="M3620.2,338.1c-4.7-1.1-8-0.8-10.1,4.1c-2-3.9-3.3-7.9-9.3-6.9c3.5-3.5,5.8-6.4,1.4-10.7
			c4.7,1,7.8,1.6,9.9-1.9c0.9-1.7,2.1-1.3,2.4,0.5c0.6,3.9,3.6,4.3,7,5C3619.5,331.2,3616.2,334,3620.2,338.1z"/>
		<path class="st8" d="M3506.1,252.8c2-1.3,2.8,0.3,3.8,1.1c13.7,10.4,27.3,20.8,41,31.2c1.7,1.3,3.4,2.6,5.1,3.7
			c0.9,0.6,1.3,1,0.6,2c-0.6,0.8-1.3,1.2-2.2,0.4c-2.5-2-5-3.9-7.6-5.8c-12.6-9.6-25.3-19.3-38-29
			C3507.6,255.6,3505.6,254.9,3506.1,252.8z"/>
		<path class="st8" d="M3591,230.6c1.5,1.2,0.6,2.2,0.2,3.1c-6.1,17-12.2,33.9-18.2,50.9c-0.4,1.2-0.7,2.6-2.4,1.9
			c-1.5-0.6-0.6-1.8-0.3-2.8c6.2-17.1,12.2-34.2,18.4-51.4C3589.1,231.2,3589.6,230.1,3591,230.6z"/>
		<path class="st8" d="M3603.8,155.2c1.1,0.9,0.7,1.8,0.6,2.6c-1.9,11.5-3.9,23-5.8,34.6c-0.2,0.9-0.1,2.4-1.6,2.2
			c-1.5-0.2-1.2-1.5-1-2.5c1.9-11.7,3.9-23.4,5.8-35.1C3601.9,155.6,3602.2,154.4,3603.8,155.2z"/>
		<path class="st8" d="M3577.1,309.2c-0.3-0.4-1.7-1-0.8-2.2c1.1-1.5,2.1-0.4,3.1,0.4c6.6,5.5,13.3,11,19.8,16.6
			c0.9,0.8,2.2,1.7,1,3c-0.9,1.1-1.8,0.2-2.7-0.5C3590.9,320.8,3584.2,315.1,3577.1,309.2z"/>
		<path class="st8" d="M3511,233.3c-1.3,1.2-2.1,2.7-3.4,1.3c-1-1,0.2-1.8,0.8-2.7c0.1-0.2,0.2-0.3,0.3-0.5c2.1-1.7,2.7-4.9,5.6-5.8
			c0.2-0.1,1.2,0.6,1.1,0.9C3514.8,229.6,3512.5,231.5,3511,233.3z"/>
	</g>
</g>
</svg>
