<?xml version="1.0" encoding="utf-8"?>
<!-- Generator: Adobe Illustrator 22.0.0, SVG Export Plug-In . SVG Version: 6.00 Build 0)  -->
<svg version="1.1" id="Слой_1" xmlns="http://www.w3.org/2000/svg" xmlns:xlink="http://www.w3.org/1999/xlink" x="0px" y="0px"
	 viewBox="0 0 16 16" style="enable-background:new 0 0 16 16;" xml:space="preserve">
<style type="text/css">
	.st0{display:none;}
	.st1{display:inline;}
	.st2{fill:#232023;}
	.st3{fill:#EE964C;}
</style>
<g class="st0">
	<g class="st1">
		<g>
			<path class="st2" d="M-26.7,24.3c0.6-4.5-3.2-12.6-8.9-10.9c-5.7,1.6-8.1,11-7.9,16c0.2,4.9,2.3,12,8.5,11.3
				c7-0.9,10-10.5,11-16.3c-1.6-0.2-3.3-0.4-4.9-0.7c-0.5,5.6-0.1,11,1.2,16.4c0.7,3.1,5.6,1.8,4.8-1.3c-1.2-5-1.5-9.9-1-15.1
				c0.3-2.8-4.4-3.4-4.9-0.7c-0.5,3.2-1.4,6.3-3,9.1c-0.5,0.9-1.6,3-2.7,3.3c-2.8,0.6-3.3-2.1-3.6-3.9c-0.5-2.7-0.2-5.6,0.8-8.2
				c0.3-0.8,1.9-4.5,2.9-4.8c1.7-0.5,3.2,3.3,3.1,4.5C-32,26.1-27.1,27.5-26.7,24.3L-26.7,24.3z"/>
		</g>
	</g>
	<g class="st1">
		<g>
			<path class="st2" d="M-18.1-0.2c1.5,11.9,3.1,23.8,4.6,35.7c0.4,3.1,4.8,3.3,5,0c0.2-3.6-0.5-7.1-0.2-10.7
				c0.1-1.5,0.4-3.2,1.3-4.5c2.2-3,3.4-1.9,4.6,1c1.1,2.8,2.4,5.7,3.1,8.7c0.6,2.6,1.1,5.5-2,6.6c-1.7,0.6-4.6,0.7-5.3-1.5
				c-0.9-3.1-5.7-1.8-4.8,1.3c1.6,5.5,7.9,6.8,12.8,4.5c7.6-3.6,4.3-11.7,2.1-17.7c-1.9-5.3-4.8-13.7-12-8.7
				c-6.8,4.7-4.4,14.2-4.8,21.1c1.7,0,3.3,0,5,0c-1.5-11.9-3.1-23.8-4.6-35.7C-13.5-3.3-18.5-3.4-18.1-0.2L-18.1-0.2z"/>
		</g>
	</g>
	<g class="st1">
		<g>
			<path class="st2" d="M19.4,33.6c5.1-0.9,17.9-5.8,15.9-13c-1.9-7-13.3-2.5-17,0.1c-5.1,3.6-10.3,11.2-5.6,17
				c5.6,7,16.4,3.1,23.7,1.7c3.2-0.6,1.8-5.4-1.3-4.8c-4.2,0.8-8.7,2.2-12.9,2.2c-2.2,0-5.6-0.9-6.2-3.5c-0.6-2.6,2.2-5.9,3.9-7.5
				c1.7-1.5,3.6-2.6,5.7-3.3c1.4-0.4,4.7-1.6,3.8,0.5c-1.4,3.3-8.2,5.1-11.3,5.6C14.9,29.4,16.3,34.2,19.4,33.6L19.4,33.6z"/>
		</g>
	</g>
	<g class="st1">
		<g>
			<path class="st2" d="M-58.7,7.3c2.8-9.2,11.5-26.7-0.6-32.9c-1.4-0.7-3.2-0.1-3.7,1.5C-67.4-8.9-69.1,7-67.7,22.8
				c0.4,5.1,0.3,13.1,4.2,17c4.2,4.3,9.5,1,13-2.3c2.3-2.2-1.2-5.7-3.5-3.5c-1.3,1.2-5.4,1.9-6.8,0.7c-0.4-0.4-0.5-2-0.6-2.6
				c-0.6-2.8-0.9-5.6-1.1-8.4c-0.5-5.2-0.7-10.4-0.5-15.5c0.3-10.5,2.1-20.8,5.1-30.9c-1.2,0.5-2.4,1-3.7,1.5
				c5.5,2.8,3.6,9.4,2.2,14.1c-1.3,4.4-2.6,8.7-4,13.1C-64.4,9.1-59.6,10.4-58.7,7.3L-58.7,7.3z"/>
		</g>
	</g>
	<g class="st1">
		<g>
			<path class="st2" d="M101.9,20.9c0.7,6,0.4,11.9-0.8,17.8c-0.7,3.1,4.2,4.5,4.8,1.3c1.3-6.4,1.7-12.7,1-19.2
				C106.5,17.7,101.5,17.7,101.9,20.9L101.9,20.9z"/>
		</g>
	</g>
	<g class="st1">
		<g>
			<path class="st2" d="M100.9,38.3c0,0.4,0,0.7,0,1.1c0,1.3,1.1,2.6,2.5,2.5c1.4-0.1,2.5-1.1,2.5-2.5c0-0.4,0-0.7,0-1.1
				c0-1.3-1.1-2.6-2.5-2.5C102.1,35.9,100.9,36.9,100.9,38.3L100.9,38.3z"/>
		</g>
	</g>
	<g class="st1">
		<g>
			<path class="st2" d="M130.5,24.3c0.6-4.5-3.2-12.6-8.9-10.9c-5.7,1.6-8.1,11-7.9,16c0.2,4.9,2.3,12,8.5,11.3
				c7-0.9,10-10.5,11-16.3c-1.6-0.2-3.3-0.4-4.9-0.7c-0.5,5.6-0.1,11,1.2,16.4c0.7,3.1,5.6,1.8,4.8-1.3c-1.2-5-1.5-9.9-1-15.1
				c0.3-2.8-4.4-3.4-4.9-0.7c-0.5,3.2-1.4,6.3-3,9.1c-0.5,0.9-1.6,3-2.7,3.3c-2.8,0.6-3.3-2.1-3.6-3.9c-0.5-2.7-0.2-5.6,0.8-8.2
				c0.3-0.8,1.9-4.5,2.9-4.8c1.7-0.5,3.2,3.3,3.1,4.5C125.3,26.1,130.1,27.5,130.5,24.3L130.5,24.3z"/>
		</g>
	</g>
	<g class="st1">
		<g>
			<path class="st2" d="M75.6,13.7c1.7,8.5,2.9,17.1,3.6,25.8c0.2,2.3,2.5,3.1,4.3,1.8c2.9-2.2,3.9-5.4,5-8.7
				c1.6-4.6,2.9-9.4,3.9-14.2c1.8-8.8,2.1-17.7,0.1-26.5c-0.7-3.1-5.5-1.8-4.8,1.3C89.4,1,89.1,9,87.5,16.9
				c-0.7,3.6-1.7,7.2-2.8,10.7c-1.1,3.5-1.9,7.7-4.9,10c1.4,0.6,2.8,1.2,4.3,1.8c-0.7-9.1-1.9-18.1-3.7-27.1
				C79.8,9.2,74.9,10.5,75.6,13.7L75.6,13.7z"/>
		</g>
	</g>
	<g class="st1">
		<g>
			<path class="st2" d="M49.4,7.3c2.8-9.2,11.5-26.7-0.6-32.9c-1.4-0.7-3.2-0.1-3.7,1.5C40.7-8.9,38.9,7,40.3,22.8
				c0.4,5.1,0.3,13.1,4.2,17c4.2,4.3,9.5,1,13-2.3c2.3-2.2-1.2-5.7-3.5-3.5c-1.3,1.2-5.4,1.9-6.8,0.7c-0.4-0.4-0.5-2-0.6-2.6
				c-0.6-2.8-0.9-5.6-1.1-8.4c-0.5-5.2-0.7-10.4-0.5-15.5C45.3-2.4,47-12.7,50-22.8c-1.2,0.5-2.4,1-3.7,1.5
				c5.5,2.8,3.6,9.4,2.2,14.1c-1.3,4.4-2.6,8.7-4,13.1C43.6,9.1,48.5,10.4,49.4,7.3L49.4,7.3z"/>
		</g>
	</g>
</g>
<g>
	<path class="st2" d="M14.8,9.2c0.4-0.2,0.8-0.1,1.1,0c0,0,0.1,0.1,0.1,0.1c0,0.1-0.1,0.1-0.1,0.2C15.7,9.6,15,9.5,14.8,9.2z"/>
	<path class="st2" d="M12.4,13.5c-0.2-0.2-0.2-1-0.1-1.1c0,0,0.2,0,0.2,0C12.7,12.5,12.6,13.3,12.4,13.5z"/>
	<path class="st2" d="M11.8,5.4c0.2,0.3,0.1,1-0.2,1.2C11.4,6.3,11.5,5.7,11.8,5.4z"/>
	<path class="st2" d="M9.8,12.6c-0.1-0.4,0.1-0.9,0.5-1C10.3,12,10.1,12.5,9.8,12.6z"/>
	<path class="st2" d="M8,9.7c0.4-0.1,0.8-0.2,1.2-0.3C9,9.8,8.4,10,8,9.7z"/>
	<path class="st2" d="M14.1,11.4c0.2,0.1,0.5,0.2,0.7,0.4c0.1,0,0.1,0.2,0.1,0.2c-0.1,0-0.2,0.1-0.2,0.1
		C14.4,12,14.2,11.8,14.1,11.4z"/>
	<path class="st2" d="M14.5,6.4c-0.1,0.5-0.5,0.8-0.8,1.2C13.6,7.2,14,6.6,14.5,6.4z"/>
	<path class="st3" d="M11.9,10.2c-0.3,0.5-0.5,0.9-0.7,1.4c0,0-0.1,0-0.1,0c0.1-0.4,0.1-0.9,0.2-1.4c-0.8,0.3-1.5,0.5-2.3,0.8
		c0-0.1-0.1-0.1-0.1-0.2c0.6-0.5,1.3-1,1.9-1.5C10.5,9,10.1,8.8,9.7,8.5c0-0.1,0-0.1,0.1-0.2c0.4,0.1,0.9,0.2,1.4,0.3
		c-0.3-1-0.5-1.8-0.8-2.7c0,0,0.1,0,0.1,0C11,6.7,11.4,7.4,12,8.4c0.2-0.5,0.4-0.9,0.6-1.3c0,0,0.1,0,0.1,0c0,0.4-0.1,0.8-0.2,1.4
		c0.8-0.3,1.5-0.5,2.2-0.8c0,0,0,0.1,0.1,0.1c-0.6,0.5-1.1,0.9-1.8,1.4c0.5,0.3,0.9,0.6,1.4,0.9c0,0.1,0,0.1-0.1,0.2
		c-0.5-0.1-1-0.2-1.7-0.4c0.3,0.9,0.6,1.8,0.9,2.6c-0.1,0-0.1,0.1-0.2,0.1C12.9,11.9,12.4,11.1,11.9,10.2z"/>
	<g>
		<path class="st2" d="M9.9,7.4C9.1,7,8.3,6.7,7.5,6.4C6.7,6.1,5.9,5.9,5.1,5.7C4.3,5.5,3.4,5.5,2.6,5.4C1.7,5.4,0.9,5.5,0,5.7
			c0.8-0.3,1.7-0.5,2.5-0.5c0.9,0,1.7,0,2.6,0.2C6.8,5.8,8.5,6.4,9.9,7.4z"/>
	</g>
	<g>
		<path class="st2" d="M9.6,6.6L8.8,5.9C8.5,5.7,8.3,5.5,8,5.3C7.7,5.1,7.4,4.9,7.2,4.7C6.9,4.5,6.6,4.4,6.2,4.2
			c0.4,0,0.7,0.1,1,0.2C7.6,4.6,7.9,4.8,8.2,5C8.7,5.5,9.2,6,9.6,6.6z"/>
	</g>
	<g>
		<path class="st2" d="M5.8,3.8C5.5,3.7,5.2,3.7,4.9,3.7c-0.3,0-0.6,0-0.8,0c-0.3,0-0.6,0-0.8,0c-0.3,0-0.6,0-0.9,0
			c0.5-0.2,1.1-0.3,1.7-0.3C4.7,3.3,5.3,3.4,5.8,3.8z"/>
	</g>
	<g>
		<path class="st2" d="M9,7.7C8.5,7.5,8.1,7.4,7.6,7.3C7.2,7.2,6.7,7,6.3,7C5.8,6.9,5.3,6.8,4.9,6.8c-0.5,0-0.9,0-1.4,0.1
			c0.4-0.2,0.9-0.3,1.4-0.3c0.5,0,1,0,1.4,0.1C7.3,6.9,8.2,7.2,9,7.7z"/>
	</g>
</g>
</svg>
