<?xml version="1.0" encoding="utf-8"?>
<!-- Generator: Adobe Illustrator 22.0.0, SVG Export Plug-In . SVG Version: 6.00 Build 0)  -->
<svg version="1.1" id="Слой_1" xmlns="http://www.w3.org/2000/svg" xmlns:xlink="http://www.w3.org/1999/xlink" x="0px" y="0px"
	 viewBox="0 0 512 512" style="enable-background:new 0 0 512 512;" xml:space="preserve">
<style type="text/css">
	.st0{fill:#181818;}
</style>
<g>
	<path class="st0" d="M487.8,396.6c8.8,15.1,16.7,30.6,20.8,47.8c1.8,7.6,3.4,15.2,3.4,23.1c0.2,26-15.5,42.7-41.6,44.1
		c-2.1,0.1-4.3,0.1-6.4,0.1c-138.5,0-277,0-415.6,0c-6.9,0-13.8-0.4-20.3-2.8C6.9,501.4-3,483.3,0.8,459
		c5.9-37.8,24.2-68.9,51.5-94.9c33.7-32,74.9-49.2,119.8-57.7c64.8-12.3,129.5-11.4,193.4,6.1c48.9,13.4,90.2,38.8,119.9,81
		C486.6,394.3,487.7,395,487.8,396.6z"/>
	<path class="st0" d="M277.2,254.3c-18.5,2.6-36.8,1.5-54.9-2.9c-1-0.6-2.3,0-3.1-1c-35.5-11.7-62.3-33.7-78.2-67.6
		c-18.4-39.5-16.9-78.8,3.8-117.2c1.6-2.9,3.2-5.8,4.8-8.6c5.5-7.2,0,0,5.5-7.2c27.5-33.8,63.1-51.2,106.7-49.3
		c88.7,3.9,146.4,94.3,112.7,176.1c-15.1,36.5-42.3,61-80.1,73.4c-1.8,0.6-3.6,1.2-5.4,1.8C277.2,254.3,288.9,251.7,277.2,254.3z"/>
</g>
</svg>
