<?xml version="1.0" encoding="utf-8"?>
<!-- Generator: Adobe Illustrator 22.0.0, SVG Export Plug-In . SVG Version: 6.00 Build 0)  -->
<svg version="1.1" id="Слой_1" xmlns="http://www.w3.org/2000/svg" xmlns:xlink="http://www.w3.org/1999/xlink" x="0px" y="0px"
	 viewBox="0 0 1070.9 202.6" style="enable-background:new 0 0 1070.9 202.6;" xml:space="preserve">
<style type="text/css">
	.st0{fill:#232023;}
	.st1{fill:#F7F7F7;}
</style>
<g>
	<path class="st0" d="M286,87.4c0-23.5,0.3-47.1-0.1-70.6c-0.3-12.2,4.7-16.4,16.8-16.3c11.9,0.2,14.2,6.5,13.8,16.2
		c-0.1,3.8,0.6,7.6,0,11.3c-4,25.1,5,31.4,30.8,29c51.3-4.8,64.8,10.1,64.8,62.4c0,2.8,0,5.6,0,8.5c0,62.4-34.3,87.2-94.9,68.9
		c-19.5-5.9-30.3-18.5-30.7-38.8c-0.5-23.5-0.1-47-0.1-70.6C286.2,87.4,286.1,87.4,286,87.4z"/>
	<path class="st0" d="M788.5,157.7c16.9-45,32.7-83.1,45.4-122.1c7.1-21.9,18.6-27.8,41.5-19.9c-22.6,57-45.3,113.4-67.3,170.1
		c-4.5,11.6-12.9,11.5-22.6,11.9c-10.5,0.4-17.8-2.5-21.8-13.2c-20-52.6-40.5-105.1-60.7-157.6c-2.2-5.7-7.1-13.4,4.8-14
		c11.6-0.6,23.9-4,29.7,12.7c12.9,37.2,27.2,73.9,41.1,110.8C780.5,141.5,783.2,146.4,788.5,157.7z"/>
	<path class="st0" d="M250.5,137c0,62.8,0,62.8-68,62.4c-38.6-0.2-51.4-13.8-49.3-50.9c1.3-22.7,12.6-34.4,35.2-35.3
		c10.3-0.4,20.6-0.6,31-0.9c9.4-0.3,19.6,1,19.6-13.5c0-13.5-7.8-18.2-19.7-18.3c-13.1,0-26.3,0.4-39.4,0.8
		c-7.7,0.3-15.5,1.1-16.6-9.7c-1.2-11.5,5.3-14.8,15.3-14.5c1.9,0.1,3.8,0,5.6-0.2C245.8,51.2,250.5,55.5,250.5,137z"/>
	<path class="st0" d="M1070.6,137.3c0.8,63.6,0.8,63.6-70.5,62.2c-37-0.8-51-16.9-46.8-53.5c2.2-19.5,12.3-31,32.4-32.4
		c6.6-0.5,13.4,0.4,19.6-1.3c11.6-3.2,32.1,10,32.9-13.7c0.8-24.3-19.8-16.9-33.4-17.9c-9.3-0.7-18.8,0.4-28.2,1.1
		c-7.7,0.6-12.9-1.4-13-10.3c-0.1-6.9,0.2-13.3,9.6-13.9c24.4-1.3,48.9-3.7,73.1,0.8c16.3,3,23,15.8,24,30.9
		C1071.4,105.3,1070.6,121.3,1070.6,137.3z"/>
	<path class="st0" d="M437.8,126.6c-4.7-59.3,14.5-76.4,84-68.6c15.8,1.8,27.2,10.6,32.4,27.1c12.8,40.3,5.2,51.7-36.1,51.7
		c-10.3,0-20.7-0.4-31,0.2c-6.7,0.4-16.4-3.3-17.9,8c-1.4,10.8,0.4,20.7,12.3,25.5c16.5,6.6,33.1,3.7,49.9,1
		c7.1-1.1,17.5-6.8,20.4,6.7c2.7,12.7-5.3,16.2-15.5,18.2c-20.5,4.1-41.2,5.1-61.5,0.8C443.9,190.6,437.8,178,437.8,126.6z"/>
	<path class="st0" d="M0.2,104.1c0-24.4,0.4-48.9-0.1-73.3c-0.3-12.7,3.4-18.5,17.5-18.7c15.3-0.2,16.3,7.8,16.2,19.4
		c-0.3,39.5,0.5,79-0.4,118.4c-0.4,15.9,4.8,22,20.9,20.9c15.9-1.1,31.9-0.3,47.9-0.2c8.5,0,17.4-0.7,17.3,12.2
		c0,11-5.5,14.9-15.7,14.8c-29.1-0.2-58.3-0.3-87.4,0.1C1.6,197.9,0,188.9,0.1,177.4C0.3,152.9,0.1,128.5,0.2,104.1z"/>
	<path class="st0" d="M619.6,100c0,26.3-0.3,52.6,0.1,78.9c0.2,12.6-3.6,19.3-17.6,18.9c-13.2-0.4-15-8.1-15-18.6
		c0.1-53.5,0.3-107.1-0.1-160.6C587,5.8,590.9-0.3,604.8,0c13.4,0.3,15,7.7,15,18.3C619.5,45.5,619.6,72.8,619.6,100z"/>
	<path class="st0" d="M925.4,126.6c0,18.7-0.1,37.4,0.1,56.1c0.1,10.7-4.9,14.8-15.4,14.9c-10.6,0.1-15.6-4.5-15.6-14.9
		c0-37.4,0.2-74.8,0.1-112.2c0-12.1,7.7-12.8,16.9-12.8c9.1,0,14,3,13.9,12.8C925.2,89.2,925.4,107.9,925.4,126.6z"/>
	<path class="st0" d="M909.3,45c-13.9,0.9-14.6-8.2-15-18.3c-0.5-12.2,5.3-16.1,16.9-16.1c13.5,0.1,14.4,7.9,14.5,18.3
		C925.8,40.8,921,46.4,909.3,45z"/>
	<path class="st1" d="M380.6,132.7c-2.5,16.4,8.2,41.8-25.8,43.5c-31.3,1.6-38-3.9-38.4-35.8c-0.1-6.6,0.3-13.2-0.1-19.7
		c-1.3-22.8,1-40.5,31.6-40.9c30.2-0.5,34.5,15.7,32.7,39.4C380.3,122.8,380.6,126.6,380.6,132.7z"/>
	<path class="st1" d="M185.9,135.7c20.4-0.5,34.6-3.3,33.7,19.5c-0.8,21.3-14.5,20.1-28.5,20.9c-15.6,0.9-27.7-1.6-27.8-21.5
		C163.1,132.1,179,136.2,185.9,135.7z"/>
	<path class="st1" d="M1016.7,135.4c9.9-0.4,23.7-2.7,22.9,19.8c-0.8,21.2-14.3,20.1-28.4,20.9c-15.8,0.9-27.8-2.2-27.9-21.6
		C983.2,133,998.7,135.5,1016.7,135.4z"/>
	<path class="st1" d="M495.1,114.1c-10.8-2.5-27.3,5.7-26.2-15.3c1.1-20.7,16.8-18.4,30.7-18.6c12.6-0.2,25.2,0.2,25.4,17.7
		C525.3,122.8,505.6,110.1,495.1,114.1z"/>
</g>
</svg>
