<?xml version="1.0" encoding="utf-8"?>
<!-- Generator: Adobe Illustrator 22.0.0, SVG Export Plug-In . SVG Version: 6.00 Build 0)  -->
<svg version="1.1" id="Слой_1" xmlns="http://www.w3.org/2000/svg" xmlns:xlink="http://www.w3.org/1999/xlink" x="0px" y="0px"
	 viewBox="0 0 1080 1080" style="enable-background:new 0 0 1080 1080;" xml:space="preserve">
<style type="text/css">
	.st0{fill:none;stroke:#474344;stroke-width:3;stroke-linecap:round;stroke-linejoin:round;}
</style>
<g>
	<g>
		<path class="st0" d="M5.5,371.1c0,0,1.2-0.7,1.2-0.7c0.2,0.3,10.7,8.5,10.8,8.8c0.1,0.2,15.5-9.6,15.8-9.1
			c0.1,0.2-11.2,12.8-10.9,13.3c0.3,0.5,26.4-15.3,26.4-15.2c0.7,1.3-28.8,23.2-28.2,24.2c0.6,1.1,41.2-25.2,41.8-24.2
			c0.3,0.5-32.5,26-32.2,26.4c0.7,1.2,50.4-29.8,50.8-29.3c0.8,1.4-48.6,38.7-47.6,40.5c0.7,1.2,70.4-40.9,70.5-40.7
			c0.4,0.6-62.9,49.1-62.7,49.4c2,3.4,91.3-56.7,93.1-53.7c2,3.5-88.8,57.7-87.4,60.2c1,1.7,100.4-59.1,100.9-58.3
			c1.3,2.3-87.6,65.9-87.1,66.8c1.1,1.8,115.4-71.1,117.3-67.7c1.4,2.4-114,70.5-112.6,72.8c3.1,5.3,126.8-74.1,127.2-73.4
			c2.9,5.1-124.1,79.8-122.8,82c0.7,1.3,149.2-90.2,151-87.2C222,358,77.7,455,78,455.5c2.5,4.3,169.4-104.3,172.2-99.4
			C251.1,357.6,82.9,463.4,85,467c4,6.9,194.4-116.6,196.3-113.3c1.4,2.4-189.6,120.3-186.8,125.1C96.9,483,311.3,349.6,313,352.6
			c2.1,3.7-206.7,127.7-205.3,130.2c3.6,6.3,226.7-139.2,230.3-132.9c0.4,0.7-231.9,140.9-229.2,145.6c3.1,5.3,247.2-152,251.2-145
			c1.7,3-241.1,143.2-236.6,151.1c4.7,8.1,509.4-316.6,519.2-299.8c9.1,15.8-520.4,294-510.8,310.8c4.8,8.4,521.1-302,521.6-301.1
			c0.9,1.5-521.1,307.3-519.2,310.6c3.2,5.6,514.5-315.6,522.6-301.7c7,12.1-514.4,304.9-513.1,307.1
			c1.8,3.1,507.6-315.9,517.5-298.8c3.2,5.5-509.5,307.1-509.2,307.6c6.6,11.5,511.4-299.5,513.2-296.3
			c7.2,12.4-520,287.2-511.5,301.9c3.5,6.1,500.6-302.7,506.5-292.4c9.3,16.1-502.4,286.4-495.8,297.9
			c10.1,17.4,488.1-307.7,499.3-288.3c4.5,7.7-510.1,285.5-503.1,297.6c10.6,18.4,502.3-309.6,510.8-294.9
			c6.4,11.1-515.5,281.8-505.9,298.4c5.4,9.3,508-293.8,508.3-293.4c1.1,1.8-501.5,285.4-494.6,297.4
			c4.6,7.9,488.1-299.3,495.7-286.2c8.9,15.5-492.6,294.4-491.9,295.6c2.4,4.1,483.9-301.1,493.3-284.8
			c1.7,2.9-493,276.2-483.4,292.8c4.6,7.9,480.5-293.4,487.4-281.4C687.7,313,200.2,593.4,200.6,594
			c6.6,11.5,481.2-301.5,491.5-283.7c1.6,2.7-486.6,286.1-484.7,289.3c10.6,18.4,484-285.7,486.7-281
			c3.3,5.7-486.9,272.2-475.9,291.3c6.4,11,467.4-292.4,477.2-275.5c6,10.3-476.8,283.8-474.8,287.1
			c6.3,10.9,472.3-284.6,477.5-275.7c10.3,17.9-475.5,280.8-474.3,283c7.8,13.5,471.5-295.8,481.7-278.1
			c5.9,10.2-477.7,275.6-471.7,286.1c6.1,10.6,466.5-289.9,475.4-274.5c10.8,18.6-465.7,279.5-463.1,283.9
			c3.5,6,463.6-278,468.1-270.3c0.7,1.1-473.7,263.3-463.3,281.3c1.4,2.5,471.9-292.4,480.6-277.5c11.2,19.4-493,276.8-482.2,295.4
			c3.3,5.6,497.6-289.8,498.7-287.9c6.2,10.8-512.6,303.2-508.8,309.8c11.1,19.3,523.1-317.9,529.9-306c1.7,3-545.7,298.6-534.5,318
			c1.3,2.3,549.3-319.5,550.3-317.7c11.3,19.5-554.2,328.7-553.3,330.3c6.2,10.7,556.4-339.7,564.4-325.8
			c6.9,11.9-570.3,331.7-566.6,338.1c10.9,18.9,575.3-348.6,582.4-336.3c4.5,7.7-591.1,333.7-584.6,344.9
			c12.4,21.5,587.8-347.6,591.4-341.4c4.5,7.7-605.4,329.7-593.3,350.6c11.3,19.6,588.6-371,602.1-347.6
			c13.5,23.4-603.9,357.4-603.4,358.4c12.3,21.4,618.7-360.2,620-358c6.2,10.8-626.5,372.2-625,374.8
			c2.8,4.9,629.1-378.1,635.5-366.9c12.6,21.8-643.9,382-641.3,386.5c13.5,23.3,661.8-394.2,667-385.1
			c3.9,6.8-674.4,382.2-666.3,396.2c14.3,24.8,665.6-406.5,675.2-389.8c9.7,16.8-691.1,403.6-686.6,411.5
			c2.7,4.7,694.4-437.3,710.2-410c12.9,22.4-713.8,419-710.7,424.4c3.5,6.1,723-417.6,723.1-417.5c1.1,1.9-733.6,415.1-727.3,425.9
			c11.3,19.6,731.7-439.2,739-426.6c0.3,0.5-742.8,434.6-738.6,442c6.8,11.8,738.2-463.8,754.5-435.6
			c8.6,15-769.6,440.5-762.5,452.7c17.2,29.9,766.9-464.5,776.3-448.2c12.3,21.4-782.6,458.2-778.7,464.9
			c8,13.9,798.5-467.2,801.2-462.6c9.9,17.2-826.4,446.2-808,478c7.6,13.2,819.2-485.2,824.5-476C1016,461.7,171.6,919,177.2,928.9
			c17.1,29.6,823.3-505,836.1-482.7c8.1,14.1-852,463.5-835.3,492.5c4.6,8,843.2-500.1,848.9-490.1
			c10.8,18.8-864.7,491.9-855.1,508.5c11.3,19.5,866.7-513.4,872.3-503.6c5.5,9.5-890.4,495.9-875.6,521.5
			c16,27.8,881.2-535.1,892.6-515.3c14,24.3-905.6,513-895.7,530.1c5.3,9.2,909.4-542.5,916.9-529.4
			c0.8,1.4-918.2,532.4-916.4,535.5c11.2,19.4,881-552.6,900-519.6c17.6,30.5-922.4,497.6-904.2,529.1
			c7.9,13.7,852.5-537.2,872-503.5c11.9,20.6-851.4,491-844.6,502.7c7.7,13.3,781-460.8,785.3-453.4
			c3.4,5.8-702.2,414.2-699.8,418.4c1.1,1.9,634.7-376.1,638.9-368.8c5.4,9.4-562.9,332.2-560.6,336.2
			c8.5,14.8,501.7-307.7,509.5-294.2c8.1,14-450.7,248.5-441.2,265c6.2,10.7,395.9-241.3,401.4-231.8
			c2.2,3.9-321.4,193.2-319.1,197.1c3,5.3,284.5-167.8,286-165.1c5.9,10.2-279.7,163.8-278,166.7c3.1,5.3,276.2-168.1,279.9-161.6
			c6.1,10.5-278.5,162.1-276.1,166.3c2,3.5,274.3-172.2,280.3-161.8c0.7,1.2-281.1,159-276.2,167.5c5,8.7,269.2-157.4,270.1-155.9
			c1.8,3-260.1,156.5-256.2,163.3c4.1,7.1,259-162.5,264.6-152.8c3.4,6-253.5,149.3-249.8,155.6c4,6.9,239.6-149.8,244.6-141.2
			c2.6,4.4-241.6,146.1-238.5,151.5c2.2,3.8,241.2-141.3,242.1-139.8c1.5,2.7-240.6,140-237.1,146c4.2,7.2,234.1-145.8,238.7-137.8
			c3.5,6.1-228.2,137.2-227.1,139.2c2.6,4.6,228.8-135.5,230.3-132.9c4.5,7.8-228.8,136-226.7,139.7
			c3.6,6.3,222.8-135.7,225.9-130.4c4.8,8.3-217.1,126.8-214.1,132.1c1.4,2.5,214-129.1,216.4-125c1.9,3.3-212.4,126.9-208.1,134.3
			c1.1,1.9,206-121.3,207-119.5c4.5,7.8-199.8,114.3-196.1,120.8c0.1,0.2,195.5-113.4,195.7-113c1.4,2.4-195.3,112.6-191.4,119.2
			c2.5,4.3,186-113.1,188.4-108.8c3.7,6.4-189,112.3-187.7,114.5c3.5,6.1,190.1-118.1,193.7-111.8c0.5,0.8-178.3,114.2-177.8,115.2
			c0.6,1,173.5-108.5,177.1-102.3c2.8,4.9-176,107.6-174.1,111c2.1,3.6,178.3-103.1,178.4-103c1.9,3.2-167.6,105.6-166.4,107.7
			c1.3,2.3,165.9-100.1,167.8-96.9c0.6,1-160.8,103.8-159.5,105.9c1.1,1.8,157.4-93.9,158.7-91.6c2.6,4.5-139.6,92.7-137.9,95.6
			c2.8,4.8,134.6-83.4,137-79.1c1.9,3.4-130.1,83.2-128.4,86.1c1.7,2.9,130.7-80.1,132.7-76.6c0.1,0.1-129.8,82-128.2,84.7
			c2.6,4.6,121.8-74.3,123.5-71.3c1.3,2.2-113,79.9-112.8,80.4c1,1.7,117.4-69.2,118-68.1c0.3,0.6-110.6,72.3-109.5,74.2
			c0.3,0.5,104.4-63.1,105.6-61c1.2,2.1-94.3,59.5-92.6,62.4c0.1,0.1,90.1-57,92.2-53.2c2,3.4-86.2,61.3-85.7,62.2
			c2,3.5,89.4-54.7,90.7-52.4c0.4,0.8-78.3,56.5-76.4,59.8c0.9,1.5,78.9-47.6,79.8-46.1c1.5,2.6-72.4,50-72.1,50.5
			c1.2,2.1,66.1-41.5,67.5-39c0.7,1.2-57.9,40.7-56.8,42.6c0.9,1.5,64.4-37.5,64.6-37.3c0.1,0.2-56.9,40.2-56.2,41.4
			c0.8,1.4,53.9-32.5,54.5-31.4c0.2,0.3-50.1,33-49.1,34.6c0.3,0.5,47.1-27.7,47.3-27.3c0.2,0.4-40.9,29.6-40.2,30.8
			c0.6,1,42.1-26,42.9-24.7c0.8,1.3-36.7,31.9-36,33.1c0.4,0.6,34.1-21.1,34.7-20c0.4,0.7-25.9,21.2-25.5,21.9
			c0.2,0.3,30.2-18.8,30.8-17.8c0.1,0.1-27.2,25.1-26.6,26.1c0.3,0.6,22.7-13.5,22.8-13.2c0,0-12.9,14.7-12.8,15
			c0.1,0.2,11.7-7.4,12-6.9c0.1,0.1-13.7,13.1-13.5,13.6c0.3,0.4,15.4-9,15.4-8.9c0,0.1-3.4,15.2-3.2,15.5c0,0.1,5.3-3.2,5.4-3.1"/>
		<path class="st0" d="M576.4,28.4c0,0,1.1-0.7,1.1-0.6c0,0-15.4,20.6-15,21.3c0.2,0.3,17.7-10.3,17.7-10.2
			c0.2,0.3-20.3,17.9-20.3,17.9c0.3,0.5,20.5-12.8,20.9-12.1c0.8,1.5-39.8,39.6-39.5,40c0.3,0.5,44.9-26.1,45-26
			c0.4,0.6-50.8,39.5-50.3,40.4c0.7,1.1,54.1-32.6,54.7-31.6c0.9,1.6-68.4,43.3-67,45.7c0.7,1.2,68-42.5,69.4-40.1
			c1,1.8-80.2,56.4-79.7,57.3c1.4,2.4,82.8-48.9,83.3-48.1c0.3,0.5-90.3,59-90.2,59.1c2,3.4,93.8-54.5,93.9-54.2
			c0.9,1.6-102.5,71.6-101.7,72.8c1.2,2,107.5-62.3,107.6-62.1c2,3.4-122.5,79-120.1,83.1c2.9,5,125.6-74.4,126.4-73
			c2.1,3.7-145.5,94.1-144.9,95.3c2.5,4.4,149.2-88.2,150.1-86.6c2.2,3.8-152.8,87.4-149.8,92.6c0.7,1.2,148.1-87.2,148.9-86
			c2.3,4-167.5,101.4-164.9,106.1c3.2,5.6,162-100.5,165-95.3c0.3,0.5-176.3,105.2-173.8,109.7c1.2,2,175.7-106.4,177.8-102.7
			c2.6,4.4-190.1,118.4-188.8,120.7c0.8,1.4,187.6-113.8,190-109.7c0,0-200.7,116.8-197.7,122.1c4.5,7.8,201-118.4,202-116.6
			c2.2,3.8-204.7,125.9-203.9,127.2c4.1,7.1,207.4-122.7,208.6-120.5c0.2,0.3-224.6,132.6-220.7,139.4c1.8,3,222.6-139,227.2-131.2
			c3.3,5.7-248.2,152.9-246.5,155.9c3.4,5.9,239.5-148.6,243.9-140.8c0.8,1.4-258.9,147.8-253.4,157.2
			c2.6,4.5,260.1-153.6,261.6-151"/>
	</g>
</g>
</svg>
