<?xml version="1.0" encoding="utf-8"?>
<!-- Generator: Adobe Illustrator 22.0.0, SVG Export Plug-In . SVG Version: 6.00 Build 0)  -->
<svg version="1.1" xmlns="http://www.w3.org/2000/svg" xmlns:xlink="http://www.w3.org/1999/xlink" x="0px" y="0px"
	 viewBox="0 0 1080 1080" style="enable-background:new 0 0 1080 1080;" xml:space="preserve">
<style type="text/css">
	.st0{display:none;}
	.st1{display:inline;}
	.st2{fill:#EBA85B;}
	.st3{display:inline;fill:#F0EFEF;}
	.st4{display:inline;fill:#F7F3F2;}
	.st5{display:inline;fill:#F8F6F6;}
	.st6{display:inline;fill:#F9F8F7;}
	.st7{display:inline;fill:#F7F6F6;}
	.st8{display:inline;fill:#F5F2F1;}
	.st9{display:inline;fill:#F0ECEB;}
	.st10{display:inline;fill:#FEFBFA;}
	.st11{display:inline;fill:#F7F5F4;}
	.st12{display:inline;fill:#FAF9F9;}
	.st13{display:inline;fill:#F5F3F3;}
	.st14{display:inline;fill:#FAF9F8;}
	.st15{display:inline;fill:#F6F5F5;}
	.st16{display:inline;fill:#F6F5F6;}
	.st17{display:inline;fill:#F7F5F5;}
	.st18{display:inline;fill:#F2EEED;}
	.st19{display:inline;fill:#EEEAEA;}
	.st20{display:inline;fill:#EAE7E6;}
	.st21{display:inline;fill:#F1EDEC;}
	.st22{display:inline;fill:#EBE7E6;}
	.st23{display:inline;fill:#ECE8E8;}
	.st24{fill:#54514E;}
	.st25{fill:#55504F;}
</style>
<g id="Слой_3" class="st0">
</g>
<g id="Слой_1" class="st0">
	<g class="st1">
		<path class="st2" d="M2229.7,572.8c-4.3-3.7-8.2-3.2-12.6-0.2c0.6-5.2,0-9-5.8-10.8c4.4-2.1,7.9-4,6.1-9.9c4.4,3,8.1,4.3,12.4,0
			c-0.2,5.2-0.1,9.6,6.2,10.9C2231.7,565.2,2227.9,567.1,2229.7,572.8z"/>
		<path class="st2" d="M2333.2,493.9c3.8,3.5,7.3,2.6,11.4,0.1c-0.4,4.9,0.6,8.6,6.1,10.5c-4.1,1.6-7.1,3.1-6.3,7.3
			c0.2,1-0.9,1.7-1.6,1.1c-3.3-3.1-6.5-2-10.4,0.8c0.8-5.4-0.4-8.8-5.6-10.7C2331.5,501.2,2334,498.7,2333.2,493.9z"/>
		<path class="st2" d="M2523.6,499.1c3-1.9,6.2-3,5.7-7.4c-0.2-2,1.6-1.1,2.4-0.4c2.2,2,4.4,2,6.7,0.5c1.9-1.2,3.1-0.5,2.6,1.6
			c-0.9,4,1.8,5.6,4.8,7.7c-3.8,1.9-6.7,4.1-5.7,9.2c-3.6-2.1-6.6-4.4-10.3-1.6c-0.8,0.6-2.4,0-1.8-1.3
			C2529.9,503,2526.4,501.4,2523.6,499.1z"/>
		<path class="st2" d="M2456.7,519c4.9-2.9,5-6.2,2.7-10.7c5.1,2,8.7,1.3,11.7-4.3c0.7,6.1,3.1,8.8,8.7,8.9
			c-3.9,3.3-5.1,6.5-2.5,10.9c-4.1-1-7.7-1.8-10.1,2.1c-0.8,1.3-2,0.4-2-0.6C2464.7,520.7,2461.1,520.1,2456.7,519z"/>
		<path class="st2" d="M2411.3,502.4c1.5,3.3,1.9,7.2,6.5,7.2c1.5,0,1.6,1.4,0.7,2c-3.1,2.4-3.1,5.2-0.4,9.4
			c-5.4-1.9-9.1-1.1-12,3.6c-0.9-5.2-3.2-8.1-8.3-8.1c1.7-3,5.4-5,2.9-8.9c-0.7-1.1,0.3-2.2,1.4-1.6
			C2406.5,508.2,2408.6,504.6,2411.3,502.4z"/>
		<path class="st2" d="M2307.4,575.4c-17.9-2.1-35.7-4.3-53.5-6.4c-3.6-0.4-7.2-0.9-10.9-1.4c-1.3-0.2-3.5,0.4-3-2.1
			c0.4-1.9,2.2-1,3.4-0.9c12,1.4,24.1,2.8,36.1,4.3c9.4,1.1,18.8,2.3,28.2,3.5c1.2,0.2,3.1-0.3,2.9,1.7
			C2310.3,576,2308.5,575.5,2307.4,575.4z"/>
		<path class="st2" d="M2336.3,566.9c-2.2,3-4.6,5.5-2.4,9.1c0.4,0.7-0.4,1.7-1.4,1.2c-4-1.9-5.9,1.3-8.5,3.8c-1.5-3.9-3-7.5-9-6.5
			c3.6-3.5,4.7-6.8,2.1-11.4c4.4,1.7,7.4,1.7,9.5-1.9c0.6-1.1,1.9-1,2.2,0.3C2329.5,565.5,2332.2,566.7,2336.3,566.9z"/>
		<path class="st2" d="M2237.3,486.4c4.1-1.5,6.2-3.9,5.5-8.7c3.7,3.7,7.1,2.9,10.8,0.6c-0.5,4.5,0.3,7.8,4.6,9.5
			c-2.4,2.1-6.1,2.7-5.2,6.8c0.3,1.3-1,1.8-2,0.9c-2.2-2-4.4-1.8-6.7-0.3c-1.1,0.7-2.7,0.7-2.2-1
			C2243.2,490.1,2240.2,488.6,2237.3,486.4z"/>
		<path class="st2" d="M2319,500.1c-15.6-3-31-6-46.3-9c-1-0.2-3.1,0.2-2.5-2.1c0.4-1.7,1.8-1,2.8-0.8c15.3,3,30.6,6,46,9
			c1.1,0.2,2.7,0.2,2.4,1.8C2321.2,500.5,2320,500.6,2319,500.1z"/>
		<path class="st2" d="M2225.5,549.4c-2.4-0.4-1.6-1.9-1-3.3c2.5-6.3,5-12.7,7.5-19c2.9-7.4,5.9-14.8,8.9-22.2
			c0.5-1.2,0.5-3.5,2.7-2.7c2.4,0.9,0.5,2.6,0.1,3.7c-5.3,13.6-10.7,27.2-16.1,40.7C2227.1,547.7,2227.1,549.1,2225.5,549.4z"/>
		<path class="st2" d="M2339.4,518.2c-3.4,12.5-6.7,24.5-10,36.5c-0.3,1.1-0.5,2.4-2.2,1.9c-2-0.6-0.8-1.8-0.6-2.8
			c3.2-11.9,6.4-23.7,9.7-35.6c0.3-0.9,0.2-2.7,1.9-2.3C2339.7,516.1,2339.7,517.4,2339.4,518.2z"/>
		<path class="st2" d="M2521.8,504.5c-0.1,1.3-1.3,1.5-2.2,1.7c-10.7,2.9-21.5,5.8-32.2,8.8c-1.3,0.3-2.4,0.4-2.8-1.1
			c-0.3-1.3,0.9-1.6,1.9-1.9c10.9-2.9,21.8-5.8,32.7-8.7C2520.4,503,2521.5,502.8,2521.8,504.5z"/>
		<path class="st2" d="M2360.5,504.5c10.6,2.6,21.6,5.2,32.6,7.9c1.1,0.3,1.8,0.6,1.6,1.9c-0.3,2-1.7,1.2-2.7,1
			c-10.8-2.6-21.6-5.2-32.4-7.8c-1.1-0.3-2.6-0.3-2.3-2C2357.6,503.9,2359.1,504.4,2360.5,504.5z"/>
		<path class="st2" d="M2439.1,511.4c4.9,0.4,9.9,0.7,14.8,1.1c0.9,0.1,2.1-0.2,2.2,1.3c0.1,1.7-1,1.8-2.3,1.8
			c-8.2-0.6-16.5-1.2-24.7-1.8c-1.1-0.1-2-0.4-2-1.7c0.1-1.8,1.5-1.4,2.6-1.3c3.1,0.2,6.3,0.5,9.4,0.7
			C2439.1,511.5,2439.1,511.5,2439.1,511.4z"/>
	</g>
	<path class="st3" d="M2545.9-64.6c-0.2,0.3-0.3,0.9-0.7,1.1c-1.1,0.8-1.8-0.1-2.6-0.8c-4.5-4-8.9-8-13.4-12
		c-12.1-10.9-24.2-21.9-36.3-32.8c-0.4-0.3-0.8-0.6-1.1-1c-0.7-0.8-2.2-1.4-1.1-2.8c1.4-1.7,2.4,0,3.2,0.7
		c6.5,5.7,12.9,11.5,19.3,17.3c10,9,20,18.1,30,27.1C2544.3-66.8,2545.5-66.1,2545.9-64.6z"/>
	<path class="st3" d="M2462.8-119.8c5-2,5.5-5.2,4.8-9.4c4.1,2.3,7.4,2.2,10.6-1.7c1.2,4.1,1.4,8.5,7.6,9c-4.2,2.5-6.2,5.2-4.4,9.9
		c-3.9-1.7-6.9-2.5-9.7,0.4c-0.8,0.8-2.2,0.5-2-0.9C2470.1-116.8,2466.9-118,2462.8-119.8z"/>
	<path class="st3" d="M2328.5-97.3c-5.1-1.1-8,0.8-9.8,5.3c-2.1-3.1-3.4-6.7-7.9-5.9c-1.3,0.2-1.7-1.1-0.8-2
		c2.9-2.8,0.9-5.4-0.6-8.4c4.1-0.2,8.1-0.1,9.1-6c2.8,3.9,4.5,8,10.1,6.1C2325.8-104.5,2325.6-101.2,2328.5-97.3z"/>
	<path class="st3" d="M2546.8-58.4c3.9,1.4,6.8,3.2,9.6,0.1c0.9-1,2.3-0.7,2.3,1c0,3.8,2.3,5.5,6.8,6.3c-4.1,2.6-6.1,5.3-4.6,10.1
		c-4.5-2.9-7.9-1.5-11.2,1.3c-0.2-4.4-1.3-7.9-6.9-8.8C2546.6-50.9,2548.9-53.5,2546.8-58.4z"/>
	<path class="st3" d="M2378.3-136.9c0,5.6,1.6,8.8,7,9.8c-4.3,2.3-5.9,5.2-4.5,10c-4.4-2.9-7.8-2.1-11.1,1.3
		c-0.4-4.6-1.5-8.1-6.8-8.8c3-2.8,6.5-4.8,3.3-10.3C2371.3-132.5,2374.9-132,2378.3-136.9z"/>
	<path class="st3" d="M2403.8-128.5c17.8,1.3,35.6,2.5,53.3,3.8c1.2,0.1,3.1-0.6,3.1,1.4c0,2.4-2,1.6-3.4,1.5
		c-19.8-1.3-39.6-2.7-59.3-4c-1.2-0.1-3.1,0.4-3.1-1.6c0-2.6,2.1-1.3,3.4-1.4C2399.8-128.8,2401.8-128.6,2403.8-128.5z"/>
	<path class="st3" d="M2338.4-108.6c-1.6,0.3-2,0-2.2-0.8c-0.2-0.9,0-1.6,0.8-2.1c6.8-3.3,13.7-6.7,20.6-10c0.9-0.4,1.6-0.2,2.1,0.6
		c0.5,0.7,0.3,1.4-0.3,1.7C2352.3-115.5,2345-111.9,2338.4-108.6z"/>
	<g class="st1">
		<path class="st2" d="M1637.2,289.7c-2.2-3.3-4.6-4.2-8.4-3c2.6-3.7,1.1-6.2-1.2-8.9c3.6-0.5,6.2-1.6,6.8-5.5
			c2,2.6,3.9,4.4,7.6,2.6c-1.1,3.5-1.3,6.3,1.9,8.8C1640.6,284.4,1637.6,285.2,1637.2,289.7z"/>
		<path class="st2" d="M1583.7,345.3c-1.8,2.7-3.8,4.3-2.3,6.9c0.8,1.3,0,2.6-1.5,2c-3-1.2-4.1,1.3-5.9,3.1
			c-1.3-2.8-2.4-5.4-6.3-4.5c1.4-3,3.9-5.4,0.9-8.6c3.2-0.8,6.9,0.7,7.9-4.1C1578.3,343.2,1579.4,346.1,1583.7,345.3z"/>
		<path class="st2" d="M1620.4,356.5c-0.9-3.7-2.6-5.5-6.4-5.4c2.5-2.8,3.1-5.4,1.3-8.6c3.4,0,6.6,0.8,8.1-3.4
			c1,3.6,2.8,5.2,6.2,4.9c-1.1,2.9-3.9,5.3,0.2,9C1625.1,352.3,1622.3,352.7,1620.4,356.5z"/>
		<path class="st2" d="M1570.2,393.7c2.7,3,5,3.5,7.8,1.7c0.5,2.6-0.7,5.4,2.3,6.8c1.2,0.6,0.8,1.9-0.3,2.1c-3,0.6-3.2,2.9-3.8,5.6
			c-2.5-1.5-4.8-3-7.8-1c-0.3-2.8,0.6-5.5-2.4-6.9c-1.2-0.6-0.5-2,0.6-2.1C1569.8,399.7,1569.7,397.1,1570.2,393.7z"/>
		<path class="st2" d="M1709,249.1c0.2,0.3,0.2,0.7,0.5,0.8c4.6,2.8,4.2,7.2,3.4,12c-2.3,0-5.5-0.8-7,3.2c1-4.4-9.1-2.9-4-8.9
			C1698.2,248.2,1709.8,254.6,1709,249.1z"/>
		<path class="st2" d="M1645.6,275.2c16.3-4.8,32.7-9.6,49-14.4c0.1,0.5,0.3,0.9,0.4,1.4c-16.3,4.8-32.7,9.6-49,14.5
			C1645.9,276.1,1645.8,275.7,1645.6,275.2z"/>
		<path class="st2" d="M1632.6,289.5c-2.8,14.8-5.6,29.6-8.4,44.4c-0.5-0.1-1-0.2-1.5-0.3c2.8-14.8,5.6-29.6,8.4-44.4
			C1631.6,289.3,1632.1,289.4,1632.6,289.5z"/>
		<path class="st2" d="M1574.7,391c0.7-11.1,1.4-22.1,2.1-33.2c0.5,0,1,0.1,1.5,0.1c-0.7,11.1-1.5,22.1-2.2,33.2
			C1575.7,391.1,1575.2,391,1574.7,391z"/>
		<path class="st2" d="M1613.4,347.7c-9,0.4-18.1,0.9-27.1,1.3c8.9-2.5,18-2,27-2.7C1613.3,346.7,1613.4,347.2,1613.4,347.7z"/>
	</g>
	<path class="st3" d="M2321.8,126.3c-0.4-0.3-0.9-0.5-1.2-0.9c-0.9-1.4,0.4-2.1,1.1-2.9c5-5.8,10-11.5,15-17.3
		c12.6-14.6,25.3-29.1,38-43.6c0.9-1,1.6-3.8,3.7-2.1c2,1.7-0.4,2.9-1.3,4c-17.1,19.7-34.2,39.5-51.3,59.1
		C2324.6,124,2323.2,125.1,2321.8,126.3z"/>
	<path class="st3" d="M2304.9,138.8c0.8-1.3,1.3-1.7,1.3-2.1c0-5.5,3.8-7.6,8.7-8.9c1,1.2,1.4,4,4.4,3.9c1.2,0,1.1,1.2,0.5,1.8
		c-2.1,2.1-0.9,4.3-0.4,6.8c-2.7,0.6-6.3-1-7.5,4.2C2310.3,140.7,2309,138.3,2304.9,138.8z"/>
	<path class="st3" d="M2371.9,168.6c-2.3,3.6-0.2,5.9,1.5,8.7c-3.6,0.2-6.1,1.4-6.3,4.8c-0.7,0-0.9,0-1-0.1
		c-1.3-3.1-6.4-1.9-6.4-3.5c0.1-2.9,0.1-5.1-2.7-7.4c3.8-0.6,6.5-1.6,7-5.7C2366.4,167.9,2368.2,170.2,2371.9,168.6z"/>
	<path class="st3" d="M2290.6,200.7c2.2-3.4-5.8-7.6,1.1-10.1c0.9-8.1,7.2,2.9,9-2.9c-0.4,3.5,0.6,5.8,3.9,7.7
		c-3.8,0.8-5.4,2.8-5.2,6.6C2296.3,200.8,2293.8,198.4,2290.6,200.7z"/>
	<path class="st3" d="M2359,166c-0.4,0.6-0.6,1.3-1.1,1.7c-1.1,1-1.7-0.2-2.4-0.7c-6.4-4.4-12.9-8.9-19.3-13.3
		c-3.6-2.5-7.1-4.9-10.7-7.3c-0.8-0.6-1.7-1.2-0.9-2.4c0.7-1.1,1.5-0.9,2.5-0.2c10.3,7.1,20.6,14.1,30.8,21.1
		C2358.4,165.2,2358.6,165.6,2359,166z"/>
	<path class="st3" d="M2387.6,42.4c1,4.2,2.8,5.7,6,5.8c-0.4,2.4-3.3,3.9-1.6,6.5c0.8,1.2,0,2.5-1.5,2c-2.9-0.8-4,1.8-6.1,3
		c-0.6-3.1-2.5-4.8-6.4-4.7c2.8-2.8,3.6-5.4,1.4-9C2383,47.1,2385.7,46.8,2387.6,42.4z"/>
	<path class="st3" d="M2283.3,232.2c2.8,2.7,5.3,2.5,8.4,1.1c-0.6,3.4-0.9,6.2,3.3,7.4c-2.6,2.4-6.7,2.8-4.7,7.6
		c-3.4-1.4-5.6-4.2-8.2-1.1c-0.5-0.9-0.8-1.3-0.7-1.5c1.9-3.2-3.4-5.3-2-7.1C2280.7,236.7,2284,236.2,2283.3,232.2z"/>
	<path class="st3" d="M2297.3,184.7c-2-0.4-1.5-1.9-1.1-3.1c3.6-11.6,7.2-23.2,10.8-34.8c0.3-1,0.6-2,1.9-1.8c1.7,0.3,1.3,1.7,1,2.8
		c-1.9,6.2-3.9,12.4-5.8,18.6c-1.6,5.2-3.2,10.5-4.8,15.7C2298.9,183.2,2298.9,184.5,2297.3,184.7z"/>
	<path class="st3" d="M2294,206.6c-1.2,7.3-2.5,15-3.8,22.7c-0.2,1-0.5,2-1.8,1.7c-1.3-0.3-1.4-1.3-1.2-2.3
		c1.3-7.9,2.6-15.7,3.9-23.6c0.2-1,0.5-2.1,1.8-1.8C2294.7,203.7,2294,205.1,2294,206.6z"/>
	<g class="st1">
		<path class="st2" d="M1572.5,1074.9c2.5,4.2,5.4,5,9.6,3.7c-2.1,3.7-1.7,6.4,1.5,9c-3.9,0.9-6.8,2.2-7.2,6.4
			c-2.7-1.5-4.3-5.4-8.1-3.2c-0.7,0.4-2.2-0.7-1.2-1.7c2.7-3-0.3-4.7-1.8-7.2C1569.1,1081.5,1571.7,1079.9,1572.5,1074.9z"/>
		<path class="st2" d="M1439.6,1074.5c20.1-7.4,40.1-14.9,60.2-22.3c0.2,0.6,0.5,1.2,0.7,1.8c-20.1,7.4-40.1,14.9-60.2,22.3
			C1440,1075.7,1439.8,1075.1,1439.6,1074.5z"/>
		<path class="st2" d="M1412.5,991.4c-5.1-3.4-10.1-7.8-9.6-8.4c3-3.7,6.5-6.6,12.1-3.7c0,1.7-0.4,4.4,3.3,6.1
			C1414.5,986.2,1412.9,988,1412.5,991.4z"/>
		<path class="st2" d="M1395.5,1039.4c0.5,0.4,0.7,0.6,0.9,0.8c3.3,3.2,3.9,7,2.2,11.7c-1.4,0.1-3.5-0.9-5.6,1
			c-2.4,2.1-1.6-2-2.9-2.4c-6.9-1.8,1.4-6.1-1.4-8.6C1391.2,1041.8,1393.8,1041.7,1395.5,1039.4z"/>
		<path class="st2" d="M1480.6,1123.8c-3,0.7-3.8,3.1-4.2,6.1c-2.3-0.9-3.9-3.3-6.4-1.3c-0.9,0.8-1.6-0.1-1.5-1
			c0.2-1.8,0-3.2-1.7-4.2c-1.3-0.8-0.8-1.7,0.3-2.1c1.5-0.6,2.5-1.4,2.5-3.2c0-1.9,0.8-2.3,2.4-1.1c0.8,0.6,2.1,1.3,2.7,1
			c2.5-1.2,3.7-1,3.3,2.2C1477.9,1121.8,1480.3,1122,1480.6,1123.8z"/>
		<path class="st2" d="M1517.4,1045.9c-0.4,2.9-2.5,4.7-0.4,6.8c0.7,0.7,0.2,1.7-0.9,1.5c-2.8-0.5-3.6,1.8-5,3.7
			c-2.3-1.2-2.8-5.6-7.1-3.4c3.1-2.5-2.6-8.4,4.2-8.4C1511.8,1039.2,1513.8,1050.1,1517.4,1045.9z"/>
		<path class="st2" d="M1525,1097.2c-3.6-5-1.9-9,1.2-12.8c1.9,1.4,4.2,2.4,7,0.3c0.2,2.8-0.1,5.5,3.5,6.7c-3.2,1.5-5.2,3.2-4.6,6.5
			C1529.4,1097.5,1527.4,1093.9,1525,1097.2z"/>
		<path class="st2" d="M1410.2,1022.9c2.9,3.6,5.7,2.8,7.9,3.6c1.4,0.5-1.2,4.9,3,5.5c-2,2.1-4.7,2.2-4.9,5
			c-0.1,1.6-1.3,1.8-2.3,0.5c-1.7-2.1-3.6-0.8-6-0.4c1.2-3.1-0.4-5.1-1.9-7.3C1408.7,1028.9,1410.9,1027.7,1410.2,1022.9z"/>
		<path class="st2" d="M1558.5,1049.4c0.6-2.9-0.9-4.6-4-6c3.4-1.5,4.6-3.6,4-6.7c2.7,0.7,5.2,2.9,7.4-0.3
			C1569.1,1046.2,1569.1,1046.2,1558.5,1049.4z"/>
		<path class="st2" d="M1432.5,1085.7c-2.8-2.2-5.2-1.8-7.9-0.2c2.7-3.4-7.1-5.4-0.5-9c-0.6-7.5,6.7,0.4,7.5-5.2
			c1.3,2.9,0.6,5.5,3.4,6.2c0.9,0.2,1,1.4,0,1.9C1432.4,1080.4,1432.7,1082.6,1432.5,1085.7z"/>
		<path class="st2" d="M1433.6,1088.5c11.1,9.7,22.2,19.4,33.3,29.1c-0.4,0.5-0.8,0.9-1.2,1.4c-11.1-9.6-22.2-19.3-33.3-28.9
			C1432.7,1089.5,1433.2,1089,1433.6,1088.5z"/>
		<path class="st2" d="M1479.9,1117.2c13-7.3,26.1-14.6,39.1-21.9c0.3,0.5,0.6,1.1,0.9,1.6c-13.1,7.3-26.1,14.6-39.2,21.9
			C1480.5,1118.3,1480.2,1117.7,1479.9,1117.2z"/>
		<path class="st2" d="M1408.7,992.7c1.7,9.4,3,18.9,2.4,28.5C1409.3,1011.8,1408.1,1002.3,1408.7,992.7z"/>
		<path class="st2" d="M1420.3,1075.7c-6.6-7.2-13.2-14.3-19.8-21.5c0.5-0.4,0.9-0.9,1.4-1.3c6.6,7.2,13.3,14.3,19.9,21.5
			C1421.3,1074.8,1420.8,1075.3,1420.3,1075.7z"/>
		<path class="st2" d="M1418.1,1041.6c2.2,8.9,4.5,17.9,6.7,26.8c-0.5,0.1-1,0.3-1.5,0.4c-3.2-8.7-4.6-17.8-7.1-26.7
			C1416.8,1041.9,1417.4,1041.7,1418.1,1041.6z"/>
		<path class="st2" d="M1538.7,1088.4c8.2-1.4,16.4-2.9,24.7-4.3c0.1,0.5,0.2,1,0.3,1.5c-8,2.5-16.5,3-24.7,4.6
			C1538.9,1089.6,1538.8,1089,1538.7,1088.4z"/>
		<path class="st2" d="M1549.4,1042.3c-8.4,1.8-16.7,3.5-25.1,5.3c-0.1-0.5-0.2-1-0.3-1.5c8.1-2.8,16.7-3.7,25-5.7
			C1549.1,1041,1549.2,1041.6,1549.4,1042.3z"/>
		<path class="st2" d="M1516.5,1058.3c2.4,6.9,4.8,13.8,7.1,20.6c-0.5,0.2-0.9,0.3-1.4,0.5c-3.1-6.6-5.3-13.6-7.4-20.6
			C1515.4,1058.7,1515.9,1058.5,1516.5,1058.3z"/>
		<path class="st2" d="M1567.1,1055.7c1.9,5.6,3.5,11.3,4.6,17.1c-0.5,0.1-1,0.3-1.6,0.4c-1.5-5.7-3.1-11.3-4.6-17
			C1566,1056.1,1566.5,1055.9,1567.1,1055.7z"/>
	</g>
	<path class="st4" d="M2335,1764.5c3.5,1.1,6.3,2,9.2,2.9c18.9,6.2,37.8,12.4,56.7,18.6c1.2,0.4,3.1,0.4,2.7,2.1
		c-0.5,2.1-2.4,1.1-3.7,0.6c-21.3-6.9-42.5-13.8-63.8-20.8c-1-0.3-2.5-0.4-2.5-1.9C2333.6,1765.1,2334.5,1764.4,2335,1764.5z"/>
	<path class="st5" d="M2222,1813.3c-2-5.5-5-7.2-10-6.1c2.8-3.8,3-7.1-0.2-10.9c5.2,0.8,8-1.4,9.9-5.7c1.9,4.5,4.5,6.7,9.6,5.5
		c-2.5,3.8-3.5,7.1,1.3,11.1C2226.5,1806,2223.6,1807.9,2222,1813.3z"/>
	<path class="st6" d="M2407.1,1792.2c5.4,1.4,7.9-1.2,10-5.4c2,4.1,4.3,7,10.2,4.8c-3.4,4.4-3.4,7.7-0.2,11.6
		c-5.3-1.2-7.9,1.2-9.8,5.6c-2.1-4.1-4.5-6.8-9.9-5.4C2410.7,1799.3,2410.2,1796,2407.1,1792.2z"/>
	<path class="st7" d="M2315.1,1754.1c2.5,4.8,5,7.4,10.8,5.2c-3.6,4.5-3.7,7.8-0.3,11.5c-4.7-0.2-8.6,0-9.4,6.3
		c-2.5-4.7-5.2-7.2-10.3-5.8c2.4-3.8,3.4-7.1-0.5-10.8C2310.2,1760.7,2313.7,1759.8,2315.1,1754.1z"/>
	<path class="st5" d="M2185,1855c-3.4-3-6.7-4.2-11-1.4c0.9-4.4,0.4-7.6-4.4-9.6c4.7-1.6,7.6-3.8,6.9-9.1c3.4,2.2,6,4.7,9.5,2.3
		c0.6-0.4,2.1,0.2,1.6,1c-2.9,4.1,4.7,6.7,2.2,8.5C2186.7,1848.8,2185.5,1851.1,2185,1855z"/>
	<path class="st8" d="M2241.8,1792.5c-1.5,0.6-1.8-0.2-2.1-1c-0.4-1.5,1-1.6,1.7-1.9c4.6-1.8,9.3-3.4,14-5.1
		c14.2-5.2,28.3-10.4,42.5-15.5c1.3-0.5,3-1.9,3.8,0.3c0.7,1.9-1.4,1.9-2.5,2.3c-18.6,6.9-37.2,13.8-55.8,20.7
		C2242.7,1792.3,2242.1,1792.4,2241.8,1792.5z"/>
	<path class="st9" d="M2195.1,1832.8c-0.3-0.2-0.8-0.4-1.1-0.7c-0.7-0.7-0.6-1.4,0.1-2.2c4.8-5.7,9.6-11.4,14.5-17.1
		c0.6-0.7,1.3-1.1,2.2-0.7c0.9,0.5,0.9,1.3,0.3,2.1c-5,6-10,12-15,18C2195.8,1832.4,2195.5,1832.5,2195.1,1832.8z"/>
	<g class="st1">
		<path class="st2" d="M1677.3,2202.2c0.3,5.4,1.8,8.9,7.9,9.3c-3.8,3.1-7,5.9-3.2,11.9c-5.9-2.9-10-2.8-13.3,1.9
			c-0.2-5.6-2.2-8.9-8.2-9.5c3.8-2.7,6.3-5.2,4.6-9.4c-0.4-1,0.8-1.6,1.5-1.2C1670.7,2207.7,1673.7,2205.2,1677.3,2202.2z"/>
		<path class="st2" d="M1779.2,2195.5c-2.6,5.9-2.6,5.9-0.6,12.2c-4.2,0.1-9-0.6-9.5,6.8c-3.2-4.7-5-9.3-11.7-6.7
			c3.1-4.5,4.5-8.2,0.3-12.3c5.2,0,9.8,0.1,10.6-7.3C1771.1,2193.7,1773.1,2197.6,1779.2,2195.5z"/>
		<path class="st2" d="M1845.4,2284.5c-3.2,2.8-7.6,5-2.7,11.2c-5.3-1.8-9-3.4-12,0.7c-0.8,1.2-2.1,0.2-2-0.8c0.5-5-3.4-6.1-7.6-7.7
			c5.2-2.4,5.6-6.2,4.2-11c4,1.9,7.3,3.2,10.3-0.3c1.3-1.5,2.7-0.8,2.5,0.9C1837.5,2282.7,1841.8,2282.9,1845.4,2284.5z"/>
		<path class="st2" d="M1566.2,2169.5c6.1,0.7,7.6-3.1,8.8-8.5c3,4.7,6.3,7.3,12.1,4.3c-2,4.9-3.5,8.8,1.9,11.7
			c-5.1,0.8-8.8,2.4-9.1,8.5c-3.6-3.4-6.4-7.4-12.7-3C1570.1,2176.8,1570,2173,1566.2,2169.5z"/>
		<path class="st2" d="M1653.9,2140.9c0,5.4,2,8.6,8.2,8.9c-3.8,3.3-7.4,5.9-3.3,11.6c-5.6-1.8-9.8-3.5-12.9,2.2
			c-0.7-5.4-2.8-8.9-9-9.6c5-2.8,6.9-5.9,4-11.7C1646.3,2145.5,1650.4,2145.3,1653.9,2140.9z"/>
		<path class="st2" d="M1820.8,2272.5c-14-19.8-28-39.5-42-59.3c0.5-0.4,1-0.8,1.6-1.1c14,19.7,28,39.5,41.9,59.2
			C1821.9,2271.8,1821.4,2272.1,1820.8,2272.5z"/>
		<path class="st2" d="M1755.9,2201.2c-21.3,3-42.6,6.1-63.9,9.1c-0.1-0.6-0.2-1.3-0.3-1.9c21.3-3.1,42.6-6.1,63.9-9.2
			C1755.7,2199.9,1755.8,2200.5,1755.9,2201.2z"/>
		<path class="st2" d="M1639.7,2159.7c-15.5,4.2-31,8.4-46.4,12.6c-0.2-0.6-0.3-1.2-0.5-1.9c15.5-4.2,31-8.4,46.4-12.6
			C1639.4,2158.5,1639.6,2159.1,1639.7,2159.7z"/>
		<path class="st2" d="M1656.6,2165.8c4.8,12.1,9.5,24.1,14.3,36.2c-0.6,0.2-1.1,0.5-1.7,0.7c-4.8-12.1-9.7-24.1-14.5-36.2
			C1655.3,2166.3,1656,2166,1656.6,2165.8z"/>
	</g>
	<ellipse class="st10" cx="2345.5" cy="2144.6" rx="78.6" ry="0.9"/>
	<path class="st11" d="M2284.7,2142.4c-2.6,3.4-3.3,6.3-0.4,9.6c-4.2-0.5-7.2,0.4-8.7,4.6c-2-3.5-4-6.1-9.1-5c3.2-3.4,3-6.3,1-9.6
		c4,0.4,7.1-0.1,8.2-5.4C2277.9,2140.9,2279.8,2143.6,2284.7,2142.4z"/>
	<path class="st12" d="M2234.2,2218.2c-2-3.4-3.9-6.2-8.8-3.7c0.7-3.5,2.9-6.1,0.1-8.5c-0.7-0.6-0.3-1.9,0.7-1.8
		c3.9,0.6,4.9-2.5,6.6-5.2c2,3.2,4,6.2,9.6,3c-2.8,4.5-3.5,7.4,0.7,10.3C2238.5,2212.8,2235.2,2213.7,2234.2,2218.2z"/>
	<path class="st12" d="M2095.9,2232.6c4.3-1.6,6.2-4,4.7-8.9c3.9,2.6,7,3.7,10.8,0.1c-1,4.6,0.9,6.8,4.4,8.4
		c-2.6,1.7-5.6,2.8-4.6,6.3c0,0.2,0,0.3,0,0.5c-0.1,1-1.1,1.8-1.6,1.1c-2.4-3.9-7.5,1.9-8.5-1.8
		C2100.2,2235.5,2098.8,2234.3,2095.9,2232.6z"/>
	<path class="st13" d="M2343.2,2278.3c-4.8-1-6.9,1.3-8.2,4.9c-2.5-2.4-4.1-6-9.3-3.2c2.2-4.1,1.6-6.8-0.8-9.5
		c3.8-0.9,7.5-1.6,8.3-6.7c2.2,3.7,4.4,6.1,9.2,4.6C2339.8,2272.1,2340.4,2275,2343.2,2278.3z"/>
	<path class="st14" d="M2131.2,2147c-1.4-4.2-4.1-5.4-8.4-5c2.1-3,3.5-5.7,0-8.8c4.3-0.1,7.4-1,8.9-5.2c1.8,3.8,4.3,5.8,8.8,5.1
		c-2.2,3.2-3.8,5.9,0.1,9.2C2136.5,2142.7,2132.8,2142.7,2131.2,2147z"/>
	<path class="st15" d="M2400.4,2150.7c4.6-2.3,6.3-4.7,3.6-9.8c4.8,3.2,7.8,2.4,10.8-0.5c0.3,4.1,1.4,7.1,6.6,7.6
		c-4.1,2.3-4.8,5.2-4.1,8.9c-3.5-1.6-6.7-2.6-9.6,2.8C2407.4,2154.3,2406,2151.3,2400.4,2150.7z"/>
	<path class="st5" d="M2290,2218c3.7,2.1,6.7,2.1,9.8-1.8c0.3,4.5,1.3,7.7,5.8,7.9c-3.7,4.1-3.7,4.1-3.6,8.8
		c-3.2-1.2-6.5-2.1-9.2,2.3c-0.9-4.4-1.7-7.8-6.9-8.2C2290,2224.8,2290.9,2222,2290,2218z"/>
	<path class="st16" d="M2188,2155.1c1.7,3.3,3.3,6.4,8.6,4.3c-2.2,3.7-4.1,6.5,0,10c-4.9-0.7-7.6,1-9.3,5.1
		c-1.9-3.6-3.4-6.8-8.3-5.1c1.5-3.5,3.4-6.5,0.1-9.7C2183.7,2161,2185.8,2158.2,2188,2155.1z"/>
	<path class="st17" d="M2176.1,2207.3c-4.9,3.6-4.9,3.6-5.2,8.6c-3.1-0.2-6.4-4.1-9.5,0.7c0.1-4.1-1.2-6.6-4.7-8.3
		c3.3-2,5.9-4.1,4.1-8.8c3.9,2.1,7,3.6,10.2,0C2171.4,2203.2,2170.8,2206.8,2176.1,2207.3z"/>
	<path class="st18" d="M2200.8,2158.3c20.3-3.3,40.5-6.7,60.8-10c0.1,0.7,0.2,1.5,0.4,2.2c-20.3,3.3-40.5,6.7-60.8,10
		C2201,2159.8,2200.9,2159.1,2200.8,2158.3z"/>
	<path class="st19" d="M2283.9,2219.4c-12.2-2.2-23.8-6.3-35.2-11.2C2260.8,2210.6,2272.5,2214.5,2283.9,2219.4z"/>
	<path class="st20" d="M2119.6,2224.5c3.1-2.5,7.1-2.9,10.7-4.3c6.5-2.4,13.2-4.4,19.8-6.6c0.9-0.3,2-0.9,2.7,0.1
		c0.6,0.9-0.1,1.5-0.9,1.8c-10.6,3.5-21.1,7-31.7,10.5C2120,2225.5,2119.8,2225,2119.6,2224.5z"/>
	<path class="st21" d="M2220.4,2211.6c-13,0-26,0-39,0c0-0.4,0-0.8,0-1.1c13,0,26,0,39,0C2220.3,2210.8,2220.4,2211.2,2220.4,2211.6
		z"/>
	<path class="st20" d="M2147.6,2142.4c2.7-0.7,4.6,1.2,6.6,2.2c6.8,3.3,13.6,6.8,20.4,10.2c0.8,0.4,2,0.9,1.3,2.1
		c-0.3,0.6-1.1,0.5-1.8,0.2c-8.8-4.6-17.9-8.4-26.4-13.6C2147.6,2143.5,2147.7,2143,2147.6,2142.4z"/>
	<path class="st22" d="M2308.8,2238.2c2.9,2,4.2,5.3,6.2,8c3.6,5.1,7,10.4,10.6,15.6c0.6,0.9,1.2,1.7,0.3,2.6
		c-0.6,0.6-1.2,0.1-1.6-0.5c-5.6-8.2-11.1-16.4-16.7-24.6C2308,2238.9,2308.4,2238.6,2308.8,2238.2z"/>
	<path class="st23" d="M2184,2176.4c0.1,0.6,0.5,1.3,0.4,1.8c-2.2,7.8-4.5,15.6-6.8,23.3c-0.2,0.7-0.4,1.8-1.5,1.6
		c-1.2-0.2-1-1.2-0.8-1.9c2.4-8.3,4.9-16.7,7.3-25C2183.1,2176.3,2183.5,2176.3,2184,2176.4z"/>
</g>
<g id="Слой_7" class="st0">
	<g class="st1">
		<path class="st2" d="M2128.5,1134.5c3.5,0.9,5.9,0.9,7.1-2.7c2.1,2.5,2.9,6,6.8,5.3c-2.4,5.2-2.3,8.3,0,8.1
			c2.8-0.3,3.8,1.6,5.5,2.8c2.2,1.5,4.2,3.2,6.3,4.9c9.2,7.4,18.5,14.7,27.7,22.1c1.3,1,2.8,1.8,3.4,3.5c-1.3,1.1-2.1,0.1-3-0.6
			c-12.8-10.1-25.6-20.2-38.3-30.5c-3-2.4-5.7-2.7-8.5-0.5c-1.5,1.2-1.7,0.9-2.9-0.5c-2.2-2.7-6.1-4.4-3-8.9
			C2130,1137.2,2129.2,1136.1,2128.5,1134.5z"/>
		<path class="st2" d="M2198.4,1199.5c15.1,28.5,30.3,57,45.4,85.5c-0.6,0.3-1.2,0.6-1.8,0.9c-15.1-28.5-30.3-57-45.4-85.5
			C2197.2,1200.1,2197.8,1199.8,2198.4,1199.5z"/>
		<path class="st2" d="M2115.1,1255.2c0.8-4-0.7-6.1-3.8-7.4c2.2-2.2,5.3-3.4,3.3-7.6c3.4,1.2,6,2.9,9-1.1c-0.2,4.6,0.8,7,4.2,8.2
			c-2.3,2-5.1,3.3-3.9,7.5C2120.7,1253.1,2118.1,1252.7,2115.1,1255.2z"/>
		<path class="st2" d="M2114.9,1182.8c0.7,1,0.8,1.4,1.1,1.5c4.3,2.6,6.3,6.4,4.8,11.8c-2.2-0.2-4.6,0.8-6.4,4.2
			c-0.8-4.3-3.5-4.8-6.7-4.9c1.1-2.7,3.4-5.2-0.1-8.2C2111,1186.9,2113.8,1186.8,2114.9,1182.8z"/>
		<path class="st2" d="M2145.9,1083.3c-2.1,2.9-3.4,5.3-0.9,8.5c-3.3-0.2-6.2-0.5-7.6,3.2c-1.6-3-2.4-6.1-7.1-4.7
			c2.1-3.4,3.9-5.9,1.5-9.3c3.2,0.3,5.8,0.3,7.5-2.7C2140.8,1081.1,2141.7,1084.1,2145.9,1083.3z"/>
		<path class="st2" d="M2048.9,1103.8c-0.1-3.1,0.8-6.3-3.5-7.1c1.9-2.2,4.9-2.4,4.7-5.5c-0.1-1.5,1.4-1.2,2.1-0.4
			c2,2.1,4,0.6,6.3,0.1c0.3,2.9-0.1,6.1,3.4,7.4c-1.7,1.7-4.9,1.8-4.4,5c0.2,1.1-0.9,1.5-1.6,0.7
			C2053.9,1101.8,2051.5,1103,2048.9,1103.8z"/>
		<path class="st2" d="M2120.6,1302.3c-2.2,3.7-4.4,6.2-0.7,9.3c-3.2,0.4-5.7-0.1-6.9,2.6c-0.5,1.1-1.6,0.8-1.8-0.1
			c-0.7-3-3.3-2.8-6-3.3c1.6-2.7,2.4-5.4,0.1-8.5c3.4,0.3,5.8-0.3,7-3.8C2114.1,1301.6,2115.8,1304.3,2120.6,1302.3z"/>
		<path class="st2" d="M2085.4,1146c-0.5-2.9,0.6-5.3-1.9-6.7c-1.2-0.7-1-1.9,0.2-2.2c2.6-0.7,2.7-2.9,3.1-5.5
			c2.6,1.9,5.1,3.4,8,1.1c0.8,2.9-0.6,6.4,4.2,7.2c-2.8,2.2-6.1,3-4.7,7.4C2091,1145.2,2088.4,1143.8,2085.4,1146z"/>
		<path class="st2" d="M2192.2,1197.2c-1.7-3-2.2-5.5-5.2-5.5c-1.2,0-1.9-1.1-0.8-2c2.2-1.9,1.5-4.1,0.5-6.4c2.5-0.7,6,1.3,6.7-4.8
			c1.7,4.8,3.4,7.1,7.2,6.7c-1.2,2.8-4.5,4.8-0.8,8.2C2196.5,1194,2193.2,1192.6,2192.2,1197.2z"/>
		<path class="st2" d="M2257.5,1298c-3,2.4-6,3.7-4.1,7.7c-3.2-0.6-5.6-3.5-8.1,0.6c0-4-1.4-6.3-4.8-7.6c2.8-1.9,5.4-3.4,3.6-8.1
			c3.6,2.4,6.1,2.9,8.8,0.3C2252.7,1294.5,2253.2,1297.2,2257.5,1298z"/>
		<path class="st2" d="M2096.9,1149.9c4.3,10.6,8.6,21.2,12.9,31.8c-0.6,0.2-1.2,0.5-1.8,0.7c-4.4-10.6-8.7-21.1-13.1-31.7
			C2095.7,1150.4,2096.3,1150.2,2096.9,1149.9z"/>
		<path class="st2" d="M2117.1,1203.5c0.9,10.6,1.8,21.2,2.7,31.9c-0.7,0.1-1.3,0.1-2,0.2c-0.9-10.6-1.7-21.3-2.6-31.9
			C2115.8,1203.6,2116.4,1203.5,2117.1,1203.5z"/>
		<path class="st2" d="M2083.2,1129.1c-6.5-7.5-13-15.1-19.5-22.6c0.5-0.4,1-0.8,1.5-1.3c6.6,7.6,13.1,15.2,19.7,22.8
			C2084.3,1128.4,2083.7,1128.7,2083.2,1129.1z"/>
		<path class="st2" d="M2118.4,1262.6c-1.4,8.7-2.9,17.4-4.3,26.1c-0.5-0.1-1.1-0.2-1.6-0.3c0.6-8.9,2.8-17.5,4-26.3
			C2117.1,1262.3,2117.7,1262.5,2118.4,1262.6z"/>
		<path class="st2" d="M2136.6,1128.1c0.7-9,1.4-18.1,2-27.1c0.5,0,1.1,0.1,1.6,0.1c-0.1,9.1-0.8,18.2-1.8,27.2
			C2137.8,1128.3,2137.2,1128.2,2136.6,1128.1z"/>
		<path class="st2" d="M2100.3,1142.8c7.9-0.9,15.9-1.8,23.8-2.7c0.1,0.5,0.1,1.1,0.2,1.6c-7.8,2.1-15.8,1.9-23.7,3
			C2100.5,1144.1,2100.4,1143.4,2100.3,1142.8z"/>
	</g>
</g>
<g id="Слой_6" class="st0">
	<g class="st1">
		<path class="st2" d="M869.7,411.8c-23.4-4.3-37.1,4.4-42.9,29.8c-10.7-18.6-20.2-32-40.6-26.9c-5.1,1.3-5.8-4.6-3.3-7.4
			c13-14.6,6.4-27.3-7.2-43.2c24.4,3.6,40.2-2.4,44.6-31.6c10.3,24.8,22.7,36.4,47.1,28.9C855,379.1,851.7,395.3,869.7,411.8z"/>
		<path class="st2" d="M130.4,487.9c62.1,8,124.3,16,186.4,24c63.3,8.2,126.6,16.6,190,24.8c2.4,0.3,4.9,0.4,7.3,0.6
			c3.7,0.3,8.2,0.9,8,5.5c-0.3,6.7-5.9,4.8-9.7,4.3c-31.4-3.8-62.8-7.6-94.2-11.7c-89.9-11.8-179.7-23.7-269.6-35.6
			c-6.6-0.9-13.2-1.9-19.8-2.8c-3.5-0.5-8.4,0.3-8.1-4.8C120.9,485.1,126.5,488.1,130.4,487.9z"/>
		<path class="st2" d="M123.8,448.9c-4,0.8-6.5,0.3-7-2.6c-0.9-6,4.8-6.4,8.2-8.1c28.4-13.7,57-27,85.6-40.4
			c80.3-37.7,160.6-75.3,240.9-112.9c4.4-2.1,8.9-3.8,13.3-5.9c3.7-1.8,8-5.4,10.4,0.9c1.9,5-3.4,5.6-6.3,7
			c-26.8,13-53.6,25.9-80.6,38.6C304.3,365,220.1,404.3,136,443.7C131.6,445.8,127,447.5,123.8,448.9z"/>
		<path class="st2" d="M1049.5,207.6c-11.7,13.9-8.2,25.7,3.5,39.8c-20.9-3.4-31.3,5.7-37.9,23.9c-7.2-18.8-18.2-26.6-38.9-21.2
			c11.4-15.2,13.5-27.8-2.3-42.7c21.2,3.8,31.7-5.1,39.1-21.9C1021,202,1031,211.1,1049.5,207.6z"/>
		<path class="st2" d="M738.6,241c-15.2,0.9-30.4,1.8-45.6,2.6c-4.6,0.2-11.4,2.5-11.5-4.7c-0.1-6.8,7.1-5.1,11.5-5.4
			c45.6-2.6,91.3-5,136.9-7.4c38.9-2,77.9-4,116.8-5.6c4.6-0.2,13.1-4,13.2,4c0.1,7.4-8.5,4.6-13.3,4.9
			C877.3,233.5,807.9,237.2,738.6,241C738.6,241,738.6,241,738.6,241z"/>
		<path class="st2" d="M552.2,587.1c1.5-17-6.7-24-22.1-29.2c16.6-6.8,21-17.8,17.9-34.4c14.1,9.3,26.1,9.7,37.4-1
			c3.6,20.2,3.6,20.2,19.5,29.9c-14.1,6-19.8,16.4-16.1,32.3C575.7,579.9,563.8,571.2,552.2,587.1z"/>
		<path class="st2" d="M58.8,501.2c-1-14,4.9-29.2-19.8-32.7c16.8-7.4,27.9-13.4,23.4-33.8C76.1,450.4,87.3,450,100,442
			c2.1,12.9-3.2,28,17.7,32c-13,8.2-25.8,12.6-19.3,31.5C84.3,496.2,72.4,489.6,58.8,501.2z"/>
		<path class="st2" d="M525,222.5c-1.3,16.7,1.7,27.1,17.9,29.7c-9.9,10.1-22.7,17.5-13.9,37.1c-16-9.9-27.3-10.8-39.7,0.7
			c1.9-16.5-4.4-25.3-19.2-29c8.2-8.1,20.2-12.3,16.4-26.1c-1.6-5.7,2.9-8.5,7.5-5.2C504.7,237.5,513.2,232.7,525,222.5z"/>
		<path class="st2" d="M608.8,266.5c11.9-13.2,6.6-23.3-1.6-34.6c14.6-0.6,27.5-1.9,29.7-22.4c9.6,14.4,17.6,24.3,35.3,18.1
			c-7.3,13.7-10.8,25.2,3.1,37.5c-17.4-0.8-29.3,2.6-32.5,20.1C632.5,273.9,627.6,258.8,608.8,266.5z"/>
		<path class="st2" d="M621.4,776.3c-9.6-13.2-19-20-35.4-11.9c3.7-14.7,9.1-27.9-8.8-39c16.8-1.3,29.3-3.7,27.7-24.9
			c9.9,13,16.8,21.6,29.9,17.3c6.2-2,8.4,1.5,5.1,6.6c-7.3,11.3-0.4,19.2,7.1,28.7C635,756.9,620,756.7,621.4,776.3z"/>
		<path class="st2" d="M514.7,298.9c8.1,1,6.6,7.1,7.5,11.4c12.4,57.6,24.5,115.2,36.8,172.9c1.5,7.1,3.1,14.2,5.1,21.2
			c1,3.4,1.2,5.8-2.9,6.6c-3.3,0.6-5.9,0.1-6.7-3.8c-2.2-10.7-4.5-21.4-6.8-32.1c-11.4-53.4-22.9-106.8-34.3-160.3
			C512.3,309.4,508.7,303.3,514.7,298.9z"/>
		<path class="st2" d="M785.6,430.9c1.2,6.4-3.4,7-6.3,8.6c-53.7,30.7-107.5,61.3-161.3,92c-3.8,2.2-7.7,5.1-10.6-0.4
			c-2.5-4.8,2.4-6.2,5.3-7.8c54.3-31,108.6-61.9,162.9-92.8C779.3,428.4,783.2,426.3,785.6,430.9z"/>
		<path class="st2" d="M987.5,263.1c0.8,4.7-2,6.3-4.3,8.2c-30.8,25.7-61.6,51.4-92.4,77c-2.6,2.2-5.5,6.1-9.1,2.1
			c-3.5-3.9,0.2-6.5,3-8.8c31.2-26.2,62.4-52.4,93.7-78.6C981.9,259.9,985.3,257.5,987.5,263.1z"/>
		<path class="st2" d="M573.6,604.6c0.1-1.8-1.9-6.4,3-7.5c6.1-1.4,6.4,3.8,7.1,8c4.8,29.2,9.7,58.4,14.5,87.7c0.7,4,2.1,9.2-4,10.2
			c-4.9,0.8-5.2-3.5-5.8-7.2C583.6,665.9,578.7,636,573.6,604.6z"/>
		<path class="st2" d="M571.1,259.3c-6,0.2-11.3,2.4-11.7-4.2c-0.2-4.9,4.8-4.2,8-5.3c0.6-0.2,1.2-0.5,1.7-0.5
			c9.3,0.1,17.9-6.8,27.5-2.7c0.9,0.4,1.5,4.3,0.9,4.8C589.3,258,578.9,257.7,571.1,259.3z"/>
	</g>
</g>
<g id="Слой_4" class="st0">
	<g class="st1">
		<path class="st2" d="M269,912.5c-22.4-4.8-31,6.7-38.8,23.5c-7.9-16.3-17-28-37.9-22.4c6.6-15.5,14.7-29-1.1-42.6
			c21,2.7,31.9-6,37.7-26.3c9.2,16.2,16.8,31.6,40.3,23.6C260.8,884.6,251.2,898.3,269,912.5z"/>
		<path class="st2" d="M513.2,452.7c-10.1,16.1-16.5,28.4,2.3,43c-21.3-1.3-34.8,3-41,24.2c-7.3-20.7-19.2-27.7-39.4-22
			c8-13.6,17.1-24.3,5.2-36.9c-2.3-2.5-0.5-6.8,3.4-6.1c16.5,3.3,22.9-8.2,29.7-23.3C482.2,448.5,491.2,460.7,513.2,452.7z"/>
		<path class="st2" d="M993.7,45c12.7,20.8,12.7,20.8,36.9,25c-12,12.1-13.9,24.6,2.4,39.7c-22-3.4-35,2-40.6,20.8
			C979,109,979,109,955.6,106.2c8.1-12.2,14.2-24.7-1-40.7C976.3,70.5,986.8,61.8,993.7,45z"/>
		<path class="st2" d="M758.6,370.3c-16.7,6.1-29,10.2-28.2,27.1c0.3,7.3-6.7,5-9,1.7c-9.8-13.5-21.2-8.6-34.5-2.6
			c2.7-15.7,5.5-30.6-19.4-38.2c22.6-4.7,33.5-12,29.9-35.2c15.2,13,28.6,20.3,47.3,7.6C737.2,349.3,738.5,362.2,758.6,370.3z"/>
		<path class="st2" d="M862.8,247.8c20.4-4.6,32.3-11.4,28.1-32.2c14.3,6.5,24.1,19.3,39.1,9.5c3.9-2.6,7.2,2,5.2,6.2
			c-5.3,11.5-0.4,18.6,8.7,24.9c3.2,2.2,5,8.4,0.2,8.3c-19.7-0.2-18.4,16.2-23,30c-11.9-13.4-23.9-19-41.2-7.2
			C884.1,269.7,882.9,256.4,862.8,247.8z"/>
		<path class="st2" d="M552.6,674.7c13.2,11.2,24.9,16.5,39.6,4.2c2.7,14.2-4.2,30.9,20.8,34.5c-18.8,8.5-33.3,14.3-26,36.6
			c-14.5-8.1-24.2-18.9-38.4-9.6c-4.1,2.7-6.9-1.6-5.2-6c5.1-13.2-5.1-18.7-13.5-26.6C541.9,700.2,556.3,694.2,552.6,674.7z"/>
		<path class="st2" d="M156.5,645.9c-13.6-20.3-13.6-20.3-34-21.7c5.8-11.7,9.9-23.6-3.7-37c19.5,2.7,30-4.4,36.8-21.8
			c6.6,16.7,15.7,26.1,35.3,21.4c-11.1,13.4-11.3,24.7-0.8,37.3C174,624,161.7,627.8,156.5,645.9z"/>
		<path class="st2" d="M529.4,757.4c-79.8,38.5-159.6,77-239.4,115.5c-1-2.1-2.1-4.2-3.1-6.3c79.8-38.5,159.5-77.1,239.3-115.6
			C527.3,753.1,528.4,755.2,529.4,757.4z"/>
		<path class="st2" d="M229.4,563.2c59.7-23.5,119.4-47,179.1-70.4c0.9,2.2,1.7,4.3,2.6,6.5c-59.7,23.5-119.3,47.1-179,70.6
			C231.2,567.6,230.3,565.4,229.4,563.2z"/>
		<path class="st2" d="M203.6,846.7c-11.7-61.2-23.3-122.5-35-183.7c2.2-0.4,4.4-0.8,6.6-1.2c11.7,61.2,23.5,122.5,35.2,183.7
			C208.2,845.9,205.9,846.3,203.6,846.7z"/>
		<path class="st2" d="M501.6,513.7c15.5,50,31,100,46.5,150c-2.2,0.7-4.4,1.4-6.5,2c-15.6-50-31.1-99.9-46.7-149.9
			C497.1,515.1,499.3,514.4,501.6,513.7z"/>
		<path class="st2" d="M536.3,439.4c44.6-15.2,89.2-30.5,133.7-45.7c0.7,2.1,1.5,4.3,2.2,6.4c-44.4,15.4-88.9,30.7-133.3,46.1
			C538.1,443.9,537.2,441.6,536.3,439.4z"/>
		<path class="st2" d="M866.9,275.7c-31.6,17.2-63.1,34.4-94.7,51.5c-1.1-2-2.1-3.9-3.2-5.9c31.4-17.3,62.9-34.6,94.3-51.8
			C864.5,271.6,865.7,273.6,866.9,275.7z"/>
		<path class="st2" d="M969.1,131.8c-9.6,24.9-19.2,49.8-28.8,74.8c-2.2-0.8-4.4-1.7-6.6-2.5c9.7-24.9,19.5-49.7,29.2-74.6
			C965,130.2,967,131,969.1,131.8z"/>
	</g>
</g>
<g id="Слой_5">
	<g>
		<path class="st2" d="M133.2,911.7c17.2,16.7,29.8,25.3,47.6,10.9c0.6,17.6-4.9,35.3,19.5,45.1c-22.9,4.8-34.5,15.2-33.2,39
			c-14.6-12.3-24.6-23.6-40.5-14.9c-4.9,2.7-10.9-0.3-8.2-6.2c7-15.4-1.9-24.3-15.8-34.6C123.1,946.1,135.9,937.4,133.2,911.7z"/>
		<path class="st2" d="M402.2,640.4c104.2-14.6,208.4-29.1,312.5-43.7c0.5,3.2,0.9,6.4,1.4,9.6c-104.3,14.5-208.6,29.1-312.8,43.6
			C403,646.8,402.6,643.6,402.2,640.4z"/>
		<path class="st2" d="M739.2,606.8c11.1-14,10.3-24.8,0.1-38.8c18.9,4.1,29.7-2.9,37.6-17.4c7.3,13.1,13.3,25.4,33.7,20.8
			c-9.5,14-12,26-2.6,40.7c-18.3-4.9-28.2,2.4-35.7,16C763.1,617.5,760.4,600.2,739.2,606.8z"/>
		<path class="st2" d="M702.5,238.1c10.4,10.6,18,24.5,38.7,7.6c-7.7,20.3-8.1,32.2,7.8,42.9c-18.3,1.8-30.4,7.1-30.9,27.6
			c-12.4-12.8-21.5-23.5-40.8-11.9c7.8-17.4,8.3-29.6-8.2-42.2C690.6,263.7,696.9,252.3,702.5,238.1z"/>
		<path class="st2" d="M659.5,960.5c20.6,3.3,29.9-3.2,34.5-19.2c9.7,7.5,14.2,20.8,28.7,16.5c6.5-2,7.2,4.8,4.2,9.1
			c-7.2,10.3,0.9,17.3,5.4,26.6c-13.1,3.2-26.5,6.1-29.3,23.4c-10.4-6.8-15.1-21.1-30-15.7c-5,1.8-7.6-3.7-5.2-7
			C676.2,982.8,669.7,973.9,659.5,960.5z"/>
		<path class="st2" d="M904.1,330.6c-8.6-9-4.4-22-17.4-24.2c-11-1.9-11-6.9-2.2-12.9c9.5-6.5,1.3-16.2,4.5-25.3
			c13.1,5,25.4,4.1,36-11c4.2,16.2,9.2,28.9,29.8,30.8c-15.8,9.8-18.2,21.1-14.3,36.5C924.9,316.6,913,318,904.1,330.6z"/>
		<path class="st2" d="M638,88.7c19.6-0.6,29.5-7.5,32.2-25.6c11.1,13.1,21,21,37.6,12c-1.5,14.7-9.9,28.4,14.5,39.1
			c-24.6,0.6-31.7,11.3-37.4,25.8c-9.9-12.6-19.8-20.4-39-11C654.9,112.2,654.2,100.3,638,88.7z"/>
		<path class="st2" d="M963.5,171.9c-1.3-15.5-6.5-26-24.7-27c9.6-11.3,19.1-21,7.3-39.3c19.2,8.8,31.8,6.1,44.2-10.7
			c0,21.2,8.3,29.9,24.3,32.8c-7.3,9.9-18.5,16-12,29.2c2.4,4.9-3.5,6.9-7,5.1C983.1,155.4,975.5,164.8,963.5,171.9z"/>
		<path class="st2" d="M367.7,626.7c4.3,10-2,22.3,11.4,27.4c7.7,3,5.9,8.1-1.4,10.9c-11.8,4.4-12.6,14.6-11.9,27.5
			c-13.3-6.3-25.1-14.1-38-0.9c-5-12.4,2.1-29.7-25.4-28.5c19-11.7,29.5-20.4,24.9-39.9C342.3,633.7,355,636.8,367.7,626.7z"/>
		<path class="st2" d="M401,895.4c-18.9-1.1-28.3,7-33,23.2c-9.1-12.2-16.9-23.7-36.9-16.4c7.5-14.6,8.9-26.2-2.5-37.8
			c15.7-2.2,28.1-5.8,30.9-28.5c9.9,19.9,20.6,25.7,37.9,20.5C390.4,870.5,387.1,882.5,401,895.4z"/>
		<path class="st2" d="M65.3,770.9c11-15.6,15-26.9,2.9-39.2c15.1-3.6,31.9-0.4,33.9-26.1c8.6,19.4,17.3,28.3,33.1,25.8
			c-0.9,10.9-11.5,19.5-2.1,29.8c2.9,3.2,0.9,9.1-3.8,8.1c-14.8-3.3-19.4,9.5-28.1,18.7C93.3,774.9,87,761.9,65.3,770.9z"/>
		<path class="st2" d="M712.1,931.7c20.9-95.5,41.8-190.9,62.7-286.4c3,0.6,6.1,1.3,9.1,1.9c-20.8,95.4-41.7,190.8-62.5,286.3
			C718.3,932.9,715.2,932.3,712.1,931.7z"/>
		<path class="st2" d="M432.9,896.3c71.6,18.8,143.3,37.6,214.9,56.4c-0.8,3-1.6,6-2.3,8.9c-71.8-18.7-143.5-37.5-215.3-56.2
			C431.1,902.3,432,899.3,432.9,896.3z"/>
		<path class="st2" d="M891.5,349.8c-27,67.5-54.1,135-81.1,202.5c-2.9-1.2-5.7-2.3-8.6-3.5c26.9-67.6,53.8-135.3,80.7-202.9
			C885.5,347.2,888.5,348.5,891.5,349.8z"/>
		<path class="st2" d="M759.7,532.7c-9.8-68.7-19.6-137.5-29.4-206.2c3.1-0.5,6.3-0.9,9.4-1.4c9.9,68.7,19.7,137.4,29.6,206.1
			C766.1,531.7,762.9,532.2,759.7,532.7z"/>
		<path class="st2" d="M165.5,712.8c-3.3,0.8-6.3,0.8-7.2-3.3c-0.8-3.9,1.9-5.9,4.9-6.8c36.6-10.8,73.3-21.4,110-32
			c3.4-1,6.1-0.4,7.2,3.4c1.1,4.2-1.8,5.2-4.9,6.1C238.8,691.1,202.1,702,165.5,712.8z"/>
		<path class="st2" d="M218.2,949.4c39.5-13.2,78.9-26.4,118.4-39.6c0.8,2.4,1.7,4.9,2.5,7.3c-38.5,16.2-78.2,29.1-118.3,40.5
			C219.9,954.9,219,952.1,218.2,949.4z"/>
		<path class="st2" d="M350.7,706.5c5.6,35.2,11.3,70.4,16.9,105.6c-2.6,0.4-5.1,0.9-7.7,1.3c-10.5-34.5-11.4-70.7-18.8-105.7
			C344.3,707.2,347.5,706.8,350.7,706.5z"/>
		<path class="st2" d="M135.9,900.1c-13.3-26.8-15.2-56-24.5-87.6C126.4,825,140,876,135.9,900.1z"/>
		<path class="st2" d="M699.2,162.3c12.2,14.4,10.8,32.4,14.3,49.1c0.3,1.5-1.7,4.7-3.2,5.2c-3.2,1-6-0.6-6.5-4.4
			C701.5,195.7,695,179.7,699.2,162.3z"/>
		<path class="st2" d="M956.7,190.5c-0.4,22.1-6.5,42.3-19.6,60.2C937.4,228.7,944.7,208.9,956.7,190.5z"/>
	</g>
</g>
<g id="Слой_2" class="st0">
	<g class="st1">
		<path class="st24" d="M-1307.6,370.7c-3.9,5.2-4.6,5.3-7.8,0.6c-1.5-2.2-2.6-4.6-4-7.1c-1.8,3.7-2.5,7.5-1.7,11.6
			c1,4.7,1.5,9.5,0.7,14.4c-0.4,2.4-0.3,5.2-3.8,5.4c-1.6,0.1-0.9,1-0.6,1.6c6.7,18.8,5.2,38.4,6.4,57.8c0.5,8.8,1.8,17.6,4.1,26.1
			c2.1,7.9,6.2,13.9,14.7,16.1c1.4,0.4,2.7,1.2,4,2c3.9,2.5,4.3,6.4,4.1,10.6c-0.2,3.8-3.4,4.1-6,5c-10.2,3.4-20.5,4.1-30.8,0.2
			c-3.4-1.3-6.7-3.3-7.6-6.7c-1.1-4.5-4.1-6.3-7.7-8.4c-9-5.1-13.7-13.8-18.1-22.6c-4.3-8.8-7.8-18-13.4-26.7
			c-3.6,5.6-6.7,2.4-9.8-0.5c-6.7-6.4-10.7-14.3-13.3-23.1c-0.5-1.7-1.1-3.4-1.6-5.2c-3.4,5-4.7,5-8,0.4c-4.6-6.2-6.9-13.5-9-21.1
			c-6.5,21-21.6,36.6-32.6,54.7c-6.6,10.8-9.9,22.6-11.8,35c-0.4,2.8,1.6,2.5,3,2.8c7,1.7,13.2,10.3,11,18.2
			c-0.5,1.8-1.1,2.9-2.5,3.8c-20.1,11.8-38.3,7.2-45.9-15.2c-6.7-19.7-4-38.7,5.6-56.9c0.9-1.7,3.3-3.3,0.6-5.7
			c-0.5-0.4,0.5-2.8,1.1-4.1c2.3-5.2,5.6-9.7,9.9-13.3c-1.1-1.6-2.1-1-3-1c-7.3-0.2-7.3-0.2-6.6-7.6c-5.9,2.3-11.6,4.6-17.2,6.8
			c-2,0.8-4,3.2-5.9,1.9c-2-1.3,0.6-3.8,0.3-6.3c-3.3-0.2-5.9,1.9-8.8,2.6c-3.9,0.9-7,5-11.8,3.2c-0.3-0.1-1.2,0.9-1.7,1.6
			c-2.5,3.4-5.4,6.3-9.3,8.1c-1,0.4-1.6,1-2,2.1c-4.9,13-13.4,24.2-18.7,36.9c-3.4,8.1-5.1,16.5-4.3,25.3c0.3,2.7,0.9,4.3,4.1,5.1
			c7.6,1.9,11.9,6.5,11.9,11.7c0,5.4-6.5,12.8-12.9,14.4c-3.4,0.9-6.9,1.3-10.4,0.9c-7.1-0.8-14.2-2.2-21-4.4
			c-15.5-4.9-27.5-17.8-20.5-38.9c-4.6,0-4.6,0-2.7-12.4c-5.7-0.1-4.9,2.2-3.7-11.4c-4.8,4.9-10.6,7-16.1,9.7
			c-5.5,2.8-9.3,6.9-11.4,12.6c-1.2,3.1-2.7,6.1-3.9,9.2c-1.4,3.5-3.5,6.3,0.1,10.6c3.9,4.6-1.4,12.4-8.3,13c-6,0.5-10.9-2.1-14.1-7
			c-9.3-14-13-29.5-10.7-46.1c0.9-6.3,4.4-11.6,7.7-17.1c6.1-10.1,15.1-17.2,23.3-25.1c4.4-4.2,7.3-8.8,7.9-15.7
			c0.7-9,4.1-17.8,6.3-26.7c0.8-3.1,1.4-6.2,2.2-9.2c0.4-1.6,0.4-2.8-0.5-4.2c-6.9-11.4-5.8-23.4-1.2-35.1
			c5.5-14,13.8-26.1,25.4-35.9c1.3-1.1,4.8-1.5,2.2-5c-0.7-1,2.1-2.3,3.4-3.1c12.4-7.5,24.9-14.8,37.3-22.3c1.5-0.9,5.4-0.9,3-4.8
			c-0.5-0.8,1.3-1.7,2.4-2.2c6.4-3,12.9-5.3,20.2-4.7c1.4,0.1,3,1.1,3.6-1.7c0.6-2.5,3.4-1.3,5.2-1.3c29.3,0.6,58.5,2.3,87,10.3
			c9,2.5,18.4,2.8,27.8,1c1.4-0.3,3.4,0.4,2.7-2.5c-0.4-1.6,1.5-2.4,3.1-2.4c3.2,0.1,6.3,0.2,9.5,0.4c2.7,0.2,5.1,0.8,7.6-1.7
			c2.1-2.1,5.7-0.7,8.6-0.5c16.2,0.8,29.2,8.1,40.5,19.1c1.7,1.6,3.2,2.4,5.4,3c11.2,2.7,22.2,0,33.3-0.3c0.5,0,0.9-0.3,1.4-0.5
			c10.1-4.4,15-3.5,22.5,4.6c2,2.2,4.2,3.2,7.1,3.9c18,4.5,30.7,15.5,38,32.4c3.6,8.4,6.3,17.2,9.6,25.7c2.3,6,6,11.1,11.1,15.1
			c3.7,2.9,4.1,5.9,1.5,9.9c-4.8,7.6-12.5,10.9-20.5,10.1c-9.7-0.9-18.4,2.3-27.4,4c-5.7,1.1-11.4,2.5-17.2,2.6
			C-1295.8,381.6-1303.4,379.9-1307.6,370.7z"/>
		<path class="st24" d="M-1094.4,945.4c-16.6-2.7-31.3-8.9-41.7-22.9c-5.9-8-9.7-16.5-9.6-26.7c0.1-10.4,5.4-17.8,12.8-24.2
			c2.2-1.9,4.1-2.3,4.8,1.4c0.3,1.3,1.1,2.4,1.4,3.7c1,3.7,2,5.9,7,4.2c5.2-1.7,9.3,2.3,13.4,5.2c2,1.4,3.8,4.9,5.9,4.1
			c4.2-1.6,8.8-2.1,12.7-4.3c2.4-1.4,2.3-6.4-0.1-7.6c-6.7-3.2-9.8-9.1-11.4-15.6c-2.7-10.6-7-20.3-12.8-29.6
			c-6-9.5-7.4-19.9-2.2-31.1c-7,0.3-13.6,0.3-19.9-1.9c-2.7-0.9-3.3,1.6-4.1,3.3c-4.3,9.1-5,18.9-6.1,28.7
			c-1.8,15.9-1.9,31.9-5.1,47.6c-1.2,5.7-2.8,11.3-6.3,16.2c-3,4.3-7,7.1-12.3,7.6c-1,0.1-2.2,0-2.8,0.6c-8,7.3-18.4,6.8-28,8.7
			c-6.4,1.2-10.9-2.7-15-6.2c-2.9-2.5-2.4-6.8-0.2-10.2c2.4-3.7,5.7-6.5,10-8c8.3-2.8,11.4-8.4,11.1-17.2
			c-0.4-11.4-2.6-22.5-5.6-33.4c-3.9-14.6-5.3-29.5-5.4-44.4c-0.1-9.6-3.4-17.4-8.5-24.9c-2.7-4-5.6-7.9-8.5-11.8
			c-0.5-0.6-1.4-1.8-1.6-1.7c-5.6,2.7-5-2.9-6.1-5c-3.9-7.6-5.7-15.9-5.8-24.6c-0.1-5-2.4-9.3-4.3-13.6
			c-5.6-12.2-10.4-24.6-8.2-39.2c-3.8,2.5-5.2,0.6-6.7-2c-2.7-5.1-4.4-10.3-4.8-16.1c-0.1-2.3,2.1-6.1-3.2-6.1c-1,0-0.7-2.3-0.9-3.6
			c-1-11.9,2-22.7,9.2-32.4c1.3-1.7,2.6-3.4,3.8-5c-1.1-1.5-3.5,0.5-3.8-1.7c-0.2-1.4,1.2-2.2,2.1-3.2c2-2.2,4.3-4.2,5.3-7.2
			c0.3-0.4,1.1-0.8,0.2-1.3c-0.1-0.1-0.6,0.5-0.9,0.7c-1.4,0.8-2.8,1.7-4.3,2.4c-1.1,0.6-2.2,2.2-3.4,1.1c-1.4-1.4,0.5-2.3,1.3-3.2
			c6-6.9,9.9-15,12.2-23.7c0.4-1.4,1.4-3,0.5-4.3c-4.7-6.6-2.9-13.8-1.7-20.8c1.5-9.1,0.7-17.4-4.4-25.4c-2.8-4.2-4.9-9.7-1.5-14
			c3.7-4.8,9.6-4.7,15.2-2.8c2.3,0.8,4.5,1.9,7.4,3.2c0-5.1-0.2-9.9,0-14.6c0.2-5.5,2-10.4,5.8-14.5c2.4-2.6,3-6.5,6.7-8.2
			c3.9-1.8,7.3-0.4,9,3.2c7.2,16,15.5,31.2,30.4,41.6c3.3,2.3,6.6,4.5,9.8,6.9c12.3,9,19.1,21.1,20,36.3c0.2,3,1.2,4.7,3.8,6.2
			c7.4,4.2,14.8,8.4,20.8,14.5c4,4.1,3.6,6.8-1.5,9.7c-5.8,3.3-11.9,6-20.2,5.2c5.2,4.1,9.5,7.1,12,11.8c0.8,1.6,2.4,3.2,1.3,5
			c-1.2,2-3.3,0.6-5.1,0.7c-0.5,0-1,0.1-2.1,0.2c2.9,5.5,6.5,10.2,10.2,14.6c15.6,18.7,35.8,31.1,57.1,42.1
			c13.6,7,27.6,13.4,39.9,22.6c8.4,6.3,15.6,13.6,19.7,23.4c1.1,2.5,4.4,6-0.8,8.4c-1.1,0.5-0.2,1.5,0.3,2
			c11.8,14,18.3,30.8,25.5,47.2c1.9,4.5,3.5,9.9,9.2,11.7c1.1,0.4,1.3,1.8,0.3,2.4c-2.7,1.6-1.5,2.9-0.2,4.6
			c27.5,37.4,24.1,82.6-8.5,116.3c-11.6,12-24.2,22.8-39.4,30.3c-5.7,2.8-11.7,4.6-18,5.6c-2,0-4,0.1-6.1,0.1
			c-1.6-0.2-3.3-0.5-4.9-0.7c0.1-2-0.9-2.3-2.5-1.5c-9.1,4.3-18.9,4.6-28.6,5.8c-3-0.1-6-0.2-9-0.2
			C-1091.6,945-1093,945.2-1094.4,945.4z"/>
		<path class="st24" d="M-789.8-462c12.4-6.4,25.6-4.1,38.7-3.5c7.8,0.3,15.2,2.3,21.7,6.7c2.3,1.6,3.7,0.5,5.3-0.7
			c8.2-5.9,16.3-12.1,25.3-16.9c7.3-3.9,14.9-7.9,23.1-7c13,1.5,24.9-3,37.3-4.8c2-0.3,3.8-1.2,5.8-1.6c1.7-0.3,3.5-2.4,5-0.7
			c0.7,0.9,0,3.2-0.5,4.7c-4.5,15-13.4,26.2-27.2,34.1c-7.8,4.5-15.2,7.8-24.2,6.9c-0.6-0.1-1.4,0.2-1.7,0.7
			c-4.2,5.6-10.7,6.3-16.8,8c-9.4,2.6-11,6.9-4.9,14.7c7.6,9.8,11.6,20.8,12.1,33.2c0.1,2.7-0.4,5.3-1.7,7.7c-2,3.5-2.5,3.6-6,0.4
			c0.4,9-3.1,16.8-6.1,24.7c-6,15.7-2.8,29.7,7.9,42.3c4.3,5.1,9.3,9.7,14.8,13.3c11.6,7.7,15.1,18.8,15.3,31.8
			c0.1,8.8-1,17.6-0.3,26.5c1,12.6,5.1,23.6,16,31.2c3,2.1,3.4,5.1,2.8,8.9c-0.8,4.9-3.3,8-7.7,9.3c-7.8,2.4-15-0.1-21.3-4.3
			c-13.2-8.8-19.9-22-23.5-37c-1.6-6.6-2.4-13.4-5-20.9c-5.4,9.3-14.3,13.9-21,20.8c-3.6,3.7-6.5,7.7-6.8,13
			c-0.2,2.8-1.4,3.9-4.1,3.6c-12.2-1.5-22.9,2.6-33.3,8.3c-3,1.7-6.3,3.1-9.5,4.5c-6.4,2.9-11.6-0.7-16.5-3.7
			c-3.4-2.1-2.6-6.2-1.2-9.6c2.5-6.1,6.9-10.5,12.7-13.5c2.2-1.1,4.6-2.3,7-2.7c21.1-3.5,32.8-18.3,42.3-35.6
			c5.8-10.6,5.1-11.7-6.3-15.4c-0.4-0.1-1.1-0.5-1.3-0.3c-7.6,5.4-14.1-0.2-20-3c-15-7.1-24.1-19.6-27.8-35.8
			c-1.1-4.7-3.8-3.5-5.7-2.2c-13,9.1-27.7,8.5-42.3,7.2c-4-0.4-6.9,1.5-10.4,1.7c-8.9,0.7-17.6,0.5-26.3-1.9
			c-0.8,5.9-0.8,5.9-6.2,3.7c5.7,12.7,6.8,25.4,4.6,38.4c-1.2,7.1-2.2,14.1-3.2,21.2c-1,7.3,0.3,14.2,3.2,20.9
			c7.1,16.7,5.8,22.9-7.5,35.1c-4.2,3.8-8.8,7.1-13.5,10.2c-9.2,6.1-18.7,4.4-28.2,1.4c-3.8-1.2-3.9-5.7-0.8-9.6
			c2.4-3,5.9-4.8,8.6-7.4c13.7-12.9,14.7-28.4,10.9-45.6c-4.5-20.6-13.3-38.8-26.8-55.6c-3.1,11.7-10,19-21.2,22.1
			c-1.9,0.5-4.2,2.6-5.8-0.9c-0.4-1-1.8,0.2-2.5,0.7c-3.4,2.1-6.7,4.3-10,6.6c-2.9,2-4.9,2.8-3.8-2.7c-6.9,4.6-13.4,8.3-20.8,10.6
			c-4.1,1.2-5.8,5.3-7.2,9.1c-1,2.8,1.7,3.7,3.1,5.1c2.6,2.4,6,4.4,5.7,8.3c-0.4,5.7-4.2,10-8,13.7c-3.5,3.4-8.2,1.6-12.2-0.3
			c-7.5-3.6-11.9-9.9-14.9-17.4c-2.7-6.8-3.4-13.9-2.6-21.1c0.6-5.5,2.8-10,7.1-13.8c6.8-6,14.3-10.9,21.7-15.9
			c8.2-5.6,16.6-11.1,22.6-19.3c1.9-2.6,3.5-5.2,4.7-8.2c2.3-6.1,2.3-11-1.8-17.3c-7.8-11.9-17.3-21.4-29.2-28.8
			c-1.7-1-3.5-1.9-5.7-3.1c-0.6,4.6-1.6,8.5-4,11.9c-1.2,1.8-2.7,3.4-4.5,0.5c-1.2-1.9-2.1-0.7-3.1,0.2c-2.7,2.2-5.5,4.4-8.3,6.4
			c-1,0.7-2.1,2.1-3.5,1.4c-1.5-0.7-0.6-2.4-0.7-3.6c-0.1-1,0.3-2-0.5-2.8c-1.2,0.1-1.4,1.3-2.1,1.9c-1.1,0.9-1.9,2.6-3.7,2
			c-1.5-0.6-1.1-2.3-1.3-3.5c-0.2-1.1-0.5-2.3-0.8-3.4c-2-6.3-2.7-6.6-9.2-5.3c-7.5,1.5-14.9,3.3-22.7,3.5
			c-9.8,0.2-10.6-1.7-13.2-10.8c-1.7-6.1,0.4-10.4,2.1-15.3c2.4-6.7,2.8-13.6,3.2-20.6c0.4-8,2.7-15.4,7.7-21.7
			c1.4-1.8,2.1-3.2,1.2-5.7c-2.1-6-0.9-12.2,0.3-18.2c1.1-5.6,2.5-10.9-0.5-16.5c-1.2-2.2-1-5.2-1.4-7.8c-0.1-0.8,0.2-2.3,0.6-2
			c3.7,3,2.2-2.5,4.4-2.5c0.5,3.4,1,6.8,1.5,10.4c2-1.8,1.3-5,3.9-6.3c0.3,0.6,0.7,1.1,0.6,1.3c-3.4,7.3-1.1,13,4.4,18.2
			c3.6,3.4,6.3,7.7,8.7,13c7.3-12.1,22.3-19.1,19.5-36.6c2.9,2.1,1.6,4.6,3,6.3c0.5-0.5,0.9-0.9,1.3-1.4c0.9-0.9,1.5-2.4,3.2-1.7
			c-1.3,1.9,3.1,3.3,0.7,5.1c-7,5.3-3.9,10.6-0.7,16.4c3.9,7,7.8,13.9,11.9,20.8c1.3,2.2,2.8,3.2,5.3,3.8
			c20.6,4.9,40.2,1.9,59.4-6.5c14.6-6.3,29.9-10.2,46.1-9.2c3.5,0.2,7,0.6,10.3,1.6c34.4,10.9,67.6,5.9,100.1-7.7
			c1.4-0.6,2.7-1.2,4.1-1.8c3.1-1.2,2.4,0.9,2.1,2.5c0,0.4-0.1,0.7-0.1,1.1C-790.4-461.7-790.1-461.8-789.8-462z"/>
		<path class="st24" d="M-1254.6-166.5c3.8,6.4,8,12.7,9,20.3c0.3,2,1.5,2.2,3.1,2.3c5,0.2,10,0.3,14.7,2.3c2.3,1,2.9-1.2,3.8-2.3
			c6-6.8,12.7-12.7,21.1-16.5c1.3-0.6,2.7-1.9,4.2-1.1c1.8,1,0.5,2.7,0.4,4.1c-0.9,10.8-3.6,21-9.8,30c-2.4,3.5-2.1,7.3-1,11
			c2.9,9.4,2.1,18.5-2.7,27c-4.4,7.8-4.5,15.8-1.4,24c0.6,1.6,1.1,3.1,1.5,4.7c2.7,10-1.1,14.5-11.5,13.9c-3-0.2-5.7-1.6-9.3-2.5
			c1.3,3.3,2.5,6.1,3.6,8.9c1.8,4.7,3,9.6,2.3,14.7c-0.4,3-0.4,6.5-4.3,7.6c-1,0.3-1,1.1-1.2,1.9c-3.5,14.6-13.1,25.3-23.8,34.9
			c-4.6,4.2-6.2,8.1-6.6,14.6c-1.1,20.1,5.4,36.6,18.1,51.8c7.7,9.3,13.9,19.9,20.8,29.9c4.6,6.8,10.4,12.1,18.6,14.1
			c4.9,1.2,6.6,4.9,6.1,9.3c-0.4,3.6-4.1,4.8-7,5.5c-6.2,1.5-12.2,0.6-17.5-3.3c-5-3.7-9.7-7.6-16.2-9.3c-4.7-1.2-7.2-6.6-10-10.7
			c-8.4-12.2-16.9-24.3-25.4-36.4c-3.5-4.9-6.9-9.8-8.9-15.5c-0.3-0.9-0.1-3.1-2.4-1.6c-1.5,1-1.7-0.7-2.1-1.8
			c-1.7-4.4-3.5-8.8-5.6-13.2c0.3,6.4,0.6,12.7,3.9,18.5c7.6,13,10.9,27.4,13.7,42c0.9,4.9,2.3,9.7,4.3,14.3
			c3.3,7.5,8.7,12.7,16.7,15.2c3.2,1,6.1,3.1,8.9,4.9c3.6,2.2,3.5,5.9,2.8,9.4c-0.6,3-3.2,3.7-5.8,4.6c-6.3,2.3-12.4,3.8-18.7,0.1
			c-1.4-0.8-3.2-1.4-4.3-2.5c-10.1-10.6-20.3-21.3-22.9-36.5c-1.1-6.2-4-11.6-6.2-17.3c-0.2-0.6-0.7-1.1-1-1.7
			c-5.5,4.2-6.6-3.5-10.4-3.9c-0.9,17.5-3.6,22.7-9.8,18.8c-1.2,3.4-2.4,6.7-3.7,10.1c3,0.3,5.6,0.4,8.2,0.8
			c5.1,0.8,7.5,3.6,7.2,7.9c-0.4,5-4,6.5-8,6.3c-7.1-0.3-14.2-1.2-21.4-1.8c-7.1-0.6-14.1-0.5-21.6,2.9c5.7,1.9,10.6,1.6,15.5,2.5
			c4.1,0.8,8.1,2,11.7,4.2c2.8,1.7,3.7,4.6,2.2,7.3c-1.2,2.1-3.5,3.9-6.2,1.6c-1.4-1.2-1.7,0.3-2.3,0.8c-2.7,2.4-5.9,3.5-9.2,2.9
			c-17.4-3.3-35.4-1.3-52.6-5.7c-8.4-2.2-16.7-4.5-25.6-4.5c-4.2,0-8.5-1.6-12.7-2.6c-3.2-0.8-5.8-0.1-8.3,2.1
			c-5.8,5.3-12.7,8.3-20.2,10.4c-16.8,4.7-33.5,10-50.7,13.1c-3.8,0.7-7.6,0.7-11.5,0.5c-2.5-0.2-4.2-0.6-1.7-3.4
			c1.1-1.3,3.2-2.5,1.8-4.6c-1.6-2.3-3.4-0.1-4.8,0.4c-11.5,4.4-23,8.9-34.1,14.1c-6.9,3.3-13.8,6.2-22,3.8c-3-0.9-6.9,1.6-10.5,2.3
			c-4.9,0.9-5.5,0.2-4.3-4.5c-6.7-0.2-12.6,2.4-18.8,4.2c-1.7,0-3.4,0.1-5.1,0.1c-3.7-0.3-7.3,0.4-10.9,0.9
			c-2.9,0.6-5.7,1.2-8.7,1.8c-0.8-2.6,0.7-4.9,0.8-7.4c0.1-2.6,2.3-4.8,1.8-7.6c6.6-17.2,17.8-30.9,31.9-42.5
			c5.3-4.3,12-6.4,17.6-10.6c-1.2-1.7-3.2-0.3-5.1-1.9c5.6-4.6,12.6-4.2,18.7-6.3c0.8,0.2,1.6,0.5,2.1-0.6c12.3-2.9,24.5-6,37.1-7.7
			c0.6-0.2,1.3-0.4,1.9-0.6c24.9-2.8,49.5,0.1,74,4.2c2.9,0.5,5.8,1.2,9.2,1.9c-2-15.2,1.5-29.4,6.7-43.4c0.8-2.2,2-4.2,2.7-6.4
			c1.6-4.7,6.7-8.2,4.6-14.3c-0.5-1.4,1-3.9,2.2-5.4c9.1-11.7,14.7-25.7,23.6-37.5c14.4-19.2,32.4-33.8,54.4-43.4
			c-0.8-1.2-3.3,0.4-3.5-1.5c-0.2-1.6,1.6-2.3,2.8-3.2c6.2-4.6,13.3-7.4,20.3-10.5c13-5.8,22.8-15.7,27.2-28.9
			c4.9-14.5,9.9-26.5,21.9-40.9c6.2-7.5,13-14.4,23-16.6c1.7-0.4,2-1.4,2.1-2.8c0.2-4.3,0.4-8.6,0.6-12.9c1-1.9,1-4,0.9-6
			c0.8-4.3,1.3-8.7,3.7-12.6c2-3.4,4.1-5,7.4-1.6c0,1,0.2,1.9,1.2,2.3c0.6,0.7,1.1,1.4,1.7,2.1
			C-1256.8-169.1-1255.7-167.8-1254.6-166.5z"/>
		<path class="st24" d="M-943.1,491.7c-4.7,5.2-9.4,9.4-15.3,11.8c-5.8,2.3-11.8,3.9-17.1-1c-1.3-1.3-2.1-0.2-3,0.2
			c-3.2,1.3-6.5,2.7-10,3c-4.2,0.3-8.2-0.5-9.5-5.3c-1-3.6-3.3-1.5-4.7-1c-5.7,2.1-11.5,3-17.6,2.4c-4-0.4-8.8-1.5-9.8-4.8
			c-1.2-4.3,4.3-5.9,7.5-8.6c-5.4-3.1-11.2-4-16.9-5.4c-9.8-2.5-18.7-7-26.8-13c-6.1-4.5-8.2-9.7-6-13.9c2.3-4.3,7.4-5.5,14.7-3.3
			c1.3,0.4,2.6,0.7,3.8,1.3c3.1,1.4,6.1,4.3,7.8-1.8c0.6-2.3,3.7-2.7,6.1-1.6c2.4,1.1,4.9,2.2,7,3.8c15.9,11.6,32.4,10.9,48,0.5
			c22.4-14.8,36.7-35,37.5-62.9c0.2-6.5-2-11.1-7.3-15.6c-23.7-19.9-51.4-30.9-80.8-38.6c-10.3-2.7-20.6-5.5-30-10.7
			c-5.9-3.3-11.3-7.1-15-12.9c-1.2-1.9-2.9-2.5-4.8-3.3c-12.1-4.9-23.6-10.8-33.7-19.2c-1.2-1-3.8-1.8-2.5-4.1
			c1.2-2.1,3.3-1.5,5.4-1c5.9,1.3,11.6,3,17.1,5.3c8.5,3.5,17.3,4.9,26.4,3.7c11.7-1.5,21.5,2.4,29,11.2c4,4.7,8.8,7.8,14.3,10.3
			c30.6,14.2,62.1,16.9,94.2,6.3c8.3-2.8,16.1-7.1,24.2-10.7c0.7-0.3,1.5-0.9,1.9-1.5c11.9-16.2,26.2-30.4,37.8-47
			c17.9-25.6,22.3-53.2,16.7-83.1c-1.3-6.9-3.2-13.6-3.8-20.6c-0.1-1.8-0.1-3.6,0.1-5.5c0.3-3.4,1.6-6.2,5.1-7.3
			c3.5-1.1,5.2,1.6,6.9,3.7c2.4,2.8,4,6,6.4,9.1c-0.9-6.7-1.8-13.4-2.7-20.1c-0.3-2-0.6-4-0.4-6c0.6-7,3.8-8.6,9.9-5
			c1.2-0.8,0.5-2.1,0.7-3.1c0.4-2.9,1-5.7,4.4-6.5c3.4-0.8,5.8,0.8,7.7,3.4c3.6,5.1,5.6,10.9,7.1,16.9c1.4,5.5,2.6,10.9,3.9,16.5
			c0.4-0.2,0.7-0.2,0.8-0.4c1.3-2.6,1.8-6.9,4.8-6.7c2.8,0.2,3.5,4.4,4.7,7.1c2.6,6.3,3.1,12.9,2.9,19.8c0.7-0.2,1.3-0.1,1.5-0.4
			c1.6-2.3,3.1-5.7,6-5.2c2.7,0.5,3.6,4,4.7,6.6c4.5,10.3,3,20.9,1.3,31.5c-0.3,1.6-0.5,3.3-1.1,4.9c-0.9,2.7-1.3,4.4,2.6,4.9
			c3.9,0.6,4.8,4.3,4.9,7.8c0.2,5.9-1.5,11.5-3.7,16.9c-0.9,2.1-1.8,4.2-2.9,6.8c2.6,0.2,3.9-1.6,5.6-2.3c3-1.3,5.9-1.6,8.4,0.7
			c2.5,2.3,1.7,5.2,0.5,7.9c-3.5,8.1-9.2,14.6-14.9,21.1c-1.4,1.6-2.8,3.1-4.8,5.3c1.8-0.2,2.6-0.3,3.4-0.4c2.5-0.5,4.8-0.1,6.1,2.2
			c1.2,2.3,0.9,4.8-0.7,7.1c-2,2.7-4.7,4.6-7.6,6.4c-1,0.6-2.8,1.1-1,2.8c3,3,1.7,6.2,0.2,9.2c-1.1,2-2.5,3.9-4,5.7
			c-2.3,2.7-4.9,4.6-3.8,9.2c0.9,3.6-2.2,7.1-4.5,10.2c-6.6,8.9-15,16-23.2,23.3c-9.4,8.5-9.5,10.2-0.3,18.8
			c9.8,9.2,20.9,16.4,33.3,21.6c7.6,3.2,15.1,6.9,22.5,10.6c4.8,2.4,4.9,5.2,1.1,8.7c-2.5,2.3-2.7,6.5-6.4,8.2
			c-1.1,0.5,0.3,1.7,1,2.3c12.4,10.3,23.9,21.7,37.6,30.5c4.5,2.9,8.8,4.2,13.9,2.1c1.7-0.7,3.5-1.2,5.2-1.6
			c1.4-0.3,3.1-1.4,4.1,0.2c1,1.6-1.6,2.1-1.8,3.8c3.2,0.1,5.8-2.4,9.3-1.9c-1.6,3.5-5.1,4-8.6,6c2.9,0.6,4.9,0.9,6.9,1.5
			c1.4,0.4,3.9,0.2,3.7,2.4c-0.1,1.5-2.2,1.6-3.7,2c-7.4,1.8-14.6,0.3-21.5-2.3c-11.5-4.4-21.2-11.8-30.5-19.6
			c-5.4-4.5-10.6-9.1-15.9-13.6c-1.2-1.1-3.5-3-3.8-2.8c-2.5,2.1-6.7,1.5-8.1,4.1c-1.7,3.1-3.9,4.1-7.6,4.4c6,6.7,11.3,13.1,17,19
			c8.6,8.8,16.1,18.7,25.4,26.8c8.9,7.8,11.1,7.7,21,1.3c1-0.6,2.1-2.4,3.4-1c1.4,1.6-0.6,2.5-1.3,3.6c-1,1.5-3.3,1.7-4,3.7
			c4.6,0.1,8.6-2.8,13.5-2.4c-1,4.1-5,4.1-7.9,6.3c3.6,1.3,6.8,2.3,9.9,3.6c1.1,0.4,3.1,0.4,2.8,2.2c-0.3,1.4-1.8,1.8-3.2,1.8
			c-13.2-0.3-25.9-1.9-36.7-10.5c-11.2-8.8-20-20-29.7-30.2c-4.9-5.2-9.6-10.6-14.3-16c-1.4-1.6-2.2-3.1-4.3-0.3
			c-2.5,3.3-6.1,3.1-9.4,0.9c-4.4-3-7.6-7-9.7-11.8c-1.3-2.9-2.8-5-5.8-6.2c-3.6-1.5-5.9-4.8-8.5-7.6c-7.7-8.1-16.8-13.8-28.4-16.2
			c2.4,12.1,1.1,23.5-3.5,34.5c-2.1,5-5.2,9-11.1,9.6c-1.7,0.2-2.1,1.1-2.7,2.4c-2.6,5.4-5.6,10.4-13,9c-1.8-0.3-1.8,1.7-2.3,2.8
			c-2.4,5.2-5.5,9.9-10.1,13.5c-2.4,1.8-4.7,4.5-8.4,2.4c-1.6-0.9-2.2,1-3,1.9c-4.2,4.4-8.5,8.8-14.4,10.4
			C-939.2,499.6-941.8,498.7-943.1,491.7z M-782,251.6c-0.1-0.2-0.2-0.4-0.4-0.6c-0.1,0.1-0.3,0.2-0.3,0.3c0.1,0.2,0.2,0.4,0.3,0.7
			C-782.3,251.9-782.1,251.8-782,251.6z M-839.4,162.2l-0.2,0.3l0.2,0L-839.4,162.2z"/>
		<path class="st24" d="M-1032.3-136.3c4-2.4,6-0.9,7.2,3.3c1.9,6.3,4.1,12.6,6.2,19c4.2-5.5,8.2-10.9,12.4-16.2
			c0.6-0.8,1.1-1.8,2.3-1.6c1.3,0.3,1,1.6,1.2,2.4c2,7.6,3.2,15.3,4.7,22.9c2.8,14.5-2.6,27.5-5.5,41c-1.6,7.3-3.8,14.3-9,20.8
			c5.6,0.7,9.4,3.5,12.8,6.5c2.4,2.1,7,3.6,3.8,8.4c-0.1,0.1-0.1,0.4,0,0.5c2.9,4,5.5,8.4,8.9,11.9c2.9,3,7.3,2.9,11.3,1.9
			c4-1,8.2-1.6,12.1-3c16.9-5.7,34.4-8.5,51.7-12.4c5.9-1.3,11.4-3.7,16.4-7c11.8-7.5,24.4-12.9,38.1-15.7c2-0.4,3.1-1.5,4.4-2.8
			c7.5-7.3,16.6-11.2,27.1-10.3c3.9,0.4,9.9-0.3,9.6,6.8c0,0.2,0.4,0.5,0.6,0.7c6,7.6,6.2,12.6,0.7,20.3c-1.2,1.7-2.8,2.9,0,5
			c2.9,2.2,3.7,0.6,5.3-1.4c6.4-8.3,12.2-7.6,16.7,1.9c3.2,6.6,4.9,13.8,7,20.8c0.7,2.2,1.3,4.5,2.2,6.6c1.1,2.8,2.3,4.2,5.1,1.2
			c2.8-3,5.9-5.9,9.5-8c5.8-3.4,8.9-2.7,12.5,3c6.9,11.2,13.7,22.5,21,33.3c5.2,7.7,10.6,15.3,17.3,21.9c4.6,4.5,4.4,6.1-0.3,10.2
			c-1.2,1.1-1.1,2.2-1.3,3.5c-0.9,5.9-2.9,7.4-8.8,6.7c-6.8-0.8-10.9-5.2-14.3-10.6c-4.5-7.3-6.5-15.6-9.1-23.7
			c-1.5-4.6-2.7-9.3-5.9-13.1c-1.7-2.1-3.8-3.2-6.5-2.9c-2,0.2-4.2,0.5-5.3,2.3c-1.2,2,0.8,3.3,1.7,4.7c2.8,4.1,6,8,8.6,12.2
			c2.7,4.3,1.4,5.1-2.9,7.6c-8.4,5.1-13.8,0.6-19.2-4.7c-1.7-1.6-2.8-3-4.3,0c-0.3,0.5-1,0.9-1.6,1.1c-13.9,5.6-27,13.6-42.8,13
			c-14.5-0.5-27.8-4.9-40.1-12.4c-1.7-1-2.7-1.6-4.5,0.2c-10.7,10.6-21.4,21.4-31.7,32.4c-12,12.8-26.1,21.6-42,28.3
			c-6.8,2.9-14,4.4-21.4,4.3c-2.5,0-3.9,0.9-5.3,2.8c-4.7,6.4-10.6,11.4-17.3,15.7c-2.1,1.3-3.9,2.1-4-2.4c-1.6,2-2.8,3.1-3.6,4.5
			c-5.6,9.1-14.1,13.1-24.4,14.7c-10.9,1.6-21.7,3.5-32,7.6c-3,1.2-5.6,2.6-7.6,5.3c-3,4.2-6.6,8-9.2,12.4c-5.3,9-13.8,11.5-23,10.8
			c-3.2-0.3-7.3-2.1-10.5-4c-3-1.8-2.1-4.9-0.7-7.6c3-5.7,7.5-10.2,12.5-14.1c6.8-5.3,13.8-10.4,20.8-15.6
			c5.3-3.9,11.2-6.4,17.6-8.2c10.9-3,21-7.5,29.8-14.6c1.1-0.9,3.8-1.6,1.7-3.6c-1.8-1.7-2-6-6-4.7c-6.8,2.2-13.1,1.2-20.2-0.4
			c-11.4-2.6-23-0.9-31.9,8.4c-6.6,7-14,13.2-19.4,21.4c-3.1,4.8-7.3,4.2-13,3.5c-5.3-0.6-7.4-4.7-11.5-6.3
			c-1.8-0.7-2.3-2.2-1.9-4.1c0.9-3.4,1.8-6.8,4.9-9c10.8-7.5,20-17.1,30.3-25.2c12.8-10.1,27-15.5,43.4-15c2.3,0.1,4.6-0.4,6.9-0.7
			c2.3-0.3,3.6-1.6,3-4.1c-0.4-1.5,1.1-4.7-2.8-3.1c-1,0.4-1.5-0.8-1.5-1.6c-1.1-9.5-6.1-18.7-2.2-28.6c2.3-5.7,5.4-10.9,10.5-16.7
			c-8,1.2-14-1.9-20.6-2.7c-9.5-1.1-16.4-6.8-20.6-15.5c-3.1-6.3-1.9-12.3,3.1-16.8c6.4-5.9,12.1-12.2,16.8-19.6
			c2.8-4.4,7.3-7.3,12.8-8c3.7-0.5,3.6-1.8,2.1-4.8c-9.4-18.2-11.3-37.5-6.7-57.3c2.6-11.2,7.3-21.7,14.8-30.6
			C-1033.6-133.7-1032.2-134.5-1032.3-136.3C-1032.2-136.2-1032.3-136.3-1032.3-136.3z"/>
		<path class="st25" d="M-2207.2,1051c9.8,18.1,9.7,37.8,10.3,57.4c0.1,1.5-2.2,6.2,3.3,3.8c1.1-0.5,1.6,1.5,1.8,2.6
			c2.2,11.1,6.1,21.6,11.1,31.9c2.1,4.3,4,8.3,7.2,11.7c3.6,3.9,4.4,8.9,4.9,13.8c1.4,13.9,2.7,27.8,4,41.7
			c1.2,13.3-1.3,25.9-7.5,37.6c-3.6,6.8-8.6,12.4-17.4,12.2c-0.2,0-0.3,0-0.5,0c-3.8-0.2-18.6-6.8-21.3-9.7
			c-0.4-0.5-0.7-0.8-1.4-1.1c-8.4-2.7-10.2-8.9-4.2-15.6c3.8-4.3,8.7-7.3,13.7-9.9c3.1-1.6,4.4-3.7,4.7-6.9
			c1.3-14.5-1.7-24.1-14.4-31.7c-13.8-8.3-27.7-16.4-40.4-27.3c-0.1,1.9-2.3,2.5-1.3,5.1c4.4,11.8,2.9,23.8-1.3,35.2
			c-6.3,17.3-13.4,34.3-20.4,51.3c-2.9,7-7.6,12.9-13.8,17.4c-5.9,4.2-12.2,5-18.7,1.3c-1.4-0.8-2.5-1.4-4.1-1.1
			c-2.2,0.3-4.4-0.2-6.2-1.4c-2.9-1.9-5.6-3.6-8.9-4.9c-4.9-1.9-5.8-9-1.8-14.3c4.1-5.3,8.8-10.2,16.4-9.8c2,0.1,2.5-1,3.3-2.3
			c10-15.3,13.5-31.6,7.3-49.3c-1.3-3.8-2.6-7.6-2.7-12c-9.6,5.4-19.1,10.5-29.7,13.1c-3.6,0.9-7.1,1.9-10.7,2.1
			c-7,0.3-12.8,4.7-19.9,5c-11,0.4-21.5-1-32.1-5.6c0,2.4,0,4.2,0,6.1c0,2.3,0.2,4.4-3.3,3.9c-2.6-0.4-1.2,1.8-1.2,2.7
			c0.3,11.3,1.3,22.6,0.4,33.9c-1.5,19.6-7.3,38.2-13.8,56.5c-4.7,13.3-9.3,26.7-16.7,38.9c-5.5,8.9-12.7,14.4-23.8,12.7
			c-1.3-0.2-2.2,0.4-3.2,0.9c-2.9,1.1-6.4,1.5-8.5-0.7c-4.4-4.5-14.1-2.9-14.2-12.2c0-0.3-0.1-0.7-0.1-1c0.1-4.4-1.1-6.5-6.4-7
			c-8.9-0.8-12.8-12-7.5-19.9c1.3-1.9,2.7-3.4,2-6.2c-0.7-2.6,1-4.4,3.4-5.4c2.5-1.1,5.2-1.1,7.8-1.1c6.6,0.2,7.8-1,8-7.7
			c0.4-12.9-2.2-25.5-3.3-38.2c-1.4-15-5.6-29.3-9.1-43.8c-0.3-1.2-1-2-1.7-2.9c-12.7-15.6-22.1-33.1-29.9-51.6
			c-2.8-6.7-4.2-13.7-4.1-21.1c-1.1,0.2-2.5,1-3.1,0.6c-8.4-4.9-16.1-10.8-19.1-20.5c-4.2-13.3-6.2-27.1,2.6-39.3
			c3.7-5.1,4.2-8.2,1.3-13.9c-4.1-8.2-4.2-17.3-0.7-26.2c0.5-1.4,0.8-2.9,1.4-4.3c1.8-4.4,0.9-7.7-3.8-9.6c-2.4-1-4.7-2.4-7.7-4
			c3.8-0.8,6.1,1.4,8.7,1.7c1.6-1.6-2.3-3.8,0.2-4.6c2.2-0.7,3.2,2.4,5.4,3.6c-0.7-3-1.4-5.7-2.3-9.8c1.4,1.8,2,2.4,2.3,3.1
			c3.1,9.9,10.2,16.7,17.4,23.7c7,6.7,14.8,7.6,23.4,6.1c7.5-1.3,13.8-5.6,20-9.8c5.3-3.7,10.6-7.5,16-11.1c1.3-0.9,2.1-1.9,2.7-3.3
			c1.3-3.2,2.7-6.3,4.2-9.6c1,2.3,0.1,4.3-0.4,6.8c2.8-1.8,2-5.2,4.5-7.1c0.4,3.8-1.3,6.7-2.3,9.9c2.8,0.4,4.6-3.1,7.5-1.6
			c-0.1,0.4-0.1,0.9-0.3,1c-7.5,3.2-6.9,10-7.4,16.3c-0.3,3.3,0.2,6.8-0.5,10c-1.1,4.5,0.7,6.8,4.7,6.9c17.1,0.6,32.5,7.9,48.9,11.3
			c8.6,1.8,17-0.5,25.4-3c27.6-8.4,53.9-20.5,81.4-29.3c9-2.9,18.4-4.6,27.9-5c10.9-0.4,21.1,1.8,30.7,7.2c1.5,0.8,2.8,1.7,4.7,1.1
			c13.6-4.1,25.9,0.6,38.1,5.7c7.5,3.1,14.8,6.8,22.4,9.6c12.5,4.7,25,6.1,37.8,0.4c7.5-3.4,9.6-1.9,12.3,6.4
			c0.1,0.5,0.3,1.2,0.5,1.3c6.5,1.1,2.8,5.4,2.1,7.9c-4.3,16.5-18.8,28-33.4,26.7c-7.8-0.7-14.8-3.9-21.1-8.3
			c-6.7-4.6-13.1-9.7-19.5-14.7C-2195.7,1056.8-2201,1053.5-2207.2,1051z"/>
		<path class="st25" d="M-2636.6,555c-1.8,0.9-2.2,1.1-2.6,1.3c-4.5,3-9.3,5.5-14.2,1.4c-4.6-3.8-3.3-9.2-2.1-13.9
			c6.8-27,23.8-45.1,49.2-55.7c18.5-7.8,38-11.9,57.5-16c22.4-4.7,45-8.9,65.4-20.3c4.3-2.4,8.9-4.7,12.6-8c2.6-2.3,6.4-5.2,3.1-9.9
			c-1.1-1.6,0.5-3.5,1.1-5.1c4-9.9,10.4-18.1,17.8-25.6c8.7-8.8,18.5-16.1,28.9-22.8c-6.4-6.7-0.7-15.8,8-17.4
			c4.5-0.9,9.4-1.6,11.6,4.5c0.8,2.3,3,1.5,4.8,1.1c11.2-2.5,22.3-3.7,33.5-0.1c5.5,1.8,11,3.7,16.5,5.4c4.2,1.3,8.2,1.5,12.6-0.3
			c5.4-2.2,7.2-0.8,7.3,5.1c0.2,21-7,39.3-20,55.6c-5.7,7.2-11.2,14.5-13.5,23.6c-2.4,9.4-2.7,19.1-4.2,28.6
			c-0.3,2.1,0.6,2.5,2.4,2.5c18.6,0.8,34-4.8,43.7-22c4.9-8.7,12.5-14.1,22.2-16.4c3.7-0.9,7-0.3,8,4.2c0.1,0.6,0.5,1.3,1,1.6
			c5.2,2.9,4.3,6.9,2.1,11.1c-0.7,1.4-1.2,2.2,0.4,3.7c3.3,3.2,2.8,7.6-1.6,9.3c-11.2,4.6-16.6,13.6-20.7,24.2
			c-10.1,26.2-31.9,35.3-57.5,38.1c-2.2,0.2-3.1,0.6-3.4,2.9c-0.5,3.4-0.8,7.6-2.9,9.9c-8.9,10.2-6.9,23.1-9.1,34.8
			c-1.1,5.9,2.4,12.3,4.1,18.3c5.9,21.3,14.9,40.9,29.3,57.8c1,1.2,1.8,1.9,3.6,1.9c4.4,0.1,7,3.3,6.8,7.1c-0.1,3.7,0,8.4-5.2,10.1
			c-4.7,1.6-8.6,5.1-14.4,3.8c-6.1-1.4-11.4-3.9-15.4-8.5c-4-4.6-8.9-8-14.2-10.8c-14.7-7.8-26.3-18.5-33.3-33.8
			c-0.4-0.9-0.9-1.7-1.5-2.7c-1.5,1.5,0.3,3.5-2.1,5c-7.3-10.7-16-20.7-16.4-34.7c-2,0-1.3,3.6-3.4,2.6c-1.8-0.8-1.3-2.9-1.3-4.5
			c-0.1-6.3,0-12.6,0-18.9c-1.9-0.1-2.7,1.1-3.7,1.8c-22.3,15.6-45.3,30.2-66.3,47.7c-4,3.3-8.7,5.6-13.6,7.2
			c-2.9,0.9-4.2,2.7-5.1,5.4c-3.9,12-11.2,21.8-20,30.6c-1.2,1.2-2.3,3.9-4.5,0.6c-0.8-1.1-1.5,0.6-2.1,1.2
			c-5.1,5-10.7,9.5-16.5,13.7c-5.7,4.1-11.7,7.5-18.2,10.9c3.4,2.1,6.6,4.3,8.9,7.4c4.2,5.5,2.7,9.7-3.1,13.2
			c-6,3.7-12,3.9-18.6,2.9c-3.8-0.6-7.6-0.3-11.5-0.3c-4.5,0-8.4-0.9-11.6-4.5c-2.8-3.2-7.2-2.5-10.3-1.5
			c-21.7,6.7-32.8-10.2-31.8-27.5c0.6-10.3,5.1-18.5,14.2-23.8c13.1-7.7,17.3-16.9,14.4-31.7c-0.8-3.8-1.5-7.5-4.5-10.7
			c-3.6-4-3.5-9.6-3.2-14.8c0.2-3.5,1-6.9,1.5-10.4c0.3-2.2,0.4-4.1-0.6-6.5c-1.9-4.7,1.5-8.9,3-13.2c0.6-1.7,2.7-2.9,0.2-5.3
			c-1.2-1.2,0.7-3.7,1.5-5.5C-2641.3,565.7-2639.2,560.9-2636.6,555z"/>
		<path class="st25" d="M-2257.4,800.5c-18.2-1.1-33.5-10.2-50-15.8c-3.8-1.3-1.8-2.6-0.3-3.9c10.8-9.8,23.4-16.3,37-21.2
			c12.5-4.4,25.4-7.7,38.3-11.3c-1.4-2.2-3.8-2-5.7-3c-0.9-0.4-2-0.5-2-1.8c0-1.3,1.1-1.6,2.1-1.7c27.3-3.4,54-11.6,82.1-9.3
			c17.2,1.4,32.4,8.2,47.7,15.3c11.9,5.6,24,10.5,37.2,12.3c7.8,1.1,15,1.2,21.3-4.9c3.9-3.8,9.1-6,14-8.6c2.3-1.2,6.2-0.7,6.1-5
			c0-0.3,1.7-0.8,2.6-1.1c3.7-0.9,7.5-1.6,11.2-2.5c1.3-0.3,3.8,0.1,2-2.9c-1-1.8,1.2-2,2.3-2.3c41.6-12.4,81.7-10.9,119.3,13.3
			c9,5.8,18.3,10.9,29,12.8c2.8,0.5,5.8,2.1,8.4-0.6c0.1-0.1,0.4-0.2,0.4-0.1c4.6,3.1,9.9,0.6,14.7,1.9c5.3,1.4,9.6,4.7,13.1,8.7
			c9.3,10.7,18,21.6,23.8,34.9c3.5,8.2,10.5,14.5,16.5,21.1c3.9,4.3,7.8,8.6,11.3,13.3c4.6,6.3,7.8,13.1,8,21.5
			c3.8-2.2,7.3-4.5,11.3-5.7c3-0.9,3.8,0,3.8,2.9c0,3.2,0,6.5-1.4,9.3c-5.7,12.2-4.7,24.9-3.3,37.7c0.6,5.4,0.3,10.7-1.9,15.7
			c-4.4,9.8-2.5,19.5,0.1,29.3c0.9,3.4,2.2,6.6,2.4,10.2c0.3,5.2-0.7,6.4-5.8,5.8c-11.7-1.2-21-7.1-27-16.8
			c-8.7-13.9-19.8-24.4-35.4-30c-10.7-3.9-16.7-12.7-22-22.1c-0.9-1.5-1.6-3.2-3-6c-1.2,14.8-2.2,28.3,0.4,41.6
			c1.5,7.9,6.7,13.5,12.4,18.8c4,3.8,8.8,7.3,8.5,13.9c-0.1,1.8-0.5,3-2,4.2c-6.6,5.1-13.5,3.7-18.2-3.5c-3.1-4.7-6.3-9.4-9.9-13.7
			c-9.9-11.7-14.7-25.5-17.7-40.2c-2.6-12.9-6.3-25.5-7.4-38.6c-0.1-0.8-0.3-1.6-1.2-1.9c-3.1,10.3-3.4,20.9-3.2,31.5
			c0.2,9.3-0.4,18.6-1.1,27.9c-0.8,11.7,3.5,21.1,13.1,28c2,1.5,4.2,2.8,5.4,5.1c2.3,4.1,1.5,9.2-2.8,13c-3.2,2.8-7,3.8-11.4,1.9
			c-6.3-2.6-10.9-6.7-14-12.8c-2.4-4.6-5.4-8.8-8.9-12.6c-5.5-5.9-8.4-12.9-8.3-20.8c0.2-16.1-4.1-31.2-8.2-46.4
			c-1.5-5.6-3.4-11.3-3.6-17c-0.3-7.1-3.7-10-10.6-10.7c2.4,10.1,0.9,20-1.9,29.8c-1.8,6.4-4.6,12-9.7,16.5c-5,4.6-5.7,7.9-2.9,13.7
			c4.3,8.9,11.2,16,16.6,24.2c1.5,2.2,4.1,3.2,6.8,3.9c3.4,0.9,6.7,2.2,9.5,4.2c4.5,3.2,4.2,9-0.4,11.7c-7.4,4.3-15,3.5-22.5-2
			c-6.4-4.7-11-11.1-16.7-16.4c-3.7-3.4-7.7-6.3-12-8.8c-12.9-7.6-15-13.1-10-27.2c3.2-9,6-17.9,5.5-27.7c-0.4-9.8-2.5-18.7-9-26.3
			c-1.9-2.2-3.4-4.7-5.3-7.4c-4.9,11.5-10.3,22.3-19.4,30.6c-0.6,0.6-1.1,1.4-1.8,1.7c-11.1,4.6-16.2,15.6-24.7,23
			c-9,7.9-8.5,19-7.5,29.8c0.5,5.1,2,10.1,3.1,15.1c1.1,5.3,2.9,9.6,9.2,11.4c5.5,1.5,6.7,9.3,2.8,13.7c-0.9,1-2.1,0.9-3.3,0.9
			c-3.5-0.2-7-0.3-10.5-0.8c-9.7-1.4-16-6.2-17.6-16.7c-1.8-11.3-5-22.3-8.9-33.2c-3.7-10.3-3.4-20.9-0.6-31.5
			c0.8-3.1,1.5-6.2,2.5-9.1c5.1-14.2,6.5-28.2-2.8-41.5c-2.1-2.9-2.2-6.9-6.7-8.6c-2.9-1.2-2.8-6.1-3.5-9.5
			c-0.3-1.5,0.4-3.1-2.4-3.3c-1.9-0.2-1.8-2.8-2-4.6c-0.7-7.4,0.3-14.5,3.2-21.9c-17.4,10.5-35.8,17.2-54.2,23.8
			c-2.2,0.8-4.5,1-6.8,1.3c-0.8,0.1-2.2-0.1-2.3-0.3c-0.9-5.9-4-1.4-5.8-1c-6.2,1.4-12,5.6-19,2.9c-0.8-0.3-2.2,0.6-3.3,0.9
			c-3.7,1-7.4,2-11.4,1.8c-0.6-2,1.2-3.3,1.5-5.4c-8.5,0.5-16.9,0.7-25.3,0.8c-15.4,0.1-29.8-5.1-44.5-8.5c-1.6-0.4-3.3-0.6-4.8-1.3
			c-1.2-0.5-3.3,0.4-3.6-1.8C-2260.8,802.3-2258.4,802.5-2257.4,800.5z"/>
		<path class="st25" d="M-2909.4-123.1c-1.4-2.7-5.2-2.3-4.4-4.5c0.9-2.4,3.8-0.8,5.8-0.6c9.9,1,19.9,1.6,29.7,3.6
			c0.5,0.1,1.1,0.4,1.5,0.2c9.2-6,17.5,0.2,26.1,1.8c3.7,0.7,7.2,2.6,11.1,4.1c-0.5-4-1.8-7.7-1.3-11.6c0.4-2.7,1.3-4.1,4.2-2.5
			c2.2,1.2,4.6,2,6.7,3.4c12.2,8.4,25.5,15,38.2,22.5c8.4,5,14.9,11.5,18.5,20.9c4.6,11.9,11.8,21.9,22.9,28.6
			c1,0.6,1.9,1.3,2.8,2.1c10,9.2,9.6,8.2,0.4,17.9c-6.7,7-15.4,8.7-24.4,5.4c-10.5-3.8-21.3-4.8-32.3-4.7c-5.7,0-11.3-1-16.2-4.3
			c-1.5-1-2.5-0.7-4,0.1c-10.2,5.4-18.4,13.2-27.4,20.2c-11.3,8.9-17.8,23-31.9,28.5c-1.5,0.6-1.3,1.6-1,2.8
			c2.3,13.7,9.1,24.3,21.1,31.7c8.2,5,17.1,9.1,24.1,15.9c12.7,12.3,14.4,35,3.4,47.3c-1.5,1.6-3.1,3-5,4.1
			c-4.2,2.5-8.7,0.8-10.1-3.9c-1.1-3.7-0.1-7.3,0.5-10.9c1.7-9.6,0-12.9-8.8-16.9c-6.9-3.1-14.2-4.7-21.3-7.1
			c-7.5-2.6-14.7-5.5-18.7-13c-0.2-0.3-0.3-0.7-0.6-0.8c-8.6-1.9-11.6-9.2-15.4-15.8c-5.1,5.2-5.6,5-15.1-7.4
			c-7.1,11.1-12.1,22.8-13,36.1c-0.9,13.3-2.6,26.5,0.5,39.7c1.1,4.7,2.8,9.2,5.3,13.4c1.4,2.3,2.8,4.3,5.8,4.8
			c2.4,0.4,4.3,1.7,4.6,4.6c0.2,2.7-1.8,3.4-3.5,4.8c-2.5,2.2-5.5,3.2-8.2,4.8c-5.3,3.1-9.4,1.2-13.3-1.7c-4.1-3.1-7.2-7.3-9.3-12.2
			c-5.5-12.8-8.3-26.2-9.4-40.1c-1-12.1-2.6-24.1-3.9-36.2c-0.1-0.7,0.3-2.1-0.7-2.1c-7.8,0.3-3-4.8-2.5-6.8
			c1.2-4.6,3.3-9.1,5.3-13.4c1.8-3.8,1-5.4-3-7.2c-19.5-9.2-40.2-12.3-61.5-13.6c-2.9-0.2-3.4,0.8-3.3,3.3c0,5,0.9,10.3-1.2,14.8
			c-4.3,9.4-4.6,20.4-10.4,28.7c-8.2,11.9-12.8,26-23.1,36.5c-3.4,3.5-3.8,7.2-0.7,11.5c5.6,7.7,10.2,15.9,16.3,23.3
			c2.6,3.2,5.7,5.4,10,5.8c3.2,0.3,6.1,1.7,6.1,5.4c0,3.5-1.1,6.3-4.7,8.5c-9.3,5.6-19.2,1.4-25.9-6c-8.8-9.6-17.6-19-27.9-27.1
			c-9.3-7.3-8.3-18-9.2-27.9c-0.9-9.5,0.7-18.9,5.1-28.2c-7.3,0.9-5.8-2.5-3.5-6.2c1.3-2.2,0.6-4.2-0.9-6c-2.4-2.7-4.8-5.4-7.4-8.4
			c-5.2,15.8-15,26.6-26.6,36.1c-3.9,3.2-7.8,6.2-11.6,9.4c-5.4,4.7-8.1,10.7-8.7,17.9c-0.9,10.6-2.1,21.2-3.4,31.7
			c-0.3,2.2-0.4,3.9,1.4,5.4c0.4,0.3,0.6,0.8,0.8,1.2c1.7,3.7,4.8,7.8,1.1,11.5c-3.5,3.5-8.5,3-12.6,0.7c-4.9-2.7-9.2-6.2-10.2-12.2
			c-3.5-20.1-5.2-40.4-1.8-60.6c1.5-8.8,6.4-16.7,11.5-24.1c2.1-3.1,4.3-6.2,6.2-9.7c-8.7,4.9-17.4,9.4-27.1,11.7
			c-7.9,1.9-15.9,3.7-24.1,1.8c-5.4-1.2-5.7-2-2.2-6.2c8-9.6,17.6-17.7,25.4-27.5c7.8-9.8,15.8-19.3,23.3-29.2
			c3-3.9,4.1-8.4,4.6-13.9c2-22.3,6.4-44.2,23.7-60.8c0.8-0.8,1.7-1.5,2.7-2.2c7.3-5.6,15.6-9.8,22.8-15.8
			c7.9-6.5,18.3-7.4,28.3-8.1c19.7-1.4,39.2,1.1,58.8,2.1c18.5,1,36.6-0.3,54-7.1C-2958.5-120-2934.7-124.8-2909.4-123.1z"/>
		<path class="st25" d="M-2287.7-11.2c-3-2-6.1-4-9.1-6c-1.2-0.8-3.3-1.1-2.7-3c0.7-2.1,2.8-1.2,4.3-1.1c5.3,0.4,10,2.7,15.7,5.9
			c-3-4.7-6.8-6.5-10.2-8.7c-1-0.6-2.5-0.9-2-2.3c0.4-1.3,2-1.1,3-1.2c4.3-0.1,8.1,1.4,11.5,4c2.8,2.1,5.4,4.5,8.3,6.4
			c4.2,2.9,8.6,2.5,12.4-0.5c3.6-2.9,3.8-6.3,2.3-10.3c-0.8-2-1.9-3.1-4.2-3.6c-11.5-2-21.8-6.9-30.9-14.3c-0.5-0.4-1.4-1.1-1.6-0.9
			c-5.8,3.7-10.1-0.6-14.3-3.1c-7.4-4.5-14.6-5.5-22.8-2.5c-4.7,1.7-7.8,5.1-10.4,8.9c-5.6,8.2-12.7,12.6-22.9,9.9
			c-1.3-0.3-1.9-0.2-2.7,1.2c-2.2,4.3-6.5,5.8-10.8,6.1c-4.1,0.3-5.1,1.5-3.2,5.1c0.6,1.2,1.3,2.6,0,3.6c-1.1,0.9-2.1-0.3-3.2-0.8
			c-12.7-6.1-15.8-15.8-8.8-27.9c0.5-0.9,0.8-1.7,0.9-2.7c1.5-23.8,2.9-27,19-45c-5.8,0.1-11-0.5-15.9-2.4
			c-6.2-2.4-7.1-4.6-4.4-10.4c-6.7-0.4-13.2-1.6-19.3-4.5c-5.1-2.4-8.9-6.1-8.9-12.1c0-2.6-1.7-2.4-3.1-2.8
			c-4.6-1.5-9.1-3.2-12.8-6.4c-2-1.7-3.9-3.9-2.9-6.4c1.2-3.1-0.1-4.3-2.3-6c-5.1-4-9.9-8.4-11.7-15c-0.4-1.5-1.7-2-2.7-2.7
			c-3.1-2.3-6-4.8-7.8-8.3c-2.8-5.5-0.5-9.3,5.6-9.1c5.6,0.2,10.6,2.6,15.8,4.3c16,5.5,31.6,12.2,48.7,14.4
			c14.2,1.8,28.6,1.4,42.9,2.4c13.9,1,27.9,1.2,41.6,4.1c12.1,2.6,23,7.7,33.1,14.6c4.4,3,8.6,3.3,13.5,3.1
			c8.2-0.3,14-3.5,18.3-10.5c5.4-8.7,14.4-11.9,23.8-14.1c18.9-4.4,38-6.4,57.3-7.4c31.9-1.8,63.9-2.6,95.2-9.8
			c37.6-8.6,72.1-23.2,99.8-51.1c8.9-9,16.7-18.9,23.3-29.7c1.2-2,2-2.4,4.2-0.8c4.5,3.4,6.2,6.9,5,12.4c-2,9.4-7,17.2-12.8,24.6
			c-2,2.5-2.3,3.8,1.2,5.3c4.5,1.9,5.5,5.9,4.8,10.4c-1.4,8.2-6.9,13-13.5,17c-2.2,1.3-4.8,2-2.4,5.7c1.5,2.3-0.1,5.2-1.6,7.5
			c-2.4,3.9-5.8,6.9-9.3,9.7c-2.2,1.8-3.2,3.5-2,6.7c2.4,6.2,0.2,10.6-5.1,14.9c-5.5,4.4-12.1,6.5-18.5,9.2c5.3,7.7,4.6,11.8-3.2,17
			c-6.5,4.4-13.8,7.3-21.2,9.7c-2.1,0.7-4,0.9-2.3,4.2c1.7,3.2,0.2,6.4-2.6,8.9c-6.9,6.3-15.2,6.9-23.9,6.1c-2.8-0.3-4.1,0-5.8,2.7
			c-4.1,6-10.9,7-17.7,7.5c-1.5,0.1-3,0.2-4.5,0c-3.5-0.5-5.7-0.2-7.3,4c-1.6,4.1-6.2,5.8-10.5,6.7c-5.6,1.2-11.2,0.8-16.7-1
			c-1.2-0.4-2.6-1.4-3.2,0.7c-1.7,6.1-6.9,7.8-12,9.2c-4.8,1.3-9.7,1.8-15.6,2.9c14,6.1,23.6,16.5,33.5,26.4
			c17.3,17.2,38.4,27.2,61.6,33.3c8.2,2.2,16.3,4.5,23.3,9.7c4,3,7.1,6.6,7.2,11.9c0,1.1,0,2.9-0.6,3.3c-4.8,2.7-1.4,5.2,0,7.7
			c1.6,2.9,3,6.1,1,8.9c-2.1,3-5.8,3-9.1,2.2c-2.9-0.6-5.8-1.2-8.7-2.6c3.4,4.3,6.7,8.4,8,13.7c1.2,4.6,0.3,5.8-4.5,5.1
			c-2.9-0.4-5.8-1.3-9-2c-0.5,2.2,0.9,4,1.5,5.9c0.9,2.9,0,4.3-3,4.9c-6,1.1-11.1-0.9-15.9-4.2c-1.5-1-2.8-2.2-4.3-3.3
			c-0.3,0.5-0.5,0.7-0.5,1c0.3,3.6,0.7,7.3-3.2,9.2c-3.8,1.8-7.3,0.8-10.7-1.6c-3.7-2.6-6-6.5-9.8-10c-0.2,3.5-0.2,6.4-0.5,9.3
			c-0.5,5.1-1.5,5.7-6.4,4.1c-4.9-1.6-8.1-5.1-10.7-9.3c-1-1.6-1.8-3.2-2.6-4.8c-0.4,0.2-0.8,0.2-0.8,0.4c-1,7.3-3,8.2-9.1,3.9
			c-6-4.2-7.1-10.8-8.5-17.5c-0.4,0.3-0.9,0.5-1.1,0.9c-1.7,2.6-3.6,5.1-7.2,4c-3.4-1.1-4-4.3-4.1-7.3c-0.1-4.2-0.1-8.3,0.3-12.5
			c0.9-8.8,0.8-17.6-0.6-26.4c-1.1-7.3-4.2-12.4-12.2-14.3c-8.8-2.1-16.9-3.3-24.7,2.7c-5.4,4.1-7,10.5-9.4,16.2
			c-1.1,2.7-2.3,3.4-4.4,3.9c-4.6,1-9.3,0.9-13.9,1c-5,0.1-10,0.1-15,0.7c-3.6,0.5-5.2,1.1-3.4,5.4c2.5,5.9,1.6,11.7-3,16.6
			c-2.8,3-6.3,4.2-10.3,4.2c-2.8,0-4-0.7-2.2-3.9c4.8-8.4,3.9-14.3-2.8-21.2c-2.3-2.4-5.1-4.3-8-5.9c-9.2-4.9-14.2-2.2-15.6,8.2
			c-0.8,5.7-2.2,11.2-6.7,15.2c-4.3,3.8-11,1.7-12.1-3.8c-0.4-1.8-0.9-4,2.5-2.8c3.4,1.2,4.6-0.6,4.5-3.8
			c-0.1-9.7-3.7-17.3-12.3-22.5c-6.7-4-14.3-5.5-21.3-8.5c-1.5-0.6-4.3-0.6-3.8-3.1c0.5-2.4,2.9-1.6,4.6-1.6
			C-2298.3-12.3-2293-12.5-2287.7-11.2z"/>
		<path class="st25" d="M-2073.9,485.2c6.1,2.2,11.3,4.8,15.8,8.5c2.4,1.9,4.2,4.3,5.7,6.9c2.3,4.3,1.3,8.9-3,10.6
			c-4.7,1.8-8.3,5.2-12.7,7.4c-0.7,0.4-1.7,1.2-2.2,1c-4.9-2.1-7.9,1.6-11.6,3.3c-2.8,1.3-6.3,1.3-8.7-0.3
			c-13.7-9.5-29.5-7.9-44.8-9c-4.2-0.3-8.2-1.2-12-3.1c-5.9-2.9-7.2-8-2.9-12.9c1.5-1.7,1.1-2.5,0.4-4.4
			c-3.6-9.8-8.5-18.7-15.5-26.4c-1.7-1.9-2.3-3.2-5.2-1.1c-5.5,4-17.2,0-21.9-6.9c-5.5-8.2-7.1-17.2-4.8-26.7
			c0.6-2.8,0.5-5.4,5.9-5.6c4.5-0.2,8.2-0.1,12.5,2.4c-0.3-8.4,1.7-15.9,3-23.5c2.8-17.1,12.2-30.2,25.7-40.8c1.4-1.1,4.8-1.9,2-5
			c-0.1-0.1,0.7-1.4,1.2-1.9c0.9-0.9,2-1.8,3-2.6c7.8-6.3,17.8-8.2,26.4-13c6.7-3.7,15.3-2.3,23.1-3.2c2.6-0.3,5.3-0.3,8-0.3
			c4.8,0,9.4-1,14.2-1.9c8.3-1.6,17.5,1.8,26.3,7.4c2.2-4.6,4.2-9.4,6.7-13.9c1.6-2.9-0.4-4.4-1.6-6.2c-9.8-14.4-16-29.9-15.7-47.5
			c0.1-4.1,0.8-8.1,2.4-12c1.1-2.7,0.7-6.2,0.6-9.3c-0.2-7.9,0.6-15.6,2.8-23.2c1.2-4.3,3.7-4.1,6.7-2.9c3.2,1.3,5.5,3.7,7.5,6.4
			c13.6,17.6,22.2,37.3,25.8,59.2c1.1,6.7,2.3,13.5,2.9,20.2c0.4,4.2,3.1,2.4,5.1,2.6c1.4,0.2,2.8,0.3,2.6-2.2
			c-2.3-24.7,8.6-44.4,23.5-62.7c6-7.3,12.7-13.6,22.1-16.3c7.1-2,9.4-1.2,12.1,5.4c5.5,13.3,3,26.1-3,38.5
			c-7.4,15.2-17.7,28.5-27.2,42.3c-3.1,4.5-2.3,8.6-1.5,13.1c1.8,9.6,5.3,18.9,6.9,28.6c1.8,10.7,0.4,20.5-6.8,29.1
			c-0.9,1-1.5,1.7-1.1,3.4c2.8,12.3,1.5,24.4-2.5,36.3c-0.3,0.9-0.6,2.5-1.2,2.6c-7.3,2-7.4,9.8-11.7,14.3
			c-3.4,3.6-6.7,7.3-9.9,11.1c-8.7,10.2-7.8,29,1.9,38.5c2.3,2.2,4.4,4.5,5.5,7.6c0.9,2.6,0.8,5.5-2.1,6.3
			c-5.2,1.5-9.1,5.2-13.7,7.7c-2.5,1.4-4.8,2.4-7.5,1.3c-1.5-0.6-2.5-0.2-3.8,0.3c-2.7,0.9-5.2,0.7-7.6-0.9c-0.5-0.4-1.2-1-1.7-1
			c-10.7,1.1-13.7-7.3-16.4-14.4c-3.6-9.4-9-16.7-16.7-23c-3.1-2.5-5.1-3.7-8-0.4C-2071.2,483.9-2072.4,484.3-2073.9,485.2z"/>
	</g>
</g>
</svg>
