<?xml version="1.0" encoding="utf-8"?>
<!-- Generator: Adobe Illustrator 22.0.0, SVG Export Plug-In . SVG Version: 6.00 Build 0)  -->
<svg version="1.1" id="Слой_1" xmlns="http://www.w3.org/2000/svg" xmlns:xlink="http://www.w3.org/1999/xlink" x="0px" y="0px"
	 viewBox="0 0 3841 1171.9" style="enable-background:new 0 0 3841 1171.9;" xml:space="preserve">
<style type="text/css">
	.st0{display:none;}
	.st1{display:inline;stroke:#FFFFFF;stroke-miterlimit:10;}
	.st2{display:inline;}
	.st3{fill:url(#SVGID_1_);}
	.st4{fill:url(#SVGID_2_);}
	.st5{fill:url(#SVGID_3_);}
	.st6{fill:url(#SVGID_4_);}
	.st7{fill:url(#SVGID_5_);}
	.st8{fill:url(#SVGID_6_);}
	.st9{fill:url(#SVGID_7_);}
	.st10{fill:url(#SVGID_8_);}
	.st11{fill:url(#SVGID_9_);}
	.st12{fill:url(#SVGID_10_);}
	.st13{fill:url(#SVGID_11_);}
	.st14{fill:url(#SVGID_12_);}
	.st15{fill:url(#SVGID_13_);}
	.st16{fill:url(#SVGID_14_);}
	.st17{fill:url(#SVGID_15_);}
	.st18{fill:url(#SVGID_16_);}
	.st19{fill:url(#SVGID_17_);}
	.st20{fill:url(#SVGID_18_);}
	.st21{fill:url(#SVGID_19_);}
	.st22{fill:url(#SVGID_20_);}
	.st23{fill:url(#SVGID_21_);}
	.st24{fill:url(#SVGID_22_);}
	.st25{fill:url(#SVGID_23_);}
	.st26{fill:url(#SVGID_24_);}
	.st27{fill:url(#SVGID_25_);}
	.st28{fill:url(#SVGID_26_);}
	.st29{fill:url(#SVGID_27_);}
	.st30{fill:url(#SVGID_28_);}
	.st31{fill:url(#SVGID_29_);}
	.st32{fill:url(#SVGID_30_);}
	.st33{fill:url(#SVGID_31_);}
	.st34{fill:url(#SVGID_32_);}
	.st35{fill:url(#SVGID_33_);}
	.st36{fill:url(#SVGID_34_);}
	.st37{fill:url(#SVGID_35_);}
	.st38{fill:url(#SVGID_36_);}
	.st39{fill:url(#SVGID_37_);}
	.st40{fill:url(#SVGID_38_);}
	.st41{fill:url(#SVGID_39_);}
	.st42{fill:url(#SVGID_40_);}
	.st43{fill:url(#SVGID_41_);}
	.st44{fill:url(#SVGID_42_);}
	.st45{fill:url(#SVGID_43_);}
	.st46{fill:url(#SVGID_44_);}
	.st47{fill:url(#SVGID_45_);}
	.st48{fill:url(#SVGID_46_);}
	.st49{fill:url(#SVGID_47_);}
	.st50{fill:url(#SVGID_48_);}
	.st51{fill:url(#SVGID_49_);}
	.st52{fill:url(#SVGID_50_);}
</style>
<g id="Слой_2_1_" class="st0">
	<rect x="0.5" y="0.5" class="st1" width="3840" height="1170.9"/>
</g>
<g id="Слой_1_2_">
	<g id="Слой_2_2_" class="st0">
		<rect x="0.5" y="0.5" class="st2" width="3840" height="1246.4"/>
	</g>
	<g id="Слой_1_1_">
		<g>
			
				<linearGradient id="SVGID_1_" gradientUnits="userSpaceOnUse" x1="2222.1052" y1="814.3455" x2="2317.6365" y2="814.3455" gradientTransform="matrix(0.9966 -8.298796e-02 -8.298796e-02 -0.9966 78.8753 1525.8097)">
				<stop  offset="0" style="stop-color:#FFFFFF;stop-opacity:0.3"/>
				<stop  offset="1" style="stop-color:#F7F7F7;stop-opacity:0.3"/>
			</linearGradient>
			<path class="st3" d="M2320.4,538.7c-4.8-1.1-8.8-1.9-12.8-2.8c-26.3-6.1-52.7-12.3-79-18.4c-1.7-0.4-4.3-0.2-3.9-2.6
				c0.5-3,3.2-1.7,4.9-1.3c29.7,6.8,59.4,13.6,89,20.4c1.4,0.4,3.5,0.2,3.6,2.2C2322.3,537.8,2321.2,538.8,2320.4,538.7z"/>
			
				<linearGradient id="SVGID_2_" gradientUnits="userSpaceOnUse" x1="2454.824" y1="849.4451" x2="2483.2051" y2="849.4451" gradientTransform="matrix(0.9966 -8.298796e-02 -8.298796e-02 -0.9966 78.8753 1525.8097)">
				<stop  offset="0" style="stop-color:#FFFFFF;stop-opacity:0.3"/>
				<stop  offset="1" style="stop-color:#F7F7F7;stop-opacity:0.3"/>
			</linearGradient>
			<path class="st4" d="M2467.9,458.9c3.4,7.2,7.6,9.1,14.3,7.1c-3.4,5.5-3.3,10,1.5,14.8c-7.1-0.5-10.7,2.8-12.7,9
				c-3.1-5.8-7-8.4-13.7-6.3c2.9-5.4,3.9-10.1-3.1-14.9C2462.6,469.4,2466.3,466.5,2467.9,458.9z"/>
			
				<linearGradient id="SVGID_3_" gradientUnits="userSpaceOnUse" x1="2189.8477" y1="842.2253" x2="2217.335" y2="842.2253" gradientTransform="matrix(0.9966 -8.298796e-02 -8.298796e-02 -0.9966 78.8753 1525.8097)">
				<stop  offset="0" style="stop-color:#FFFFFF;stop-opacity:0.3"/>
				<stop  offset="1" style="stop-color:#F7F7F7;stop-opacity:0.3"/>
			</linearGradient>
			<path class="st5" d="M2219.3,509.9c-7.4-1.2-10.6,2.5-13,8.5c-3.2-5.3-6.6-9.1-14.3-5.3c4.1-6.4,3.7-10.9-1.1-15.7
				c7.3,0.9,10.5-2.5,12.7-8.7c3.3,5.3,7,8.6,14,6.1C2213.7,500.6,2214.8,505.1,2219.3,509.9z"/>
			
				<linearGradient id="SVGID_4_" gradientUnits="userSpaceOnUse" x1="2328.1924" y1="799.2751" x2="2355.9922" y2="799.2751" gradientTransform="matrix(0.9966 -8.298796e-02 -8.298796e-02 -0.9966 78.8753 1525.8097)">
				<stop  offset="0" style="stop-color:#FFFFFF;stop-opacity:0.3"/>
				<stop  offset="1" style="stop-color:#F7F7F7;stop-opacity:0.3"/>
			</linearGradient>
			<path class="st6" d="M2348.7,550.4c-3.9-6.2-7.7-9.4-15.3-5.7c4.4-6.5,4.1-11-1-15.6c6.4-0.3,11.6-1,11.9-9.7
				c4,6.1,7.9,9.2,14.7,6.7c-2.8,5.4-3.8,10.1,1.9,14.6C2354.5,540.9,2349.9,542.5,2348.7,550.4z"/>
			
				<linearGradient id="SVGID_5_" gradientUnits="userSpaceOnUse" x1="2512.0801" y1="908.303" x2="2540.322" y2="908.303" gradientTransform="matrix(0.9966 -8.298796e-02 -8.298796e-02 -0.9966 78.8753 1525.8097)">
				<stop  offset="0" style="stop-color:#FFFFFF;stop-opacity:0.3"/>
				<stop  offset="1" style="stop-color:#F7F7F7;stop-opacity:0.3"/>
			</linearGradient>
			<path class="st7" d="M2513,398c4.9,3.6,9.7,5,15.1,0.5c-0.7,6.1,0.4,10.3,7.1,12.5c-6.2,2.7-9.9,6.1-8.3,13.1
				c-4.8-2.5-8.6-5.6-13.2-2c-0.8,0.7-3,0.1-2.2-1.1c3.4-5.9-7.2-8.5-4.1-11.2C2511.4,406.5,2512.8,403.3,2513,398z"/>
			
				<linearGradient id="SVGID_6_" gradientUnits="userSpaceOnUse" x1="2360.9041" y1="819.6083" x2="2445.3347" y2="819.6083" gradientTransform="matrix(0.9966 -8.298796e-02 -8.298796e-02 -0.9966 78.8753 1525.8097)">
				<stop  offset="0" style="stop-color:#FFFFFF;stop-opacity:0.3"/>
				<stop  offset="1" style="stop-color:#F7F7F7;stop-opacity:0.3"/>
			</linearGradient>
			<path class="st8" d="M2443.5,489.6c2-1,2.5,0.1,2.9,1.1c0.8,1.9-1.2,2.3-2.1,2.8c-6.1,3-12.2,5.7-18.3,8.6
				c-18.6,8.7-37.1,17.5-55.7,26.2c-1.6,0.8-3.8,3-5.1,0.1c-1.2-2.4,1.7-2.7,3.1-3.4c24.4-11.6,48.8-23.2,73.2-34.7
				C2442.3,489.9,2443.1,489.7,2443.5,489.6z"/>
			
				<linearGradient id="SVGID_7_" gradientUnits="userSpaceOnUse" x1="2483.5383" y1="877.4271" x2="2507.7959" y2="877.4271" gradientTransform="matrix(0.9966 -8.298796e-02 -8.298796e-02 -0.9966 78.8753 1525.8097)">
				<stop  offset="0" style="stop-color:#FFFFFF;stop-opacity:0.3"/>
				<stop  offset="1" style="stop-color:#F7F7F7;stop-opacity:0.3"/>
			</linearGradient>
			<path class="st9" d="M2502,429.2c0.5,0.2,1.1,0.4,1.5,0.8c1,0.9,0.9,1.9,0.2,2.9c-5.9,8.3-11.7,16.6-17.5,25
				c-0.7,1-1.7,1.7-2.8,1.2c-1.3-0.6-1.4-1.7-0.7-2.7c6-8.7,12.1-17.5,18.1-26.2C2501,429.8,2501.5,429.6,2502,429.2z"/>
		</g>
		<g>
			
				<linearGradient id="SVGID_8_" gradientUnits="userSpaceOnUse" x1="3389.6775" y1="1080.7708" x2="3422.8704" y2="1080.7708" gradientTransform="matrix(1 0 0 -1 0 1339)">
				<stop  offset="0" style="stop-color:#FFFFFF;stop-opacity:0.3"/>
				<stop  offset="1" style="stop-color:#F7F7F7;stop-opacity:0.3"/>
			</linearGradient>
			<path class="st10" d="M3412.2,242.7c0.4,7.2,2.4,12,10.6,12.5c-5.1,4.2-9.4,7.9-4.3,15.9c-7.9-3.9-13.4-3.8-17.8,2.5
				c-0.2-7.5-3-11.9-11-12.8c5.1-3.7,8.5-7,6.2-12.7c-0.6-1.4,1-2.2,2-1.6C3403.4,250.1,3407.4,246.7,3412.2,242.7z"/>
			
				<linearGradient id="SVGID_9_" gradientUnits="userSpaceOnUse" x1="3519.6353" y1="1097.3672" x2="3548.9675" y2="1097.3672" gradientTransform="matrix(1 0 0 -1 0 1339)">
				<stop  offset="0" style="stop-color:#FFFFFF;stop-opacity:0.3"/>
				<stop  offset="1" style="stop-color:#F7F7F7;stop-opacity:0.3"/>
			</linearGradient>
			<path class="st11" d="M3549,233.8c-3.6,7.9-3.6,7.9-0.8,16.3c-5.7,0.1-12.1-0.9-12.8,9.1c-4.4-6.4-6.7-12.5-15.7-9
				c4.2-6.1,6.1-11,0.4-16.5c7-0.1,13.1,0.1,14.3-9.7C3538,231.3,3540.8,236.6,3549,233.8z"/>
			
				<linearGradient id="SVGID_10_" gradientUnits="userSpaceOnUse" x1="3605.0542" y1="983.3324" x2="3637.7065" y2="983.3324" gradientTransform="matrix(1 0 0 -1 0 1339)">
				<stop  offset="0" style="stop-color:#FFFFFF;stop-opacity:0.3"/>
				<stop  offset="1" style="stop-color:#F7F7F7;stop-opacity:0.3"/>
			</linearGradient>
			<path class="st12" d="M3637.7,353.2c-4.3,3.7-10.2,6.8-3.6,15c-7.1-2.4-12.1-4.5-16.2,1c-1.1,1.6-2.8,0.3-2.6-1.1
				c0.6-6.8-4.6-8.2-10.2-10.4c7-3.2,7.5-8.3,5.6-14.8c5.3,2.5,9.8,4.2,13.9-0.4c1.8-2,3.7-1.1,3.4,1.2
				C3627.2,350.9,3633,351,3637.7,353.2z"/>
			
				<linearGradient id="SVGID_11_" gradientUnits="userSpaceOnUse" x1="3263.0681" y1="1135.0474" x2="3293.7742" y2="1135.0474" gradientTransform="matrix(1 0 0 -1 0 1339)">
				<stop  offset="0" style="stop-color:#FFFFFF;stop-opacity:0.3"/>
				<stop  offset="1" style="stop-color:#F7F7F7;stop-opacity:0.3"/>
			</linearGradient>
			<path class="st13" d="M3263.1,199c8.2,1,10.2-4.1,11.8-11.4c4,6.3,8.5,9.8,16.3,5.8c-2.6,6.6-4.7,11.8,2.5,15.7
				c-6.9,1-11.8,3.2-12.2,11.4c-4.8-4.6-8.5-9.9-17.1-4.1C3268.3,208.7,3268.2,203.6,3263.1,199z"/>
			
				<linearGradient id="SVGID_12_" gradientUnits="userSpaceOnUse" x1="3357.9438" y1="1163.2399" x2="3391.7856" y2="1163.2399" gradientTransform="matrix(1 0 0 -1 0 1339)">
				<stop  offset="0" style="stop-color:#FFFFFF;stop-opacity:0.3"/>
				<stop  offset="1" style="stop-color:#F7F7F7;stop-opacity:0.3"/>
			</linearGradient>
			<path class="st14" d="M3380.8,160.5c0.1,7.3,2.7,11.5,11,12c-5.1,4.4-9.9,7.9-4.4,15.6c-7.5-2.4-13.2-4.8-17.4,2.9
				c-0.9-7.3-3.7-12-12.1-12.9c6.8-3.7,9.2-7.8,5.3-15.7C3370.6,166.7,3376,166.4,3380.8,160.5z"/>
			
				<linearGradient id="SVGID_13_" gradientUnits="userSpaceOnUse" x1="3548.5068" y1="1042.3878" x2="3606.8921" y2="1042.3878" gradientTransform="matrix(1 0 0 -1 0 1339)">
				<stop  offset="0" style="stop-color:#FFFFFF;stop-opacity:0.3"/>
				<stop  offset="1" style="stop-color:#F7F7F7;stop-opacity:0.3"/>
			</linearGradient>
			<path class="st15" d="M3604.8,337.1c-18.8-26.5-37.6-53-56.3-79.5c0.7-0.5,1.4-1,2.1-1.5c18.8,26.5,37.5,53,56.3,79.5
				C3606.2,336.1,3605.5,336.6,3604.8,337.1z"/>
			
				<linearGradient id="SVGID_14_" gradientUnits="userSpaceOnUse" x1="3431.4121" y1="1092.8262" x2="3517.5845" y2="1092.8262" gradientTransform="matrix(1 0 0 -1 0 1339)">
				<stop  offset="0" style="stop-color:#FFFFFF;stop-opacity:0.3"/>
				<stop  offset="1" style="stop-color:#F7F7F7;stop-opacity:0.3"/>
			</linearGradient>
			<path class="st16" d="M3517.6,241.4c-28.6,4.1-57.2,8.2-85.8,12.2c-0.1-0.9-0.3-1.7-0.4-2.5c28.6-4.1,57.2-8.2,85.8-12.3
				C3517.4,239.6,3517.5,240.5,3517.6,241.4z"/>
			
				<linearGradient id="SVGID_15_" gradientUnits="userSpaceOnUse" x1="3298.6938" y1="1146.0757" x2="3361.7283" y2="1146.0757" gradientTransform="matrix(1 0 0 -1 0 1339)">
				<stop  offset="0" style="stop-color:#FFFFFF;stop-opacity:0.3"/>
				<stop  offset="1" style="stop-color:#F7F7F7;stop-opacity:0.3"/>
			</linearGradient>
			<path class="st17" d="M3361.7,185.7c-20.8,5.6-41.6,11.3-62.3,16.9c-0.2-0.8-0.5-1.7-0.7-2.5c20.8-5.6,41.6-11.3,62.3-16.9
				C3361.3,184,3361.5,184.9,3361.7,185.7z"/>
			
				<linearGradient id="SVGID_16_" gradientUnits="userSpaceOnUse" x1="3381.7847" y1="1120.3429" x2="3403.5491" y2="1120.3429" gradientTransform="matrix(1 0 0 -1 0 1339)">
				<stop  offset="0" style="stop-color:#FFFFFF;stop-opacity:0.3"/>
				<stop  offset="1" style="stop-color:#F7F7F7;stop-opacity:0.3"/>
			</linearGradient>
			<path class="st18" d="M3384.4,193.9c6.4,16.2,12.8,32.4,19.2,48.5c-0.8,0.3-1.5,0.6-2.3,0.9c-6.5-16.2-13-32.4-19.5-48.5
				C3382.6,194.5,3383.5,194.2,3384.4,193.9z"/>
		</g>
		<g>
			
				<linearGradient id="SVGID_17_" gradientUnits="userSpaceOnUse" x1="990.2336" y1="1189.7367" x2="1133.7643" y2="1189.7367" gradientTransform="matrix(0.7786 0.6275 0.6275 -0.7786 -329.3548 435.6462)">
				<stop  offset="0" style="stop-color:#FFFFFF;stop-opacity:0.3"/>
				<stop  offset="1" style="stop-color:#F7F7F7;stop-opacity:0.3"/>
			</linearGradient>
			<path class="st19" d="M1181.3,140.2c0.4-0.7,0.5-1.6,1-2.1c2-1.8,3.5,0.1,5,1c10.8,6.5,21.6,13.1,32.4,19.6
				c27.2,16.5,54.5,32.9,81.6,49.5c1.9,1.1,6.6,1.5,4.4,5.3c-2.1,3.8-4.8,0.1-6.8-1.1c-36.9-22.2-73.8-44.5-110.6-66.8
				C1185.9,144.1,1183.7,142.1,1181.3,140.2z"/>
			
				<linearGradient id="SVGID_18_" gradientUnits="userSpaceOnUse" x1="956.224" y1="1175.1851" x2="982.3687" y2="1175.1851" gradientTransform="matrix(0.7786 0.6275 0.6275 -0.7786 -329.3548 435.6462)">
				<stop  offset="0" style="stop-color:#FFFFFF;stop-opacity:0.3"/>
				<stop  offset="1" style="stop-color:#F7F7F7;stop-opacity:0.3"/>
			</linearGradient>
			<path class="st20" d="M1156.2,116.2c2.3,1,3.1,1.6,3.8,1.5c9-1.6,13.4,4,16.9,11.6c-1.7,2-6.1,3.4-5.1,8.3c0.4,2-1.6,2.1-2.7,1.3
				c-3.9-2.8-7.2-0.3-11.2,1.2c-1.7-4.3-0.1-10.6-8.8-11C1154.6,125.4,1158.3,122.7,1156.2,116.2z"/>
			
				<linearGradient id="SVGID_19_" gradientUnits="userSpaceOnUse" x1="980.6428" y1="1071.2228" x2="1006.8222" y2="1071.2228" gradientTransform="matrix(0.7786 0.6275 0.6275 -0.7786 -329.3548 435.6462)">
				<stop  offset="0" style="stop-color:#FFFFFF;stop-opacity:0.3"/>
				<stop  offset="1" style="stop-color:#F7F7F7;stop-opacity:0.3"/>
			</linearGradient>
			<path class="st21" d="M1126.6,233.6c-6.4-2.7-9.6,1.3-13.7,4.8c-1.4-5.8-4-9.5-9.6-8.8c-0.1-1.1-0.3-1.5-0.2-1.6
				c4.6-2.9,1.3-11,3.8-11.3c4.7-0.6,8.4-1.4,11.2-6.4c2,6,4.4,10.2,11.2,9.8C1126.2,224.3,1123,228,1126.6,233.6z"/>
			
				<linearGradient id="SVGID_20_" gradientUnits="userSpaceOnUse" x1="870.9656" y1="1121.1381" x2="897.6479" y2="1121.1381" gradientTransform="matrix(0.7786 0.6275 0.6275 -0.7786 -329.3548 435.6462)">
				<stop  offset="0" style="stop-color:#FFFFFF;stop-opacity:0.3"/>
				<stop  offset="1" style="stop-color:#F7F7F7;stop-opacity:0.3"/>
			</linearGradient>
			<path class="st22" d="M1051.5,110.3c6.2,2.5,10.7-11.6,16.7-1c13.5-0.8-2.8,12.5,7.3,13.7c-5.8,0.3-9.3,2.7-11.4,8.4
				c-2.4-5.9-6.2-8-12.2-6.6C1053.1,119.7,1056.2,115,1051.5,110.3z"/>
			
				<linearGradient id="SVGID_21_" gradientUnits="userSpaceOnUse" x1="973.2177" y1="1120.2201" x2="993.66" y2="1120.2201" gradientTransform="matrix(0.7786 0.6275 0.6275 -0.7786 -329.3548 435.6462)">
				<stop  offset="0" style="stop-color:#FFFFFF;stop-opacity:0.3"/>
				<stop  offset="1" style="stop-color:#F7F7F7;stop-opacity:0.3"/>
			</linearGradient>
			<path class="st23" d="M1127.2,211.8c-1.1-0.5-2.3-0.6-3.1-1.3c-1.9-1.5-0.1-2.8,0.5-4.1c5.4-11.7,10.8-23.4,16.2-35.1
				c3-6.5,5.9-13,8.9-19.5c0.7-1.5,1.5-3.1,3.6-2.1c2,0.9,1.9,2.3,1.1,4c-8.6,18.7-17.1,37.4-25.8,56.1
				C1128.4,210.5,1127.8,211.1,1127.2,211.8z"/>
			
				<linearGradient id="SVGID_22_" gradientUnits="userSpaceOnUse" x1="1137.9125" y1="1201.4291" x2="1164.8285" y2="1201.4291" gradientTransform="matrix(0.7786 0.6275 0.6275 -0.7786 -329.3548 435.6462)">
				<stop  offset="0" style="stop-color:#FFFFFF;stop-opacity:0.3"/>
				<stop  offset="1" style="stop-color:#F7F7F7;stop-opacity:0.3"/>
			</linearGradient>
			<path class="st24" d="M1336.2,223.6c-6.5,2.7-8.6,6.2-7.7,11.3c-4.1,0-7.3-4.3-11.1-0.8c-1.8,1.6-4,0.8-3.7-1.9
				c0.5-4.9-4-5.9-6.6-9.1c4.9-2,7-5.4,5.8-11.7c5.4,3.8,9.8,4.3,15.1-0.2C1327.3,217.4,1328.6,221.7,1336.2,223.6z"/>
			
				<linearGradient id="SVGID_23_" gradientUnits="userSpaceOnUse" x1="809.8332" y1="1075.0286" x2="836.9566" y2="1075.0286" gradientTransform="matrix(0.7786 0.6275 0.6275 -0.7786 -329.3548 435.6462)">
				<stop  offset="0" style="stop-color:#FFFFFF;stop-opacity:0.3"/>
				<stop  offset="1" style="stop-color:#F7F7F7;stop-opacity:0.3"/>
			</linearGradient>
			<path class="st25" d="M998.3,107.3c-3.6,5.3-2.6,9.3,0.6,14c-5.7-0.1-10.3,0.3-11.2,7.4c-4.6-3.6-6.4-10.1-13.6-5.6
				c1.4-5.9,5.3-10.3-0.5-13.7c1.4-1,1.9-1.7,2.2-1.6c5.8,2.1,7.6-6.9,11-5.3C990.3,104.3,992,109.6,998.3,107.3z"/>
			
				<linearGradient id="SVGID_24_" gradientUnits="userSpaceOnUse" x1="895.9776" y1="1150.8469" x2="955.0643" y2="1150.8469" gradientTransform="matrix(0.7786 0.6275 0.6275 -0.7786 -329.3548 435.6462)">
				<stop  offset="0" style="stop-color:#FFFFFF;stop-opacity:0.3"/>
				<stop  offset="1" style="stop-color:#F7F7F7;stop-opacity:0.3"/>
			</linearGradient>
			<path class="st26" d="M1079.5,116.7c0-3.4,2.6-2.9,4.7-2.7c19.9,2.5,39.7,5.2,59.6,7.7c1.7,0.2,3.4,0.5,3.4,2.6
				c0,2.9-2.4,2.6-4.2,2.4c-10.6-1.4-21.2-2.8-31.8-4.2c-9-1.2-18-2.3-26.9-3.4C1082.4,118.9,1080.2,119.3,1079.5,116.7z"/>
			
				<linearGradient id="SVGID_25_" gradientUnits="userSpaceOnUse" x1="834.6335" y1="1099.3395" x2="871.7162" y2="1099.3395" gradientTransform="matrix(0.7786 0.6275 0.6275 -0.7786 -329.3548 435.6462)">
				<stop  offset="0" style="stop-color:#FFFFFF;stop-opacity:0.3"/>
				<stop  offset="1" style="stop-color:#F7F7F7;stop-opacity:0.3"/>
			</linearGradient>
			<path class="st27" d="M1043,117.5c-12.2,0-25.1,0.1-38,0.2c-1.7,0-3.4-0.1-3.4-2.5c0-2.2,1.7-2.6,3.4-2.5
				c13.1-0.1,26.3-0.1,39.4-0.2c1.7,0,3.5,0.3,3.4,2.5C1047.8,117.9,1045.3,117.1,1043,117.5z"/>
		</g>
		<g>
			
				<linearGradient id="SVGID_26_" gradientUnits="userSpaceOnUse" x1="1538.4104" y1="372.0199" x2="1572.6682" y2="372.0199" gradientTransform="matrix(0.9979 -6.485399e-02 -6.485399e-02 -0.9979 22.8205 1444.2092)">
				<stop  offset="0" style="stop-color:#FFFFFF;stop-opacity:0.3"/>
				<stop  offset="1" style="stop-color:#F7F7F7;stop-opacity:0.3"/>
			</linearGradient>
			<path class="st28" d="M1552.8,954c2.5,7.5,6,11.9,14.9,10.1c-4.1,6-7.6,11.1,0.1,18.1c-9.5-1.8-15.3-0.1-18,7.9
				c-2.4-7.9-6.6-11.6-15.4-10.2c4.3-5.4,6.9-9.9,2.8-15.2c-1-1.3,0.4-2.6,1.7-2.2C1545.5,964.5,1548.8,959.8,1552.8,954z"/>
			
				<linearGradient id="SVGID_27_" gradientUnits="userSpaceOnUse" x1="1671.8674" y1="418.7659" x2="1705.6888" y2="418.7659" gradientTransform="matrix(0.9979 -6.485399e-02 -6.485399e-02 -0.9979 22.8205 1444.2092)">
				<stop  offset="0" style="stop-color:#FFFFFF;stop-opacity:0.3"/>
				<stop  offset="1" style="stop-color:#F7F7F7;stop-opacity:0.3"/>
			</linearGradient>
			<path class="st29" d="M1694.2,904.4c-1.4,9.4-1.4,9.4,4,17.4c-5.9,1.8-13,2.7-10.8,13.4c-6.4-5.4-10.8-11.2-19.2-4.8
				c2.7-7.6,3.1-13.4-4.4-17.5c7.4-2.1,13.8-3.7,12.2-14.5C1681.9,905,1686.4,909.7,1694.2,904.4z"/>
			
				<linearGradient id="SVGID_28_" gradientUnits="userSpaceOnUse" x1="1790.8416" y1="316.3242" x2="1824.75" y2="316.3242" gradientTransform="matrix(0.9979 -6.485399e-02 -6.485399e-02 -0.9979 22.8205 1444.2092)">
				<stop  offset="0" style="stop-color:#FFFFFF;stop-opacity:0.3"/>
				<stop  offset="1" style="stop-color:#F7F7F7;stop-opacity:0.3"/>
			</linearGradient>
			<path class="st30" d="M1822.9,1004c-3.4,5.2-8.8,10.1,0.6,16.9c-8.2-0.4-14.1-1.2-16.7,5.8c-0.8,2-2.8,1.1-3.1-0.5
				c-1.4-7.3-7.2-7.3-13.8-7.9c6.4-5.4,5.4-10.9,1.5-17.1c6.3,1.1,11.5,1.5,14.5-4.5c1.3-2.7,3.5-2.3,3.9,0.3
				C1811.1,1004.6,1817.3,1003.1,1822.9,1004z"/>
			
				<linearGradient id="SVGID_29_" gradientUnits="userSpaceOnUse" x1="1389.0002" y1="401.1718" x2="1424.1033" y2="401.1718" gradientTransform="matrix(0.9979 -6.485399e-02 -6.485399e-02 -0.9979 22.8205 1444.2092)">
				<stop  offset="0" style="stop-color:#FFFFFF;stop-opacity:0.3"/>
				<stop  offset="1" style="stop-color:#F7F7F7;stop-opacity:0.3"/>
			</linearGradient>
			<path class="st31" d="M1382.8,951.8c8.9-1.4,9.5-7.3,9-15.5c6,5.6,11.8,7.8,18.9,1.3c-0.9,7.7-1.5,13.8,7.3,15.8
				c-6.9,3.1-11.5,6.9-9.5,15.6c-6.4-3.4-11.9-7.9-19.2,0.8C1391.1,960.5,1389.5,955.3,1382.8,951.8z"/>
			
				<linearGradient id="SVGID_30_" gradientUnits="userSpaceOnUse" x1="1485.8359" y1="453.3425" x2="1520.797" y2="453.3425" gradientTransform="matrix(0.9979 -6.485399e-02 -6.485399e-02 -0.9979 22.8205 1444.2092)">
				<stop  offset="0" style="stop-color:#FFFFFF;stop-opacity:0.3"/>
				<stop  offset="1" style="stop-color:#F7F7F7;stop-opacity:0.3"/>
			</linearGradient>
			<path class="st32" d="M1495.4,876.6c2.2,7.7,6.3,11.4,15.1,9.4c-4.1,6.2-8.2,11.2-0.1,17.7c-8.6-0.3-15.3-1.1-17.4,8.2
				c-3.1-7.4-7.5-11.5-16.6-10.1c6-5.9,7.4-11.1,0.9-18.2C1486.5,886.2,1492.2,884.3,1495.4,876.6z"/>
			
				<linearGradient id="SVGID_31_" gradientUnits="userSpaceOnUse" x1="1707.6609" y1="369.5613" x2="1787.7656" y2="369.5613" gradientTransform="matrix(0.9979 -6.485399e-02 -6.485399e-02 -0.9979 22.8205 1444.2092)">
				<stop  offset="0" style="stop-color:#FFFFFF;stop-opacity:0.3"/>
				<stop  offset="1" style="stop-color:#F7F7F7;stop-opacity:0.3"/>
			</linearGradient>
			<path class="st33" d="M1783.4,996.8c-27.6-22.4-55.2-44.8-82.8-67.2c0.6-0.8,1.2-1.5,1.8-2.2c27.6,22.4,55.2,44.8,82.7,67.2
				C1784.6,995.4,1784.1,996,1783.4,996.8z"/>
			
				<linearGradient id="SVGID_32_" gradientUnits="userSpaceOnUse" x1="1580.9509" y1="400.201" x2="1671.0011" y2="400.201" gradientTransform="matrix(0.9979 -6.485399e-02 -6.485399e-02 -0.9979 22.8205 1444.2092)">
				<stop  offset="0" style="stop-color:#FFFFFF;stop-opacity:0.3"/>
				<stop  offset="1" style="stop-color:#F7F7F7;stop-opacity:0.3"/>
			</linearGradient>
			<path class="st34" d="M1663.4,921.6c-28.9,12.7-57.8,25.4-86.8,38.2c-0.4-0.9-0.8-1.7-1.1-2.6c28.9-12.7,57.8-25.5,86.7-38.3
				C1662.6,919.9,1663,920.7,1663.4,921.6z"/>
			
				<linearGradient id="SVGID_33_" gradientUnits="userSpaceOnUse" x1="1427.4211" y1="424.7049" x2="1491.6259" y2="424.7049" gradientTransform="matrix(0.9979 -6.485399e-02 -6.485399e-02 -0.9979 22.8205 1444.2092)">
				<stop  offset="0" style="stop-color:#FFFFFF;stop-opacity:0.3"/>
				<stop  offset="1" style="stop-color:#F7F7F7;stop-opacity:0.3"/>
			</linearGradient>
			<path class="st35" d="M1482.8,908.9c-20.3,12.1-40.4,24.1-60.7,36.2c-0.5-0.8-1-1.7-1.5-2.4c20.3-12.1,40.4-24.1,60.7-36.2
				C1481.8,907.2,1482.3,908,1482.8,908.9z"/>
			
				<linearGradient id="SVGID_34_" gradientUnits="userSpaceOnUse" x1="1515.1636" y1="411.2663" x2="1549.2029" y2="411.2663" gradientTransform="matrix(0.9979 -6.485399e-02 -6.485399e-02 -0.9979 22.8205 1444.2092)">
				<stop  offset="0" style="stop-color:#FFFFFF;stop-opacity:0.3"/>
				<stop  offset="1" style="stop-color:#F7F7F7;stop-opacity:0.3"/>
			</linearGradient>
			<path class="st36" d="M1509,910.9c11.5,15.2,23,30.3,34.5,45.5c-0.7,0.5-1.5,1.1-2.1,1.6c-11.6-15.1-23.2-30.3-34.8-45.4
				C1507.5,912,1508.2,911.5,1509,910.9z"/>
		</g>
		<g>
			
				<linearGradient id="SVGID_35_" gradientUnits="userSpaceOnUse" x1="3264.1318" y1="413.7446" x2="3400.8833" y2="413.7446" gradientTransform="matrix(0.9392 -0.3433 -0.3433 -0.9392 299.5517 2335.8379)">
				<stop  offset="0" style="stop-color:#FFFFFF;stop-opacity:0.3"/>
				<stop  offset="1" style="stop-color:#F7F7F7;stop-opacity:0.3"/>
			</linearGradient>
			<path class="st37" d="M3213.8,801c0-0.8-0.3-1.7,0-2.5c1-2.6,3.2-1.6,5-1.5c12.9,0.6,25.7,1.3,38.6,1.9c32.4,1.7,64.8,3.2,97.2,5
				c2.2,0.1,6.7-1.8,6.6,2.7c-0.1,4.4-4.3,2.5-6.7,2.4c-43.8-2.1-87.7-4.3-131.6-6.6C3219.9,802.3,3216.9,801.5,3213.8,801z"/>
			
				<linearGradient id="SVGID_36_" gradientUnits="userSpaceOnUse" x1="3229.9321" y1="449.6005" x2="3258.1101" y2="449.6005" gradientTransform="matrix(0.9392 -0.3433 -0.3433 -0.9392 299.5517 2335.8379)">
				<stop  offset="0" style="stop-color:#FFFFFF;stop-opacity:0.3"/>
				<stop  offset="1" style="stop-color:#F7F7F7;stop-opacity:0.3"/>
			</linearGradient>
			<path class="st38" d="M3179.7,791.6c2.5-0.3,3.6-0.1,4.2-0.5c7.3-5.8,14-2.9,20.8,2.2c-0.6,2.6-3.9,6-0.6,9.9
				c1.3,1.5-0.5,2.7-1.8,2.5c-4.9-0.6-6.7,3.2-9.4,6.5c-3.6-3-5.2-9.5-13.3-5.6C3182.8,800.7,3184.7,796.5,3179.7,791.6z"/>
			
				<linearGradient id="SVGID_37_" gradientUnits="userSpaceOnUse" x1="3198.0352" y1="346.5026" x2="3223.3999" y2="346.5026" gradientTransform="matrix(0.9392 -0.3433 -0.3433 -0.9392 299.5517 2335.8379)">
				<stop  offset="0" style="stop-color:#FFFFFF;stop-opacity:0.3"/>
				<stop  offset="1" style="stop-color:#F7F7F7;stop-opacity:0.3"/>
			</linearGradient>
			<path class="st39" d="M3209.9,911.4c-7.1,0.7-8,5.8-10,11c-4-4.5-8.2-6.6-12.9-3.3c-0.6-1-1-1.3-0.9-1.3c2.8-4.9-4.2-10.5-2-12
				c4-2.8,6.8-5.3,7-11.2c4.8,4.3,8.9,7,14.8,3.4C3205,903.3,3203.9,908.1,3209.9,911.4z"/>
			
				<linearGradient id="SVGID_38_" gradientUnits="userSpaceOnUse" x1="3128.7271" y1="445.932" x2="3154.8225" y2="445.932" gradientTransform="matrix(0.9392 -0.3433 -0.3433 -0.9392 299.5517 2335.8379)">
				<stop  offset="0" style="stop-color:#FFFFFF;stop-opacity:0.3"/>
				<stop  offset="1" style="stop-color:#F7F7F7;stop-opacity:0.3"/>
			</linearGradient>
			<path class="st40" d="M3082.8,837c6.8-0.7,4.1-15.6,14.5-9c11.7-7.3,3.6,12.5,13.2,8.8c-5,3-7.1,6.9-6.2,13.1
				c-5-4.2-9.4-4.2-14.2,0C3088.7,844.6,3089.3,838.9,3082.8,837z"/>
			
				<linearGradient id="SVGID_39_" gradientUnits="userSpaceOnUse" x1="3215.5164" y1="394.1188" x2="3239.26" y2="394.1188" gradientTransform="matrix(0.9392 -0.3433 -0.3433 -0.9392 299.5517 2335.8379)">
				<stop  offset="0" style="stop-color:#FFFFFF;stop-opacity:0.3"/>
				<stop  offset="1" style="stop-color:#F7F7F7;stop-opacity:0.3"/>
			</linearGradient>
			<path class="st41" d="M3199.9,891.5c-1.2,0.1-2.4,0.5-3.4,0.4c-2.4-0.4-1.5-2.5-1.6-3.9c-0.8-13.1-1.6-26.3-2.4-39.4
				c-0.5-7.3-0.9-14.5-1.4-21.8c-0.1-1.8-0.1-3.5,2.3-3.7c2.2-0.1,2.8,1.1,3,3.1c1.3,21,2.7,41.9,4,62.8
				C3200.4,889.8,3200.1,890.6,3199.9,891.5z"/>
			
				<linearGradient id="SVGID_40_" gradientUnits="userSpaceOnUse" x1="3403.1855" y1="377.8466" x2="3432.6318" y2="377.8466" gradientTransform="matrix(0.9392 -0.3433 -0.3433 -0.9392 299.5517 2335.8379)">
				<stop  offset="0" style="stop-color:#FFFFFF;stop-opacity:0.3"/>
				<stop  offset="1" style="stop-color:#F7F7F7;stop-opacity:0.3"/>
			</linearGradient>
			<path class="st42" d="M3393.3,801.1c-4.5,5.6-4.7,9.7-1.4,13.9c-3.7,1.9-8.6-0.4-10.4,4.6c-0.8,2.3-3.2,2.5-4.3,0.1
				c-1.9-4.7-6.5-3.4-10.3-4.9c3.4-4.1,3.7-8.3-0.5-13.4c6.6,0.7,10.9-0.9,13.4-7.4C3382.4,799.8,3385.5,803,3393.3,801.1z"/>
			
				<linearGradient id="SVGID_41_" gradientUnits="userSpaceOnUse" x1="3050.0493" y1="437.6539" x2="3077.2466" y2="437.6539" gradientTransform="matrix(0.9392 -0.3433 -0.3433 -0.9392 299.5517 2335.8379)">
				<stop  offset="0" style="stop-color:#FFFFFF;stop-opacity:0.3"/>
				<stop  offset="1" style="stop-color:#F7F7F7;stop-opacity:0.3"/>
			</linearGradient>
			<path class="st43" d="M3033.6,860c-0.7,6.5,2.2,9.6,7.3,12.2c-5.1,2.6-9.2,5.3-6.4,12c-5.9-0.9-10.6-5.9-14.9,1.6
				c-1.7-6-0.2-11.8-7.1-12c0.7-1.6,0.9-2.5,1.2-2.5c6.2-0.9,3.5-9.9,7.3-10C3025,861.2,3029,865.2,3033.6,860z"/>
			
				<linearGradient id="SVGID_42_" gradientUnits="userSpaceOnUse" x1="3157.8821" y1="451.0713" x2="3227.4897" y2="451.0713" gradientTransform="matrix(0.9392 -0.3433 -0.3433 -0.9392 299.5517 2335.8379)">
				<stop  offset="0" style="stop-color:#FFFFFF;stop-opacity:0.3"/>
				<stop  offset="1" style="stop-color:#F7F7F7;stop-opacity:0.3"/>
			</linearGradient>
			<path class="st44" d="M3111,829.2c-1.6-3.1,0.9-3.9,2.9-4.7c19.1-7.3,38.2-14.6,57.3-21.9c1.7-0.6,3.3-1.2,4.3,0.7
				c1.3,2.6-0.9,3.5-2.7,4.2c-10.2,4-20.4,7.8-30.6,11.7c-8.6,3.3-17.3,6.6-25.9,9.9C3114.7,829.8,3112.9,831.2,3111,829.2z"/>
			
				<linearGradient id="SVGID_43_" gradientUnits="userSpaceOnUse" x1="3079.1482" y1="443.4961" x2="3125.8181" y2="443.4961" gradientTransform="matrix(0.9392 -0.3433 -0.3433 -0.9392 299.5517 2335.8379)">
				<stop  offset="0" style="stop-color:#FFFFFF;stop-opacity:0.3"/>
				<stop  offset="1" style="stop-color:#F7F7F7;stop-opacity:0.3"/>
			</linearGradient>
			<path class="st45" d="M3078.7,847.6c-11,6-22.5,12.3-34,18.5c-1.6,0.9-3.1,1.5-4.2-0.6c-1-2,0.2-3.1,1.8-4
				c11.8-6.4,23.5-12.9,35.3-19.2c1.5-0.8,3.3-1.4,4.3,0.6C3083.2,845.5,3080.6,846,3078.7,847.6z"/>
		</g>
		<g>
			
				<linearGradient id="SVGID_44_" gradientUnits="userSpaceOnUse" x1="263.8929" y1="761.5109" x2="315.9176" y2="761.5109" gradientTransform="matrix(1 0 0 -1 0 1339)">
				<stop  offset="0" style="stop-color:#FFFFFF;stop-opacity:0.3"/>
				<stop  offset="1" style="stop-color:#F7F7F7;stop-opacity:0.3"/>
			</linearGradient>
			<path class="st46" d="M312.1,623.7c-2.5-4.6-4.5-8.3-6.6-12.1c-13.3-25.1-26.6-50.3-40-75.4c-0.9-1.7-2.8-3.5-0.7-4.9
				c2.7-1.7,3.5,1.3,4.4,3c15.1,28.2,30.2,56.5,45.2,84.7c0.7,1.3,2.2,2.9,0.7,4.4C314.1,624.5,312.6,624.3,312.1,623.7z"/>
			
				<linearGradient id="SVGID_45_" gradientUnits="userSpaceOnUse" x1="450.3515" y1="641.6418" x2="481.4818" y2="641.6418" gradientTransform="matrix(1 0 0 -1 0 1339)">
				<stop  offset="0" style="stop-color:#FFFFFF;stop-opacity:0.3"/>
				<stop  offset="1" style="stop-color:#F7F7F7;stop-opacity:0.3"/>
			</linearGradient>
			<path class="st47" d="M477.3,685.5c-3.4,7.6-2,12.3,4.2,16.3c-6.7,1.1-10.2,4.3-10.7,11.4c-4.5-6-9.6-6.5-15.9-3.9
				c2.5-6.4,1.9-11.4-4.5-15.2c6.4-1.4,10.6-3.9,9.7-12.7C465.3,688.6,470.1,689.5,477.3,685.5z"/>
			
				<linearGradient id="SVGID_46_" gradientUnits="userSpaceOnUse" x1="243.726" y1="830.9907" x2="275.9259" y2="830.9907" gradientTransform="matrix(1 0 0 -1 0 1339)">
				<stop  offset="0" style="stop-color:#FFFFFF;stop-opacity:0.3"/>
				<stop  offset="1" style="stop-color:#F7F7F7;stop-opacity:0.3"/>
			</linearGradient>
			<path class="st48" d="M265.2,523.6c-4.2-6.7-9.3-6.6-15.7-4.4c2-6.3,2.6-11.5-5.7-15c7.9-1.1,11.1-4.7,11.7-11.7
				c4.3,6.4,9.3,6.6,15.6,4c-1.9,6.3-2,11.4,4.9,15.4C268.7,512.7,265.9,516.6,265.2,523.6z"/>
			
				<linearGradient id="SVGID_47_" gradientUnits="userSpaceOnUse" x1="316.4166" y1="697.0558" x2="348.8841" y2="697.0558" gradientTransform="matrix(1 0 0 -1 0 1339)">
				<stop  offset="0" style="stop-color:#FFFFFF;stop-opacity:0.3"/>
				<stop  offset="1" style="stop-color:#F7F7F7;stop-opacity:0.3"/>
			</linearGradient>
			<path class="st49" d="M322.4,654.2c2.2-7.4,2.2-12.6-6-16.1c8.2-1,11.6-4.4,11.7-11.5c4.7,4.9,8.8,8.5,15.9,2.8
				c-2,7.4-1.8,12.6,4.8,16.3c-6.3,1.5-10.5,4-10.3,11.7C333.9,652.2,329.5,649.7,322.4,654.2z"/>
			
				<linearGradient id="SVGID_48_" gradientUnits="userSpaceOnUse" x1="536.6752" y1="645.1721" x2="566.6919" y2="645.1721" gradientTransform="matrix(1 0 0 -1 0 1339)">
				<stop  offset="0" style="stop-color:#FFFFFF;stop-opacity:0.3"/>
				<stop  offset="1" style="stop-color:#F7F7F7;stop-opacity:0.3"/>
			</linearGradient>
			<path class="st50" d="M556.7,679.3c0.6,6.4,2.7,11.1,10,12.3c-5.3,3.6-7.9,7.4-5,14.3c-6.4-3-11.7-3.7-16.2,2.5
				c-1.3-5.6-1.6-10.8-7.5-11.8c-1.1-0.2-2-2.3-0.6-2.6c7.1-1.4,1.8-11.6,6.1-11C548.8,683.8,552.4,682.8,556.7,679.3z"/>
			
				<linearGradient id="SVGID_49_" gradientUnits="userSpaceOnUse" x1="350.8131" y1="667.8715" x2="437.6497" y2="667.8715" gradientTransform="matrix(1 0 0 -1 0 1339)">
				<stop  offset="0" style="stop-color:#FFFFFF;stop-opacity:0.3"/>
				<stop  offset="1" style="stop-color:#F7F7F7;stop-opacity:0.3"/>
			</linearGradient>
			<path class="st51" d="M436.1,687.4c2.1,0.9,1.7,2,1.1,3.1c-1,1.9-2.7,0.7-3.7,0.3c-6.6-2.7-13-5.7-19.5-8.6
				c-19.7-8.7-39.5-17.4-59.2-26.1c-1.8-0.7-5-0.9-3.6-4c1.1-2.6,3.3-0.6,4.9,0.1c26,11.3,52.1,22.7,78.1,34.1
				C434.9,686.6,435.7,687.1,436.1,687.4z"/>
			
				<linearGradient id="SVGID_50_" gradientUnits="userSpaceOnUse" x1="487.514" y1="643.4698" x2="524.7017" y2="643.4698" gradientTransform="matrix(1 0 0 -1 0 1339)">
				<stop  offset="0" style="stop-color:#FFFFFF;stop-opacity:0.3"/>
				<stop  offset="1" style="stop-color:#F7F7F7;stop-opacity:0.3"/>
			</linearGradient>
			<path class="st52" d="M524.3,692.1c0.1,0.5,0.4,1.2,0.4,1.8c0,1.4-0.8,2-2.2,2.1c-10.6,1.1-21.3,2.2-31.9,3.3
				c-1.3,0.2-2.5-0.2-2.9-1.5c-0.4-1.4,0.3-2.3,1.7-2.5c11.1-1.2,22.2-2.5,33.3-3.7C523.1,691.7,523.6,692,524.3,692.1z"/>
		</g>
	</g>
</g>
</svg>
