<?xml version="1.0" encoding="utf-8"?>
<!-- Generator: Adobe Illustrator 22.0.0, SVG Export Plug-In . SVG Version: 6.00 Build 0)  -->
<svg version="1.1" id="Слой_1" xmlns="http://www.w3.org/2000/svg" xmlns:xlink="http://www.w3.org/1999/xlink" x="0px" y="0px"
	 viewBox="0 0 600 600" style="enable-background:new 0 0 600 600;" xml:space="preserve">
<style type="text/css">
	.st0{fill:#F8F8F8;}
	.st1{fill:#EE964B;}
</style>
<path class="st0" d="M362.5,342.2c-1.1,0.5-1.3,0.6-1.5,0.8c-2.6,1.8-5.5,3.2-8.3,0.8c-2.7-2.2-1.9-5.4-1.2-8.2
	c4-15.9,14-26.5,28.9-32.7c10.9-4.6,22.3-7,33.8-9.4c13.2-2.8,26.4-5.2,38.4-11.9c2.5-1.4,5.2-2.8,7.4-4.7c1.5-1.4,3.8-3.1,1.8-5.8
	c-0.6-0.9,0.3-2.1,0.6-3c2.3-5.8,6.1-10.6,10.5-15c5.1-5.2,10.9-9.5,17-13.4c-3.8-3.9-0.4-9.3,4.7-10.2c2.6-0.5,5.5-0.9,6.8,2.6
	c0.5,1.4,1.8,0.9,2.8,0.6c6.6-1.5,13.1-2.2,19.7-0.1c3.2,1.1,6.5,2.2,9.7,3.2c2.5,0.8,4.8,0.9,7.4-0.2c3.2-1.3,4.2-0.5,4.3,3
	c0.1,12.3-4.1,23.1-11.7,32.6c-3.3,4.2-6.6,8.5-7.9,13.9c-1.4,5.5-1.6,11.2-2.5,16.8c-0.2,1.2,0.4,1.5,1.4,1.5
	c10.9,0.5,20-2.8,25.7-12.9c2.9-5.1,7.3-8.3,13-9.6c2.2-0.5,4.1-0.2,4.7,2.5c0.1,0.4,0.3,0.8,0.6,0.9c3.1,1.7,2.5,4.1,1.2,6.5
	c-0.4,0.8-0.7,1.3,0.2,2.2c1.9,1.9,1.6,4.5-0.9,5.5c-6.6,2.7-9.7,8-12.2,14.2C550.8,328,538,333.4,523,335c-1.3,0.1-1.8,0.4-2,1.7
	c-0.3,2-0.5,4.5-1.7,5.8c-5.2,6-4.1,13.6-5.3,20.4c-0.6,3.5,1.4,7.2,2.4,10.7c3.5,12.5,8.7,24,17.2,33.9c0.6,0.7,1.1,1.1,2.1,1.1
	c2.6,0.1,4.1,1.9,4,4.2c-0.1,2.2,0,4.9-3.1,5.9c-2.8,0.9-5,3-8.5,2.2c-3.6-0.8-6.7-2.3-9-5s-5.2-4.7-8.3-6.3
	c-8.6-4.6-15.4-10.9-19.6-19.8c-0.2-0.5-0.5-1-0.9-1.6c-0.9,0.9,0.2,2.1-1.2,2.9c-4.3-6.3-9.4-12.2-9.6-20.4c-1.2,0-0.8,2.1-2,1.5
	c-1.1-0.5-0.8-1.7-0.8-2.6c-0.1-3.7,0-7.4,0-11.1c-1.1-0.1-1.6,0.6-2.2,1.1c-13.1,9.2-26.6,17.7-38.9,28c-2.3,1.9-5.1,3.3-8,4.2
	c-1.7,0.5-2.5,1.6-3,3.2c-2.3,7-6.6,12.8-11.7,18c-0.7,0.7-1.4,2.3-2.6,0.4c-0.5-0.6-0.9,0.4-1.2,0.7c-3,2.9-6.3,5.6-9.7,8
	c-3.3,2.4-6.9,4.4-10.7,6.4c2,1.2,3.9,2.5,5.2,4.3c2.5,3.2,1.6,5.7-1.8,7.8c-3.5,2.2-7,2.3-10.9,1.7c-2.2-0.4-4.5-0.2-6.8-0.2
	c-2.6,0-4.9-0.5-6.8-2.6c-1.6-1.9-4.2-1.5-6-0.9c-12.7,3.9-19.3-6-18.7-16.1c0.4-6,3-10.9,8.3-14c7.7-4.5,10.2-9.9,8.5-18.6
	c-0.5-2.2-0.9-4.4-2.6-6.3c-2.1-2.3-2.1-5.6-1.9-8.7c0.1-2.1,0.6-4.1,0.9-6.1c0.2-1.3,0.2-2.4-0.4-3.8c-1.1-2.8,0.9-5.2,1.8-7.8
	c0.4-1,1.6-1.7,0.1-3.1c-0.7-0.7,0.4-2.2,0.9-3.2C359.7,348.5,361,345.6,362.5,342.2z"/>
<path class="st0" d="M188.7,148.9c-1.8-1.2-3.6-2.3-5.3-3.5c-0.7-0.5-1.9-0.6-1.6-1.8c0.4-1.2,1.6-0.7,2.5-0.6
	c3.1,0.2,5.9,1.6,9.2,3.5c-1.8-2.8-4-3.8-6-5.1c-0.6-0.4-1.5-0.5-1.2-1.4c0.2-0.8,1.2-0.6,1.8-0.7c2.5-0.1,4.8,0.8,6.8,2.3
	c1.6,1.2,3.2,2.6,4.9,3.8c2.5,1.7,5,1.5,7.3-0.3c2.1-1.7,2.2-3.7,1.4-6c-0.5-1.2-1.1-1.8-2.5-2.1c-6.8-1.2-12.8-4.1-18.1-8.4
	c-0.3-0.2-0.8-0.6-0.9-0.5c-3.4,2.2-5.9-0.4-8.4-1.8c-4.3-2.6-8.6-3.2-13.4-1.5c-2.8,1-4.6,3-6.1,5.2c-3.3,4.8-7.5,7.4-13.4,5.8
	c-0.8-0.2-1.1-0.1-1.6,0.7c-1.3,2.5-3.8,3.4-6.3,3.6c-2.4,0.2-3,0.9-1.9,3c0.4,0.7,0.8,1.5,0,2.1c-0.6,0.5-1.2-0.2-1.9-0.5
	c-7.5-3.6-9.3-9.3-5.2-16.4c0.3-0.5,0.5-1,0.5-1.6c0.9-14,1.7-15.9,11.2-26.4c-3.4,0.1-6.5-0.3-9.3-1.4c-3.6-1.4-4.2-2.7-2.6-6.1
	c-3.9-0.2-7.8-0.9-11.3-2.6c-3-1.4-5.2-3.6-5.2-7.1c0-1.5-1-1.4-1.8-1.6c-2.7-0.9-5.3-1.9-7.5-3.8c-1.2-1-2.3-2.3-1.7-3.8
	c0.7-1.8-0.1-2.5-1.4-3.5c-3-2.3-5.8-4.9-6.9-8.8c-0.2-0.9-1-1.2-1.6-1.6c-1.8-1.4-3.5-2.8-4.6-4.9c-1.6-3.2-0.3-5.5,3.3-5.3
	c3.3,0.1,6.2,1.5,9.3,2.5c9.4,3.2,18.6,7.2,28.6,8.5c8.3,1.1,16.8,0.8,25.2,1.4c8.2,0.6,16.4,0.7,24.4,2.4
	c7.1,1.5,13.5,4.5,19.4,8.6c2.6,1.8,5,1.9,7.9,1.8c4.8-0.2,8.2-2.1,10.7-6.2c3.2-5.1,8.5-7,14-8.3c11.1-2.6,22.3-3.8,33.6-4.3
	c18.7-1.1,37.5-1.5,55.9-5.8c22.1-5,42.3-13.6,58.6-30c5.2-5.3,9.8-11.1,13.7-17.4c0.7-1.2,1.2-1.4,2.5-0.5c2.6,2,3.6,4.1,2.9,7.3
	c-1.2,5.5-4.1,10.1-7.5,14.4c-1.2,1.5-1.4,2.2,0.7,3.1c2.6,1.1,3.2,3.5,2.8,6.1c-0.8,4.8-4.1,7.6-7.9,10c-1.3,0.8-2.8,1.2-1.4,3.3
	c0.9,1.4-0.1,3.1-0.9,4.4c-1.4,2.3-3.4,4.1-5.5,5.7c-1.3,1.1-1.9,2.1-1.2,3.9c1.4,3.6,0.1,6.2-3,8.7c-3.2,2.6-7.1,3.8-10.9,5.4
	c3.1,4.5,2.7,6.9-1.9,10c-3.8,2.6-8.1,4.3-12.4,5.7c-1.2,0.4-2.3,0.5-1.4,2.5c1,1.9,0.1,3.8-1.5,5.2c-4.1,3.7-8.9,4.1-14,3.6
	c-1.6-0.2-2.4,0-3.4,1.6c-2.4,3.5-6.4,4.1-10.4,4.4c-0.9,0.1-1.8,0.1-2.6,0c-2.1-0.3-3.3-0.1-4.3,2.3c-0.9,2.4-3.6,3.4-6.2,3.9
	c-3.3,0.7-6.6,0.5-9.8-0.6c-0.7-0.2-1.5-0.8-1.9,0.4c-1,3.6-4.1,4.6-7,5.4c-2.8,0.8-5.7,1.1-9.2,1.7c8.2,3.6,13.9,9.7,19.7,15.5
	c10.2,10.1,22.5,16,36.2,19.6c4.8,1.3,9.6,2.6,13.7,5.7c2.3,1.8,4.2,3.9,4.2,7c0,0.6,0,1.7-0.4,1.9c-2.8,1.6-0.8,3.1,0,4.5
	c0.9,1.7,1.8,3.6,0.6,5.2c-1.2,1.8-3.4,1.8-5.3,1.3c-1.7-0.4-3.4-0.7-5.1-1.5c2,2.5,3.9,4.9,4.7,8c0.7,2.7,0.2,3.4-2.6,3
	c-1.7-0.2-3.4-0.8-5.3-1.2c-0.3,1.3,0.5,2.3,0.9,3.5c0.5,1.7,0,2.5-1.8,2.9c-3.5,0.6-6.5-0.5-9.3-2.5c-0.9-0.6-1.6-1.3-2.5-1.9
	c-0.2,0.3-0.3,0.4-0.3,0.6c0.2,2.1,0.4,4.3-1.9,5.4c-2.2,1.1-4.3,0.5-6.3-0.9c-2.2-1.5-3.5-3.8-5.8-5.9c-0.1,2.1-0.1,3.8-0.3,5.5
	c-0.3,3-0.9,3.3-3.8,2.4s-4.8-3-6.3-5.5c-0.6-0.9-1.1-1.9-1.5-2.8c-0.2,0.1-0.5,0.1-0.5,0.2c-0.6,4.3-1.8,4.8-5.3,2.3
	s-4.2-6.3-5-10.3c-0.2,0.2-0.5,0.3-0.6,0.5c-1,1.5-2.1,3-4.2,2.3c-2-0.6-2.3-2.5-2.4-4.3c-0.1-2.5-0.1-4.9,0.2-7.3
	c0.5-5.2,0.5-10.3-0.4-15.5c-0.6-4.3-2.5-7.3-7.2-8.4c-5.2-1.2-9.9-1.9-14.5,1.6c-3.2,2.4-4.1,6.2-5.5,9.5c-0.6,1.6-1.4,2-2.6,2.3
	c-2.7,0.6-5.5,0.5-8.2,0.6c-2.9,0.1-5.9,0.1-8.8,0.4c-2.1,0.3-3.1,0.6-2,3.2c1.5,3.5,0.9,6.9-1.8,9.7c-1.6,1.8-3.7,2.5-6,2.5
	c-1.6,0-2.3-0.4-1.3-2.3c2.8-4.9,2.3-8.4-1.6-12.4c-1.4-1.4-3-2.5-4.7-3.5c-5.4-2.9-8.3-1.3-9.2,4.8c-0.5,3.3-1.3,6.6-3.9,8.9
	c-2.5,2.2-6.5,1-7.1-2.2c-0.2-1.1-0.5-2.3,1.5-1.6s2.7-0.4,2.6-2.2c-0.1-5.7-2.2-10.2-7.2-13.2c-3.9-2.3-8.4-3.2-12.5-5
	c-0.9-0.4-2.5-0.4-2.2-1.8c0.3-1.4,1.7-0.9,2.7-0.9C182.5,148.3,185.6,148.1,188.7,148.9z"/>
<path class="st0" d="M65.3,383.5c2.3-1.4,3.5-0.5,4.2,1.9c1.1,3.7,2.4,7.4,3.6,11.2c2.5-3.2,4.8-6.4,7.3-9.5
	c0.4-0.5,0.6-1.1,1.4-0.9s0.6,0.9,0.7,1.4c1.2,4.5,1.9,9,2.8,13.4c1.6,8.5-1.5,16.1-3.2,24.1c-0.9,4.3-2.2,8.4-5.3,12.2
	c3.3,0.4,5.5,2.1,7.5,3.8c1.4,1.2,4.1,2.1,2.2,4.9c-0.1,0.1-0.1,0.2,0,0.3c1.7,2.3,3.2,4.9,5.2,7c1.7,1.8,4.3,1.7,6.6,1.1
	s4.8-0.9,7.1-1.8c9.9-3.3,20.2-5,30.4-7.3c3.5-0.8,6.7-2.2,9.6-4.1c6.9-4.4,14.3-7.6,22.4-9.2c1.2-0.2,1.8-0.9,2.6-1.6
	c4.4-4.3,9.7-6.6,15.9-6c2.3,0.2,5.8-0.2,5.6,4c0,0.1,0.2,0.3,0.4,0.4c3.5,4.5,3.6,7.4,0.4,11.9c-0.7,1-1.6,1.7,0,2.9
	c1.7,1.3,2.2,0.4,3.1-0.8c3.8-4.9,7.2-4.5,9.8,1.1c1.9,3.9,2.9,8.1,4.1,12.2c0.4,1.3,0.8,2.6,1.3,3.9c0.6,1.6,1.4,2.5,3,0.7
	s3.5-3.5,5.6-4.7c3.4-2,5.2-1.6,7.3,1.8c4.1,6.6,8,13.2,12.3,19.6c3.1,4.5,6.2,9,10.2,12.9c2.7,2.6,2.6,3.6-0.2,6
	c-0.7,0.6-0.6,1.3-0.8,2.1c-0.5,3.5-1.7,4.3-5.2,3.9c-4-0.5-6.4-3.1-8.4-6.2c-2.6-4.3-3.8-9.2-5.3-13.9c-0.9-2.7-1.6-5.5-3.5-7.7
	c-1-1.2-2.2-1.9-3.8-1.7c-1.2,0.1-2.5,0.3-3.1,1.4c-0.7,1.2,0.5,1.9,1,2.8c1.6,2.4,3.5,4.7,5,7.2c1.6,2.5,0.8,3-1.7,4.5
	c-4.9,3-8.1,0.4-11.3-2.8c-1-0.9-1.6-1.8-2.5,0c-0.2,0.3-0.6,0.5-0.9,0.6c-8.2,3.3-15.9,8-25.1,7.6c-8.5-0.3-16.3-2.9-23.5-7.3
	c-1-0.6-1.6-0.9-2.6,0.1c-6.3,6.2-12.6,12.6-18.6,19c-7,7.5-15.3,12.7-24.7,16.6c-4,1.7-8.2,2.6-12.6,2.5c-1.5,0-2.3,0.5-3.1,1.6
	c-2.8,3.8-6.2,6.7-10.2,9.2c-1.2,0.8-2.3,1.2-2.3-1.4c-0.9,1.2-1.6,1.8-2.1,2.6c-3.3,5.3-8.3,7.7-14.3,8.6
	c-6.4,0.9-12.7,2.1-18.8,4.5c-1.8,0.7-3.3,1.5-4.5,3.1c-1.8,2.5-3.9,4.7-5.4,7.3c-3.1,5.3-8.1,6.8-13.5,6.3
	c-1.9-0.2-4.3-1.2-6.2-2.3c-1.8-1.1-1.2-2.9-0.4-4.5c1.8-3.3,4.4-6,7.3-8.3c4-3.1,8.1-6.1,12.2-9.2c3.1-2.3,6.6-3.8,10.3-4.8
	c6.4-1.8,12.3-4.4,17.5-8.6c0.6-0.5,2.2-0.9,1-2.1c-1.1-1-1.2-3.5-3.5-2.8c-4,1.3-7.7,0.7-11.9-0.2c-6.7-1.5-13.5-0.5-18.7,4.9
	c-3.9,4.1-8.2,7.8-11.4,12.6c-1.8,2.8-4.3,2.5-7.6,2.1c-3.1-0.4-4.3-2.8-6.8-3.7c-1.1-0.4-1.4-1.3-1.1-2.4c0.5-2,1.1-4,2.9-5.3
	c6.3-4.4,11.7-10,17.8-14.8c7.5-5.9,15.9-9.1,25.5-8.8c1.4,0.1,2.7-0.2,4.1-0.4c1.4-0.2,2.1-0.9,1.8-2.4c-0.2-0.9,0.6-2.8-1.6-1.8
	c-0.6,0.2-0.9-0.5-0.9-0.9c-0.6-5.6-3.6-11-1.3-16.8c1.4-3.3,3.2-6.4,6.2-9.8c-4.7,0.7-8.2-1.1-12.1-1.6c-5.6-0.6-9.6-4-12.1-9.1
	c-1.8-3.7-1.1-7.2,1.8-9.9c3.8-3.5,7.1-7.2,9.9-11.5c1.6-2.6,4.3-4.3,7.5-4.7c2.2-0.3,2.1-1.1,1.2-2.8c-5.5-10.7-6.6-22-3.9-33.6
	c1.5-6.6,4.3-12.7,8.7-18C64.4,385,65.3,384.6,65.3,383.5L65.3,383.5z"/>
<g>
	<path class="st1" d="M583.2,108.9c-0.9-3.8-1.8-6-5.5-5.7c1.5-2.4,3.8-4.3,1.4-7.9c3.5,1.4,6,1,7.9-2.3c0.9,2.9,1.2,5.3,4.2,5.6
		c0.9,0.1,1.5,1,0.6,1.6c-2.3,1.5-1.9,3.5-0.9,6.1C587.6,105.2,585,105.2,583.2,108.9z"/>
	<path class="st1" d="M522.6,122c-15.4-7.2-30.9-14.4-46.3-21.7c0.2-0.5,0.4-0.9,0.6-1.4c15.4,7.2,30.9,14.5,46.3,21.7
		C523.1,121.1,522.8,121.6,522.6,122z"/>
	<path class="st1" d="M473.9,96.8c-2.8,0.9-3.6,2.5-3.5,5.2c-2.2-2.2-4.3-2.2-6.6-0.9c0.2-2.4,0.4-4.6-2.8-5.8
		c2.5-1.1,3.9-2.5,3.9-5.3c2.1,2.3,4.1,2.2,6.3,1C471.6,93.3,470.5,95.9,473.9,96.8z"/>
	<path class="st1" d="M446.3,150.1c-0.5-2.3-0.3-4.9-4.6-4.5c2.8-2.1,3.9-3.6,2.7-6.5c2.6,1.4,4.8,1.7,6.6-1
		c0.5,2.8,0.8,5.1,4.5,5.2c-2.6,1.7-3.8,3.3-2.6,6.5C450.2,147.7,448.3,148.7,446.3,150.1z"/>
	<path class="st1" d="M516,55.9c-2.5-2.3-4.3-2.2-6.4-0.4c-0.6-1.9-0.1-4.1-2.5-4.8c-1.1-0.3-0.5-1.3,0.2-1.6
		c1.9-0.8,1.4-2.4,1.6-4.1c2.1,0.7,4.2,1.5,6-0.6c0.8,1.8,0.2,4.2,2.7,4.8c0.8,0.2,0.7,1.2,0.1,1.4C515.7,51.3,515.8,53.1,516,55.9z
		"/>
	<path class="st1" d="M427.1,119.7c0.4,2-1.4,3.4,0.2,4.8c1.4,1.2,0.9,1.9-0.8,1.9c-1.9,0.1-1.6,2.1-2.9,3.1
		c-1.4-1.8-3.1-2.8-5.9-1.7c0.9-2.6,1.3-4.8-1.4-6.8c3,0.1,4.3-1.2,5.2-3.7C423,119.8,424.8,120.7,427.1,119.7z"/>
	<path class="st1" d="M441.9,176.1c-2.7-1.6-4.7-1.6-6.6,0.6c-0.4-2.8-1-4.7-4.1-4.9c1.5-1.9,3.9-3,1.5-6.6c3.4,2.1,5.3,1.3,7.3-0.2
		c0.2,2.6,0.9,4.5,4.3,4.9C441.6,171.4,440.7,173.1,441.9,176.1z"/>
	<path class="st1" d="M405,136c-1.2,2.2-1.4,4.1,0.9,5.9c-2.3,0.7-4.5,1.2-4.5,4.7c-1.8-2.9-3.8-3.6-6.9-2.5
		c1.9-2.9,1.5-4.8-0.4-6.6c1.9-0.7,3.9-0.5,4.2-2.9c0.1-0.9,1.1-0.6,1.4-0.1C400.9,136.5,402.8,136,405,136z"/>
	<path class="st1" d="M526.1,127c0.3-1.8,2.2-2.8,0.9-4.8c-0.8-1.1-0.1-1.6,1.2-1.4c2,0.5,3-0.9,4.1-2.7c1.2,2.1,2.2,4.1,5.1,3.5
		c-0.4,2.1-2.9,3.9,0.9,6.1c-3.6-0.1-5.8,0.2-6.9,3.2C530.2,128.3,528.7,126.7,526.1,127z"/>
	<path class="st1" d="M545.3,87.5c2.5,1.8,4.5,1.5,6.5-0.2c0.2,2.5,0.2,4.7,3.6,5.5c-2.3,1.3-3.5,2.8-3,5.3
		c-2.3-1.1-4.3-1.7-6.7,1.1c0.4-3.6-0.5-5.3-3.3-6.2C544.6,91.9,546.1,90.5,545.3,87.5z"/>
	<path class="st1" d="M579.9,134.1c-2.9,1.2-4.4,2.3-3.9,5c-2.3-0.8-4.3-2.8-6.9,0.5c0.5-3.4,0.2-5.4-2.2-6.4
		c1.1-1.4,3.3-1.6,2.9-3.9c-0.1-0.7,0.7-1.3,1.2-0.8c1.7,1.8,3.5,0.4,5.5-0.1C576.5,131.1,576.2,133.4,579.9,134.1z"/>
	<path class="st1" d="M506.3,55.1c-11.3,11.1-22.5,22.3-33.8,33.4c-0.4-0.4-0.7-0.7-1.1-1.1C482.7,76.3,494,65.1,505.2,54
		C505.6,54.4,505.9,54.7,506.3,55.1z"/>
	<path class="st1" d="M541.1,84.6c-8-8.9-16.1-17.8-24.2-26.7c0.4-0.4,0.8-0.6,1.1-1c8.1,8.9,16.1,17.8,24.3,26.7
		C541.9,83.9,541.5,84.2,541.1,84.6z"/>
	<path class="st1" d="M430.5,118.2c9.6-6.8,19.3-13.6,28.9-20.3c0.3,0.4,0.6,0.8,0.9,1.2c-9.6,6.8-19.3,13.6-28.9,20.4
		C431.1,119.2,430.8,118.7,430.5,118.2z"/>
	<path class="st1" d="M464.6,105.1c-4.8,10.2-9.5,20.4-14.2,30.6c-0.5-0.2-0.9-0.4-1.4-0.6c4.8-10.2,9.5-20.4,14.2-30.6
		C463.6,104.7,464.1,104.8,464.6,105.1z"/>
	<path class="st1" d="M561.2,133.1c0.5,0.2,0.9,0.5,0.7,1.1s-0.8,0.6-1.2,0.5c-5.9-1.8-11.9-3.6-17.8-5.3c-0.5-0.2-0.9-0.5-0.6-1.1
		c0.2-0.6,0.7-0.5,1.2-0.4C549.3,129.6,555.3,131.4,561.2,133.1z"/>
	<path class="st1" d="M574.9,96.4c-6.5-1.7-13-3.4-19.6-5.1c0.1-0.4,0.2-0.8,0.3-1.2c6.6,1.2,13.2,2.9,19.7,4.9
		C575.2,95.4,575,95.9,574.9,96.4z"/>
	<path class="st1" d="M535.5,117.6c2.3-5.3,4.7-10.6,7-15.9c0.4,0.2,0.8,0.4,1.2,0.5c-1.6,5.6-4.7,10.6-6.8,16
		C536.4,118.1,535.9,117.9,535.5,117.6z"/>
	<path class="st1" d="M581.7,110.3c-0.6,4.8-2.9,8.9-4.4,14C576.4,121.3,579.1,113.2,581.7,110.3z"/>
	<path class="st1" d="M440.1,160.7c-0.4-3.1,1.4-5.3,2.4-7.9c0.1-0.2,0.6-0.5,0.9-0.4c0.5,0.1,0.8,0.6,0.5,1.2
		C442.7,156,442.2,158.7,440.1,160.7z"/>
	<path class="st1" d="M407.6,134.1c2-2.9,4.6-5.2,8-6.5C413.6,130.6,410.9,132.7,407.6,134.1z"/>
</g>
<g>
	<ellipse class="st1" cx="499.1" cy="480.9" rx="64.9" ry="0.8"/>
	<path class="st1" d="M448.9,479.1c-2.1,2.8-2.7,5.2-0.4,7.9c-3.5-0.4-5.9,0.3-7.2,3.8c-1.6-2.9-3.3-5-7.6-4.1
		c2.6-2.8,2.5-5.2,0.8-7.9c3.3,0.3,5.9-0.1,6.8-4.4C443.2,477.8,444.9,480,448.9,479.1z"/>
	<path class="st1" d="M407.2,541.6c-1.7-2.8-3.2-5.1-7.2-3c0.5-2.9,2.3-5,0.1-7c-0.6-0.5-0.2-1.6,0.6-1.5c3.2,0.5,4-2.1,5.4-4.3
		c1.6,2.6,3.3,5.2,7.9,2.5c-2.3,3.7-2.9,6,0.5,8.5C410.8,537.2,408,537.9,407.2,541.6z"/>
	<path class="st1" d="M293,553.5c3.5-1.3,5.1-3.3,3.9-7.3c3.2,2.2,5.8,3.1,8.9,0.1c-0.8,3.8,0.8,5.6,3.6,6.9
		c-2.2,1.4-4.6,2.3-3.8,5.2c0.1,0.1,0,0.3,0,0.4c-0.1,0.8-0.9,1.5-1.3,0.9c-2-3.2-6.2,1.6-7-1.5C296.5,555.9,295.4,554.9,293,553.5z
		"/>
	<path class="st1" d="M497.1,591.2c-4-0.9-5.7,1.1-6.8,4.1c-2.1-1.9-3.3-4.9-7.7-2.6c1.8-3.4,1.3-5.6-0.6-7.9
		c3.2-0.8,6.2-1.3,6.9-5.5c1.8,3.1,3.6,5,7.6,3.8C494.4,586.1,494.8,588.5,497.1,591.2z"/>
	<path class="st1" d="M322.2,482.9c-1.1-3.4-3.4-4.5-6.9-4.2c1.8-2.5,2.9-4.7,0-7.3c3.5-0.1,6.1-0.8,7.3-4.3
		c1.5,3.2,3.5,4.8,7.2,4.2c-1.8,2.6-3.1,4.9,0.1,7.6C326.6,479.3,323.5,479.3,322.2,482.9z"/>
	<path class="st1" d="M544.4,485.9c3.8-1.9,5.2-3.9,2.9-8.1c3.9,2.6,6.4,2,8.9-0.4c0.3,3.4,1.2,5.9,5.4,6.3c-3.3,1.9-4,4.3-3.4,7.3
		c-2.9-1.3-5.5-2.1-8,2.3C550.1,488.9,549,486.4,544.4,485.9z"/>
	<path class="st1" d="M453.2,541.5c3.1,1.8,5.6,1.8,8.1-1.5c0.2,3.7,1.1,6.3,4.8,6.5c-3.1,3.4-3.1,3.4-2.9,7.3
		c-2.6-1-5.3-1.7-7.6,1.9c-0.7-3.6-1.4-6.4-5.8-6.8C453.2,547,454,544.8,453.2,541.5z"/>
	<path class="st1" d="M369.1,489.6c1.5,2.7,2.8,5.3,7.1,3.5c-1.8,3.1-3.3,5.3,0,8.3c-4.1-0.5-6.3,0.8-7.6,4.2
		c-1.5-3-2.8-5.6-6.8-4.2c1.2-2.9,2.8-5.3,0.1-8C365.5,494.4,367.2,492.1,369.1,489.6z"/>
	<path class="st1" d="M359.3,532.7c-4.1,3-4.1,3-4.3,7.1c-2.6-0.2-5.2-3.4-7.9,0.6c0.1-3.4-1-5.5-3.9-6.8c2.8-1.6,4.8-3.3,3.4-7.3
		c3.2,1.8,5.8,2.9,8.4,0C355.3,529.3,354.9,532.2,359.3,532.7z"/>
	<path class="st1" d="M379.6,492.3c16.7-2.8,33.5-5.5,50.1-8.2c0.1,0.6,0.2,1.2,0.3,1.8c-16.7,2.8-33.5,5.5-50.1,8.3
		C379.8,493.4,379.7,492.8,379.6,492.3z"/>
	<path class="st1" d="M448.2,542.6c-10-1.8-19.7-5.2-29.1-9.2C429.2,535.4,438.8,538.6,448.2,542.6z"/>
	<path class="st1" d="M312.6,546.8c2.5-2.1,5.9-2.4,8.8-3.5c5.3-2,10.9-3.6,16.3-5.5c0.8-0.2,1.6-0.8,2.2,0.1
		c0.5,0.8-0.1,1.3-0.8,1.5c-8.7,2.9-17.4,5.8-26.1,8.7C312.9,547.6,312.8,547.2,312.6,546.8z"/>
	<path class="st1" d="M395.8,536.2c-10.7,0-21.5,0-32.2,0c0-0.3,0-0.6,0-0.9c10.7,0,21.5,0,32.2,0
		C395.8,535.5,395.8,535.8,395.8,536.2z"/>
	<path class="st1" d="M335.7,479.1c2.2-0.6,3.8,1,5.5,1.8c5.6,2.8,11.2,5.6,16.8,8.4c0.7,0.4,1.6,0.7,1.1,1.8
		c-0.3,0.5-0.9,0.4-1.5,0.2c-7.2-3.8-14.8-6.9-21.8-11.2C335.7,480,335.8,479.6,335.7,479.1z"/>
	<path class="st1" d="M468.8,558.1c2.4,1.6,3.5,4.3,5.1,6.6c3,4.2,5.8,8.6,8.7,12.9c0.5,0.7,1,1.4,0.2,2.1c-0.5,0.5-1,0.1-1.3-0.4
		c-4.6-6.8-9.2-13.6-13.8-20.3C468.1,558.7,468.4,558.4,468.8,558.1z"/>
	<path class="st1" d="M365.7,507.1c0.1,0.5,0.5,1.1,0.4,1.5c-1.8,6.5-3.7,12.9-5.6,19.3c-0.2,0.6-0.3,1.5-1.2,1.3
		c-0.9-0.2-0.8-0.9-0.6-1.6c2-6.9,4.1-13.7,6-20.6C365,507,365.4,507.1,365.7,507.1z"/>
</g>
<g>
	<path class="st1" d="M31.1,254.2c-1.6-4.6-4.8-5.9-9.3-5.5c2.7-3.6,3.8-6.8,0.3-10.6c4.2,0.3,7.6,0.4,8.8-4.8
		c2,4.1,4.2,6.6,9.3,5.3c-2.3,3.8-4.2,7.2-0.1,10.8C35.9,249.4,32.2,249.2,31.1,254.2z"/>
	<path class="st1" d="M142.1,239.4c1.4,4.2,4.3,5,8.5,4.9c-2.4,3.5-3.2,6.7,0.1,10.4c-3.8-0.5-6.6-0.7-7.8,2.8
		c-0.3,0.8-1.4,0.9-1.6,0.1c-1.1-3.7-4-4.3-8.1-3.8c2.9-3.7,3.4-6.8,0.4-10.4C137.7,244.1,140.6,243.4,142.1,239.4z"/>
	<path class="st1" d="M282.2,324.3c3-0.1,5.9,0.4,7.4-3.1c0.7-1.6,1.6-0.2,1.9,0.8c0.8,2.5,2.4,3.3,4.8,3.3c1.9-0.1,2.5,0.9,1.2,2.3
		c-2.4,2.6-1.1,4.9,0.3,7.8c-3.6-0.2-6.8,0.2-8.2,4.5c-1.8-3.1-3.1-6.1-7-5.5c-0.9,0.1-1.8-1.1-0.8-1.8
		C285.2,330,283.3,327.2,282.2,324.3z"/>
	<path class="st1" d="M223.6,310.7c4.9-0.1,6.4-2.5,6.6-6.8c2.9,3.6,6,4.7,10.6,1.7c-2.1,4.9-1.5,7.9,2.7,10.3
		c-4.3,0.8-6.6,2.7-6.5,7c-2.6-2.5-5-4.6-8.5-2.7c-1.1,0.6-1.6-0.5-1.2-1.4C228.9,315.4,226.5,313.4,223.6,310.7z"/>
	<path class="st1" d="M196.8,279c-0.3,3.1-1.7,6.2,1.8,8.2c1.1,0.6,0.6,1.7-0.4,1.8c-3.3,0.5-4.6,2.5-4.3,6.9
		c-3.2-3.7-6.3-4.8-10.5-2.5c1.5-4.3,1-7.4-2.7-9.6c2.6-1.5,6.2-1.4,6-5.4c-0.1-1.1,1.2-1.5,1.8-0.6
		C190.8,281.3,193.8,279.5,196.8,279z"/>
	<path class="st1" d="M88,289.3c-12.5-9.2-24.9-18.4-37.3-27.5c-2.5-1.9-5-3.8-7.5-5.6c-0.9-0.7-2.8-1.2-1.4-2.8
		c1.1-1.3,2.1,0.2,2.9,0.8c8.4,6.2,16.8,12.4,25.1,18.6c6.5,4.9,13,9.7,19.6,14.6c0.8,0.6,2.5,1.1,1.4,2.5
		C90,291,88.9,289.8,88,289.3z"/>
	<path class="st1" d="M113.3,295.2c-2.9,1.3-5.8,2.2-5.6,5.8c0,0.7-1,1.1-1.6,0.3c-2.2-3.1-5-1.5-8-0.8c0.6-3.5,0.9-6.9-4-8.7
		c4.2-1.1,6.4-3.1,6.4-7.7c2.5,3.1,4.8,4.5,7.9,2.6c0.9-0.5,1.9,0.1,1.5,1.2C108.8,291.3,110.4,293.4,113.3,295.2z"/>
	<path class="st1" d="M73.6,192.9c3.7,0.6,6.3-0.3,7.8-4.2c1.2,4.3,4.1,5.2,7.9,5c-2.2,3.1-3.1,5.9-0.6,9c-2.7,0.5-5.7-0.5-6.8,2.9
		c-0.4,1.1-1.5,0.9-1.8-0.2c-0.8-2.4-2.5-3.2-4.9-3.1c-1.2,0.1-2.3-0.6-1.2-1.7C76.4,198.2,74.9,195.8,73.6,192.9z"/>
	<path class="st1" d="M128.8,238c-10.4-8.9-20.6-17.7-30.7-26.5c-0.6-0.6-2.4-1.2-1-2.6c1.1-1.1,1.8,0,2.5,0.6
		c10.2,8.7,20.3,17.5,30.5,26.3c0.7,0.6,1.9,1.3,1,2.4C130.3,239.2,129.4,238.8,128.8,238z"/>
	<path class="st1" d="M38,235c-1.6-1.4-0.4-2.1,0.6-2.9c4.6-3.6,9.1-7.3,13.7-11c5.3-4.3,10.7-8.6,16.1-12.8
		c0.9-0.7,1.9-2.4,3.2-0.8c1.4,1.7-0.8,2.2-1.5,2.8c-9.7,7.9-19.6,15.7-29.4,23.5C39.9,234.4,39.3,235.4,38,235z"/>
	<path class="st1" d="M136.4,260.1c-7.9,7.9-15.4,15.4-23,23c-0.7,0.7-1.4,1.5-2.5,0.5c-1.2-1.3,0.2-1.7,0.8-2.3
		c7.5-7.5,14.9-15,22.4-22.4c0.6-0.6,1.3-1.9,2.4-0.9C137.4,258.7,137,259.7,136.4,260.1z"/>
	<path class="st1" d="M278.4,327.6c-0.6,0.9-1.6,0.5-2.3,0.4c-9.3-2.4-18.6-4.8-27.8-7.2c-1.1-0.3-2-0.8-1.6-2
		c0.4-1.1,1.4-0.8,2.2-0.6c9.4,2.5,18.8,5,28.2,7.5C278.1,325.8,279,326.3,278.4,327.6z"/>
	<path class="st1" d="M158,258.9c6.9,6.5,13.9,13.1,21,19.7c0.7,0.6,1.1,1.2,0.4,2.1c-1.1,1.4-1.8,0.2-2.4-0.4
		c-7-6.5-13.9-13-20.9-19.6c-0.7-0.7-1.8-1.4-0.9-2.5C156.1,257.2,156.9,258.2,158,258.9z"/>
	<path class="st1" d="M213.8,297.5c3.5,2.3,7.1,4.8,10.6,7.1c0.6,0.5,1.6,0.8,1.1,1.9c-0.6,1.3-1.5,0.9-2.5,0.4
		c-5.9-3.9-11.8-7.9-17.7-11.9c-0.8-0.5-1.4-1.1-0.8-2.1c0.8-1.4,1.7-0.4,2.5,0.1C209.2,294.6,211.5,296.1,213.8,297.5
		C213.7,297.6,213.7,297.6,213.8,297.5z"/>
</g>
</svg>
