<?xml version="1.0" encoding="utf-8"?>
<!-- Generator: Adobe Illustrator 22.0.0, SVG Export Plug-In . SVG Version: 6.00 Build 0)  -->
<svg version="1.1" id="Слой_1" xmlns="http://www.w3.org/2000/svg" xmlns:xlink="http://www.w3.org/1999/xlink" x="0px" y="0px"
	 viewBox="0 0 3841 1171.9" style="enable-background:new 0 0 3841 1171.9;" xml:space="preserve">
<style type="text/css">
	.st0{fill:#242124;}
	.st1{display:none;}
	.st2{display:inline;fill:url(#SVGID_1_);stroke:#FFFFFF;stroke-miterlimit:10;}
	.st3{display:inline;fill:url(#SVGID_2_);}
	.st4{fill:url(#SVGID_3_);}
	.st5{fill:url(#SVGID_4_);}
	.st6{fill:url(#SVGID_5_);}
	.st7{fill:url(#SVGID_6_);}
	.st8{fill:url(#SVGID_7_);}
	.st9{fill:url(#SVGID_8_);}
	.st10{fill:url(#SVGID_9_);}
	.st11{fill:url(#SVGID_10_);}
	.st12{fill:url(#SVGID_11_);}
	.st13{fill:url(#SVGID_12_);}
	.st14{fill:url(#SVGID_13_);}
	.st15{fill:url(#SVGID_14_);}
	.st16{fill:url(#SVGID_15_);}
	.st17{fill:url(#SVGID_16_);}
	.st18{fill:url(#SVGID_17_);}
	.st19{fill:url(#SVGID_18_);}
	.st20{fill:url(#SVGID_19_);}
	.st21{fill:url(#SVGID_20_);}
	.st22{fill:url(#SVGID_21_);}
	.st23{fill:url(#SVGID_22_);}
	.st24{fill:url(#SVGID_23_);}
	.st25{fill:url(#SVGID_24_);}
	.st26{fill:url(#SVGID_25_);}
	.st27{fill:url(#SVGID_26_);}
	.st28{fill:url(#SVGID_27_);}
	.st29{fill:url(#SVGID_28_);}
	.st30{fill:url(#SVGID_29_);}
	.st31{fill:url(#SVGID_30_);}
	.st32{fill:url(#SVGID_31_);}
	.st33{fill:url(#SVGID_32_);}
	.st34{fill:url(#SVGID_33_);}
	.st35{fill:url(#SVGID_34_);}
	.st36{fill:url(#SVGID_35_);}
	.st37{fill:url(#SVGID_36_);}
	.st38{fill:url(#SVGID_37_);}
	.st39{fill:url(#SVGID_38_);}
	.st40{fill:url(#SVGID_39_);}
	.st41{fill:url(#SVGID_40_);}
	.st42{fill:url(#SVGID_41_);}
	.st43{fill:url(#SVGID_42_);}
	.st44{fill:url(#SVGID_43_);}
	.st45{fill:url(#SVGID_44_);}
	.st46{fill:url(#SVGID_45_);}
	.st47{fill:url(#SVGID_46_);}
	.st48{fill:url(#SVGID_47_);}
	.st49{fill:url(#SVGID_48_);}
	.st50{fill:url(#SVGID_49_);}
	.st51{fill:url(#SVGID_50_);}
	.st52{fill:url(#SVGID_51_);}
	.st53{fill:url(#SVGID_52_);}
</style>
<g id="Слой_2_1_">
	<rect class="st0" width="3841" height="1171.9"/>
</g>
<g id="Слой_1_3_">
	<g id="Слой_2_2_" class="st1">
		<linearGradient id="SVGID_1_" gradientUnits="userSpaceOnUse" x1="0.5" y1="585.95" x2="3840.5" y2="585.95">
			<stop  offset="0" style="stop-color:#FFFFFF;stop-opacity:0.3"/>
			<stop  offset="1" style="stop-color:#F7F7F7;stop-opacity:0.3"/>
		</linearGradient>
		<rect x="0.5" y="0.5" class="st2" width="3840" height="1170.9"/>
	</g>
	<g id="Слой_1_2_">
		<g id="Слой_2_3_" class="st1">
			<linearGradient id="SVGID_2_" gradientUnits="userSpaceOnUse" x1="0.5" y1="623.7" x2="3840.5" y2="623.7">
				<stop  offset="0" style="stop-color:#FFFFFF;stop-opacity:0.3"/>
				<stop  offset="1" style="stop-color:#F7F7F7;stop-opacity:0.3"/>
			</linearGradient>
			<rect x="0.5" y="0.5" class="st3" width="3840" height="1246.4"/>
		</g>
		<g id="Слой_1_1_">
			<g>
				
					<linearGradient id="SVGID_3_" gradientUnits="userSpaceOnUse" x1="2011.1628" y1="871.6874" x2="2198.9873" y2="871.6874" gradientTransform="matrix(0.9966 -8.298796e-02 -8.298796e-02 -0.9966 78.8753 1525.8097)">
					<stop  offset="0" style="stop-color:#FFFFFF;stop-opacity:0.3"/>
					<stop  offset="1" style="stop-color:#F7F7F7;stop-opacity:0.3"/>
				</linearGradient>
				<path class="st4" d="M2196.8,507.6c-9.5-2.1-17.4-3.8-25.1-5.5c-51.8-12-103.7-24.2-155.4-36.1c-3.4-0.8-8.5-0.3-7.7-5.1
					c0.9-5.8,6.2-3.4,9.7-2.6c58.3,13.3,116.7,26.8,175,40.2c2.8,0.7,6.9,0.3,7.1,4.4C2200.5,505.9,2198.3,507.8,2196.8,507.6z"/>
				
					<linearGradient id="SVGID_4_" gradientUnits="userSpaceOnUse" x1="2468.7122" y1="940.6971" x2="2524.5122" y2="940.6971" gradientTransform="matrix(0.9966 -8.298796e-02 -8.298796e-02 -0.9966 78.8753 1525.8097)">
					<stop  offset="0" style="stop-color:#FFFFFF;stop-opacity:0.3"/>
					<stop  offset="1" style="stop-color:#F7F7F7;stop-opacity:0.3"/>
				</linearGradient>
				<path class="st5" d="M2486.7,350.7c6.6,14.1,14.9,17.9,28.2,14c-6.6,10.8-6.4,19.7,3,29.1c-13.9-1-21,5.6-25,17.6
					c-6-11.4-13.7-16.6-26.9-12.3c5.7-10.7,7.7-19.8-6-29.2C2476.4,371.3,2483.6,365.7,2486.7,350.7z"/>
				
					<linearGradient id="SVGID_5_" gradientUnits="userSpaceOnUse" x1="1947.7411" y1="926.502" x2="2001.7843" y2="926.502" gradientTransform="matrix(0.9966 -8.298796e-02 -8.298796e-02 -0.9966 78.8753 1525.8097)">
					<stop  offset="0" style="stop-color:#FFFFFF;stop-opacity:0.3"/>
					<stop  offset="1" style="stop-color:#F7F7F7;stop-opacity:0.3"/>
				</linearGradient>
				<path class="st6" d="M1998,451c-14.6-2.4-20.8,5-25.5,16.8c-6.3-10.5-13-17.8-28.2-10.4c8.1-12.5,7.2-21.4-2.2-30.9
					c14.3,1.8,20.7-5,24.9-17.1c6.5,10.4,13.7,16.9,27.6,12C1987,432.8,1989.1,441.5,1998,451z"/>
				
					<linearGradient id="SVGID_6_" gradientUnits="userSpaceOnUse" x1="2219.7412" y1="842.0575" x2="2274.3989" y2="842.0575" gradientTransform="matrix(0.9966 -8.298796e-02 -8.298796e-02 -0.9966 78.8753 1525.8097)">
					<stop  offset="0" style="stop-color:#FFFFFF;stop-opacity:0.3"/>
					<stop  offset="1" style="stop-color:#F7F7F7;stop-opacity:0.3"/>
				</linearGradient>
				<path class="st7" d="M2252.5,530.6c-7.7-12.2-15.1-18.5-30-11.2c8.7-12.8,8-21.7-1.9-30.7c12.6-0.6,22.8-2,23.4-19
					c7.9,11.9,15.6,18.1,28.9,13.1c-5.5,10.7-7.4,19.8,3.8,28.8C2263.8,511.9,2254.8,515.1,2252.5,530.6z"/>
				
					<linearGradient id="SVGID_7_" gradientUnits="userSpaceOnUse" x1="2581.2834" y1="1056.4178" x2="2636.8101" y2="1056.4178" gradientTransform="matrix(0.9966 -8.298796e-02 -8.298796e-02 -0.9966 78.8753 1525.8097)">
					<stop  offset="0" style="stop-color:#FFFFFF;stop-opacity:0.3"/>
					<stop  offset="1" style="stop-color:#F7F7F7;stop-opacity:0.3"/>
				</linearGradient>
				<path class="st8" d="M2575.5,231c9.7,7.1,19,9.8,29.6,1c-1.3,11.9,0.8,20.3,14,24.5c-12.1,5.4-19.5,12-16.3,25.8
					c-9.5-5-17-11-25.9-3.9c-1.6,1.3-5.8,0.1-4.4-2.2c6.7-11.6-14.1-16.8-8-22C2572.2,247.7,2575,241.5,2575.5,231z"/>
				
					<linearGradient id="SVGID_8_" gradientUnits="userSpaceOnUse" x1="2284.0559" y1="882.0347" x2="2450.0552" y2="882.0347" gradientTransform="matrix(0.9966 -8.298796e-02 -8.298796e-02 -0.9966 78.8753 1525.8097)">
					<stop  offset="0" style="stop-color:#FFFFFF;stop-opacity:0.3"/>
					<stop  offset="1" style="stop-color:#F7F7F7;stop-opacity:0.3"/>
				</linearGradient>
				<path class="st9" d="M2438.8,411.1c4-1.9,4.9,0.2,5.7,2.2c1.5,3.8-2.3,4.6-4.2,5.5c-11.9,5.9-24,11.3-36,17
					c-36.5,17.2-73,34.4-109.5,51.5c-3.2,1.5-7.4,5.8-10.1,0.2c-2.3-4.8,3.3-5.4,6.1-6.7c48-22.9,95.9-45.6,144-68.3
					C2436.4,411.7,2438.1,411.2,2438.8,411.1z"/>
				
					<linearGradient id="SVGID_9_" gradientUnits="userSpaceOnUse" x1="2525.1675" y1="995.7125" x2="2572.8604" y2="995.7125" gradientTransform="matrix(0.9966 -8.298796e-02 -8.298796e-02 -0.9966 78.8753 1525.8097)">
					<stop  offset="0" style="stop-color:#FFFFFF;stop-opacity:0.3"/>
					<stop  offset="1" style="stop-color:#F7F7F7;stop-opacity:0.3"/>
				</linearGradient>
				<path class="st10" d="M2553.8,292.4c0.9,0.4,2.2,0.8,3,1.6c2,1.7,1.8,3.7,0.3,5.8c-11.6,16.3-23.1,32.7-34.5,49.1
					c-1.3,2-3.3,3.3-5.6,2.3c-2.5-1.1-2.8-3.3-1.4-5.4c11.8-17.2,23.7-34.4,35.6-51.5C2551.8,293.6,2552.8,293.2,2553.8,292.4z"/>
			</g>
			<g>
				
					<linearGradient id="SVGID_10_" gradientUnits="userSpaceOnUse" x1="3286" y1="1086.75" x2="3347.3999" y2="1086.75" gradientTransform="matrix(1 0 0 -1 0 1339)">
					<stop  offset="0" style="stop-color:#FFFFFF;stop-opacity:0.3"/>
					<stop  offset="1" style="stop-color:#F7F7F7;stop-opacity:0.3"/>
				</linearGradient>
				<path class="st11" d="M3327.7,223.6c0.7,13.3,4.4,22.2,19.7,23.1c-9.4,7.8-17.4,14.6-8,29.5c-14.6-7.2-24.7-7-33,4.7
					c-0.4-13.9-5.5-22-20.4-23.6c9.5-6.8,15.7-12.9,11.5-23.5c-1.1-2.6,1.9-4,3.7-2.9C3311.3,237.2,3318.7,231,3327.7,223.6z"/>
				
					<linearGradient id="SVGID_11_" gradientUnits="userSpaceOnUse" x1="3526.3938" y1="1117.45" x2="3580.6521" y2="1117.45" gradientTransform="matrix(1 0 0 -1 0 1339)">
					<stop  offset="0" style="stop-color:#FFFFFF;stop-opacity:0.3"/>
					<stop  offset="1" style="stop-color:#F7F7F7;stop-opacity:0.3"/>
				</linearGradient>
				<path class="st12" d="M3580.7,207.1c-6.6,14.7-6.6,14.7-1.4,30.2c-10.5,0.2-22.3-1.6-23.7,16.9c-8.1-11.8-12.4-23.1-29.1-16.7
					c7.8-11.3,11.2-20.4,0.7-30.6c13-0.1,24.2,0.1,26.4-18C3560.4,202.5,3565.5,212.3,3580.7,207.1z"/>
				
					<linearGradient id="SVGID_12_" gradientUnits="userSpaceOnUse" x1="3684.4004" y1="906.5103" x2="3744.8" y2="906.5103" gradientTransform="matrix(1 0 0 -1 0 1339)">
					<stop  offset="0" style="stop-color:#FFFFFF;stop-opacity:0.3"/>
					<stop  offset="1" style="stop-color:#F7F7F7;stop-opacity:0.3"/>
				</linearGradient>
				<path class="st13" d="M3744.8,427.9c-7.9,6.9-18.9,12.5-6.7,27.8c-13.1-4.4-22.4-8.3-29.9,1.8c-2.1,2.9-5.1,0.6-4.9-2.1
					c1.1-12.5-8.5-15.2-18.9-19.2c13-5.9,13.8-15.4,10.3-27.3c9.8,4.7,18.1,7.8,25.7-0.7c3.3-3.7,6.8-2.1,6.3,2.2
					C3725.4,423.6,3736.1,423.9,3744.8,427.9z"/>
				
					<linearGradient id="SVGID_13_" gradientUnits="userSpaceOnUse" x1="3051.8" y1="1187.15" x2="3108.5999" y2="1187.15" gradientTransform="matrix(1 0 0 -1 0 1339)">
					<stop  offset="0" style="stop-color:#FFFFFF;stop-opacity:0.3"/>
					<stop  offset="1" style="stop-color:#F7F7F7;stop-opacity:0.3"/>
				</linearGradient>
				<path class="st14" d="M3051.8,142.6c15.1,1.8,18.9-7.6,21.9-21.1c7.4,11.7,15.7,18.1,30.2,10.7c-4.9,12.2-8.7,21.9,4.7,29
					c-12.7,1.9-21.8,6-22.5,21c-8.9-8.5-15.8-18.4-31.6-7.5C3061.4,160.6,3061.3,151.2,3051.8,142.6z"/>
				
					<linearGradient id="SVGID_14_" gradientUnits="userSpaceOnUse" x1="3227.2998" y1="1239.3" x2="3289.8999" y2="1239.3" gradientTransform="matrix(1 0 0 -1 0 1339)">
					<stop  offset="0" style="stop-color:#FFFFFF;stop-opacity:0.3"/>
					<stop  offset="1" style="stop-color:#F7F7F7;stop-opacity:0.3"/>
				</linearGradient>
				<path class="st15" d="M3269.5,71.5c0.1,13.5,5,21.3,20.4,22.2c-9.5,8.2-18.4,14.6-8.2,28.8c-13.8-4.4-24.4-8.8-32.1,5.4
					c-1.7-13.5-6.9-22.2-22.3-23.9c12.5-6.9,17.1-14.5,9.8-29.1C3250.7,82.9,3260.7,82.3,3269.5,71.5z"/>
				
					<linearGradient id="SVGID_15_" gradientUnits="userSpaceOnUse" x1="3579.8" y1="1015.75" x2="3687.8" y2="1015.75" gradientTransform="matrix(1 0 0 -1 0 1339)">
					<stop  offset="0" style="stop-color:#FFFFFF;stop-opacity:0.3"/>
					<stop  offset="1" style="stop-color:#F7F7F7;stop-opacity:0.3"/>
				</linearGradient>
				<path class="st16" d="M3684,398.2c-34.7-49-69.5-98.1-104.2-147.1c1.3-0.9,2.6-1.9,3.9-2.8c34.7,49,69.4,98.1,104.1,147.1
					C3686.5,396.3,3685.3,397.3,3684,398.2z"/>
				
					<linearGradient id="SVGID_16_" gradientUnits="userSpaceOnUse" x1="3363.2002" y1="1109.05" x2="3522.6001" y2="1109.05" gradientTransform="matrix(1 0 0 -1 0 1339)">
					<stop  offset="0" style="stop-color:#FFFFFF;stop-opacity:0.3"/>
					<stop  offset="1" style="stop-color:#F7F7F7;stop-opacity:0.3"/>
				</linearGradient>
				<path class="st17" d="M3522.6,221.1c-52.9,7.5-105.8,15.1-158.7,22.6c-0.2-1.6-0.5-3.1-0.7-4.7c52.9-7.6,105.8-15.2,158.7-22.8
					C3522.2,217.8,3522.4,219.4,3522.6,221.1z"/>
				
					<linearGradient id="SVGID_17_" gradientUnits="userSpaceOnUse" x1="3117.7" y1="1207.55" x2="3234.3" y2="1207.55" gradientTransform="matrix(1 0 0 -1 0 1339)">
					<stop  offset="0" style="stop-color:#FFFFFF;stop-opacity:0.3"/>
					<stop  offset="1" style="stop-color:#F7F7F7;stop-opacity:0.3"/>
				</linearGradient>
				<path class="st18" d="M3234.3,118.1c-38.4,10.4-76.9,20.9-115.3,31.3c-0.4-1.5-0.9-3.1-1.3-4.6c38.4-10.4,76.9-20.9,115.3-31.3
					C3233.5,115,3233.9,116.6,3234.3,118.1z"/>
				
					<linearGradient id="SVGID_18_" gradientUnits="userSpaceOnUse" x1="3271.3999" y1="1159.95" x2="3311.6594" y2="1159.95" gradientTransform="matrix(1 0 0 -1 0 1339)">
					<stop  offset="0" style="stop-color:#FFFFFF;stop-opacity:0.3"/>
					<stop  offset="1" style="stop-color:#F7F7F7;stop-opacity:0.3"/>
				</linearGradient>
				<path class="st19" d="M3276.2,133.3c11.8,29.9,23.7,59.9,35.5,89.8c-1.4,0.6-2.8,1.1-4.3,1.7c-12-29.9-24-59.9-36-89.8
					C3273,134.4,3274.6,133.9,3276.2,133.3z"/>
			</g>
			<g>
				
					<linearGradient id="SVGID_19_" gradientUnits="userSpaceOnUse" x1="1020.0532" y1="1087.8816" x2="1336.5537" y2="1087.8816" gradientTransform="matrix(0.7786 0.6275 0.6275 -0.7786 -329.3548 435.6462)">
					<stop  offset="0" style="stop-color:#FFFFFF;stop-opacity:0.3"/>
					<stop  offset="1" style="stop-color:#F7F7F7;stop-opacity:0.3"/>
				</linearGradient>
				<path class="st20" d="M1132.2,249.6c0.8-1.6,1.1-3.6,2.3-4.7c4.5-4,7.7,0.2,11.1,2.1c23.9,14.4,47.6,28.9,71.4,43.3
					c60,36.3,120.2,72.6,179.9,109.2c4.1,2.5,14.6,3.4,9.8,11.7c-4.7,8.3-10.6,0.3-15-2.4c-81.4-48.9-162.7-98.1-243.8-147.3
					C1142.4,258.3,1137.6,253.8,1132.2,249.6z"/>
				
					<linearGradient id="SVGID_20_" gradientUnits="userSpaceOnUse" x1="945.0584" y1="1055.7937" x2="1002.7103" y2="1055.7937" gradientTransform="matrix(0.7786 0.6275 0.6275 -0.7786 -329.3548 435.6462)">
					<stop  offset="0" style="stop-color:#FFFFFF;stop-opacity:0.3"/>
					<stop  offset="1" style="stop-color:#F7F7F7;stop-opacity:0.3"/>
				</linearGradient>
				<path class="st21" d="M1076.9,196.8c5.1,2.1,6.9,3.5,8.4,3.3c19.8-3.6,29.6,8.8,37.2,25.5c-3.7,4.5-13.5,7.4-11.3,18.2
					c0.9,4.3-3.6,4.7-5.9,2.9c-8.7-6.2-15.9-0.6-24.6,2.6c-3.7-9.5-0.2-23.4-19.5-24.2C1073.5,217.1,1081.5,211,1076.9,196.8z"/>
				
					<linearGradient id="SVGID_21_" gradientUnits="userSpaceOnUse" x1="998.9045" y1="826.5458" x2="1056.6328" y2="826.5458" gradientTransform="matrix(0.7786 0.6275 0.6275 -0.7786 -329.3548 435.6462)">
					<stop  offset="0" style="stop-color:#FFFFFF;stop-opacity:0.3"/>
					<stop  offset="1" style="stop-color:#F7F7F7;stop-opacity:0.3"/>
				</linearGradient>
				<path class="st22" d="M1011.6,455.6c-14.1-5.9-21.2,2.8-30.2,10.6c-3-12.7-8.8-21-21.2-19.5c-0.3-2.5-0.6-3.4-0.4-3.5
					c10.2-6.4,2.9-24.3,8.4-24.9c10.4-1.3,18.5-3,24.8-14.2c4.5,13.2,9.7,22.4,24.6,21.5C1010.8,435.2,1003.7,443.2,1011.6,455.6z"
					/>
				
					<linearGradient id="SVGID_22_" gradientUnits="userSpaceOnUse" x1="757.0546" y1="936.6142" x2="815.8918" y2="936.6142" gradientTransform="matrix(0.7786 0.6275 0.6275 -0.7786 -329.3548 435.6462)">
					<stop  offset="0" style="stop-color:#FFFFFF;stop-opacity:0.3"/>
					<stop  offset="1" style="stop-color:#F7F7F7;stop-opacity:0.3"/>
				</linearGradient>
				<path class="st23" d="M846,183.7c13.7,5.6,23.6-25.5,36.9-2.3c29.8-1.7-6.1,27.5,16.1,30.3c-12.7,0.7-20.6,5.9-25.2,18.6
					c-5.3-13-13.6-17.6-26.9-14.6C849.5,204.4,856.4,194,846,183.7z"/>
				
					<linearGradient id="SVGID_23_" gradientUnits="userSpaceOnUse" x1="982.5313" y1="934.59" x2="1027.6089" y2="934.59" gradientTransform="matrix(0.7786 0.6275 0.6275 -0.7786 -329.3548 435.6462)">
					<stop  offset="0" style="stop-color:#FFFFFF;stop-opacity:0.3"/>
					<stop  offset="1" style="stop-color:#F7F7F7;stop-opacity:0.3"/>
				</linearGradient>
				<path class="st24" d="M1012.9,407.6c-2.5-1-5.1-1.4-6.8-2.8c-4.2-3.2-0.3-6.2,1-9.1c11.9-25.8,23.9-51.6,35.8-77.5
					c6.6-14.3,13.1-28.6,19.6-42.9c1.6-3.4,3.3-6.8,8-4.6c4.3,2,4.2,5,2.5,8.9c-19,41.2-37.8,82.4-56.8,123.7
					C1015.6,404.8,1014.3,406,1012.9,407.6z"/>
				
					<linearGradient id="SVGID_24_" gradientUnits="userSpaceOnUse" x1="1345.7009" y1="1113.6644" x2="1405.0535" y2="1113.6644" gradientTransform="matrix(0.7786 0.6275 0.6275 -0.7786 -329.3548 435.6462)">
					<stop  offset="0" style="stop-color:#FFFFFF;stop-opacity:0.3"/>
					<stop  offset="1" style="stop-color:#F7F7F7;stop-opacity:0.3"/>
				</linearGradient>
				<path class="st25" d="M1473.9,433.6c-14.4,6-18.9,13.7-17,24.9c-9-0.1-16-9.5-24.5-1.8c-4,3.6-8.8,1.7-8.1-4.2
					c1.2-10.9-8.9-13.1-14.6-20c10.8-4.3,15.5-12,12.8-25.9c11.8,8.3,21.6,9.5,33.2-0.4C1454.3,420,1457,429.4,1473.9,433.6z"/>
				
					<linearGradient id="SVGID_25_" gradientUnits="userSpaceOnUse" x1="622.2512" y1="834.938" x2="682.0612" y2="834.938" gradientTransform="matrix(0.7786 0.6275 0.6275 -0.7786 -329.3548 435.6462)">
					<stop  offset="0" style="stop-color:#FFFFFF;stop-opacity:0.3"/>
					<stop  offset="1" style="stop-color:#F7F7F7;stop-opacity:0.3"/>
				</linearGradient>
				<path class="st26" d="M728.7,177.2c-8,11.7-5.7,20.5,1.4,30.8c-12.5-0.2-22.8,0.7-24.6,16.3c-10.2-7.9-14.2-22.2-30-12.3
					c3-13.1,11.7-22.8-1.1-30.2c3-2.3,4.2-3.8,4.8-3.6c12.8,4.7,16.8-15.3,24.2-11.6C711.1,170.6,714.8,182.2,728.7,177.2z"/>
				
					<linearGradient id="SVGID_26_" gradientUnits="userSpaceOnUse" x1="812.2087" y1="1002.1255" x2="942.5011" y2="1002.1255" gradientTransform="matrix(0.7786 0.6275 0.6275 -0.7786 -329.3548 435.6462)">
					<stop  offset="0" style="stop-color:#FFFFFF;stop-opacity:0.3"/>
					<stop  offset="1" style="stop-color:#F7F7F7;stop-opacity:0.3"/>
				</linearGradient>
				<path class="st27" d="M907.8,197.9c0.1-7.6,5.7-6.4,10.4-5.9c43.8,5.6,87.6,11.4,131.4,17c3.8,0.5,7.6,1,7.6,5.7
					c-0.1,6.5-5.4,5.7-9.3,5.2c-23.4-3-46.8-6.1-70.2-9.2c-19.8-2.6-39.6-5.1-59.3-7.6C914.1,202.6,909.4,203.5,907.8,197.9z"/>
				
					<linearGradient id="SVGID_27_" gradientUnits="userSpaceOnUse" x1="676.9385" y1="888.546" x2="758.7099" y2="888.546" gradientTransform="matrix(0.7786 0.6275 0.6275 -0.7786 -329.3548 435.6462)">
					<stop  offset="0" style="stop-color:#FFFFFF;stop-opacity:0.3"/>
					<stop  offset="1" style="stop-color:#F7F7F7;stop-opacity:0.3"/>
				</linearGradient>
				<path class="st28" d="M827.3,199.6c-26.9,0.1-55.3,0.3-83.7,0.4c-3.8,0-7.4-0.3-7.4-5.5c0.1-4.9,3.7-5.7,7.5-5.6
					c28.9-0.2,57.9-0.3,86.9-0.4c3.8,0,7.7,0.6,7.5,5.5C837.9,200.4,832.4,198.7,827.3,199.6z"/>
			</g>
			<g>
				
					<linearGradient id="SVGID_28_" gradientUnits="userSpaceOnUse" x1="1520.1099" y1="368.1871" x2="1578.0458" y2="368.1871" gradientTransform="matrix(0.9979 -6.485399e-02 -6.485399e-02 -0.9979 22.8205 1444.2092)">
					<stop  offset="0" style="stop-color:#FFFFFF;stop-opacity:0.3"/>
					<stop  offset="1" style="stop-color:#F7F7F7;stop-opacity:0.3"/>
				</linearGradient>
				<path class="st29" d="M1547.8,945.8c4.3,12.6,10.2,20.2,25.2,17c-7,10.1-12.8,18.8,0.2,30.6c-16-3-25.8-0.1-30.5,13.4
					c-4.1-13.3-11.2-19.7-26.1-17.2c7.3-9.1,11.6-16.7,4.7-25.7c-1.7-2.2,0.7-4.4,2.8-3.8C1535.6,963.5,1541.1,955.5,1547.8,945.8z"
					/>
				
					<linearGradient id="SVGID_29_" gradientUnits="userSpaceOnUse" x1="1745.8088" y1="447.2427" x2="1803.0066" y2="447.2427" gradientTransform="matrix(0.9979 -6.485399e-02 -6.485399e-02 -0.9979 22.8205 1444.2092)">
					<stop  offset="0" style="stop-color:#FFFFFF;stop-opacity:0.3"/>
					<stop  offset="1" style="stop-color:#F7F7F7;stop-opacity:0.3"/>
				</linearGradient>
				<path class="st30" d="M1787,861.8c-2.4,15.9-2.4,15.9,6.7,29.4c-10,3.1-22,4.5-18.3,22.7c-10.9-9.2-18.2-19-32.5-8.2
					c4.5-12.9,5.3-22.6-7.5-29.6c12.5-3.6,23.3-6.3,20.6-24.5C1766.2,862.9,1773.8,870.9,1787,861.8z"/>
				
					<linearGradient id="SVGID_30_" gradientUnits="userSpaceOnUse" x1="1947.0146" y1="273.996" x2="2004.3596" y2="273.996" gradientTransform="matrix(0.9979 -6.485399e-02 -6.485399e-02 -0.9979 22.8205 1444.2092)">
					<stop  offset="0" style="stop-color:#FFFFFF;stop-opacity:0.3"/>
					<stop  offset="1" style="stop-color:#F7F7F7;stop-opacity:0.3"/>
				</linearGradient>
				<path class="st31" d="M2004.6,1030.3c-5.8,8.8-14.8,17.1,1,28.5c-13.8-0.7-23.8-2-28.2,9.8c-1.3,3.3-4.8,1.9-5.3-0.8
					c-2.3-12.4-12.2-12.4-23.4-13.4c10.9-9.1,9.2-18.5,2.6-29c10.7,1.9,19.5,2.6,24.6-7.6c2.2-4.5,6-3.9,6.6,0.5
					C1984.7,1031.4,1995.1,1028.8,2004.6,1030.3z"/>
				
					<linearGradient id="SVGID_31_" gradientUnits="userSpaceOnUse" x1="1267.4314" y1="417.4879" x2="1326.7968" y2="417.4879" gradientTransform="matrix(0.9979 -6.485399e-02 -6.485399e-02 -0.9979 22.8205 1444.2092)">
					<stop  offset="0" style="stop-color:#FFFFFF;stop-opacity:0.3"/>
					<stop  offset="1" style="stop-color:#F7F7F7;stop-opacity:0.3"/>
				</linearGradient>
				<path class="st32" d="M1260.3,942.1c15-2.3,16.1-12.4,15.3-26.2c10.2,9.4,20,13.2,31.9,2.2c-1.5,13-2.5,23.4,12.4,26.7
					c-11.7,5.2-19.4,11.6-16,26.3c-10.9-5.8-20.1-13.4-32.5,1.3C1274.4,956.8,1271.7,947.9,1260.3,942.1z"/>
				
					<linearGradient id="SVGID_32_" gradientUnits="userSpaceOnUse" x1="1431.1973" y1="505.7178" x2="1490.3226" y2="505.7178" gradientTransform="matrix(0.9979 -6.485399e-02 -6.485399e-02 -0.9979 22.8205 1444.2092)">
					<stop  offset="0" style="stop-color:#FFFFFF;stop-opacity:0.3"/>
					<stop  offset="1" style="stop-color:#F7F7F7;stop-opacity:0.3"/>
				</linearGradient>
				<path class="st33" d="M1450.8,814.9c3.8,13,10.6,19.2,25.6,15.9c-6.9,10.5-13.8,19-0.2,30c-14.5-0.5-25.9-1.9-29.5,13.8
					c-5.3-12.5-12.6-19.5-28-17c10.2-10,12.5-18.7,1.6-30.7C1435.8,831.1,1445.3,827.8,1450.8,814.9z"/>
				
					<linearGradient id="SVGID_33_" gradientUnits="userSpaceOnUse" x1="1806.3418" y1="364.0293" x2="1941.8129" y2="364.0293" gradientTransform="matrix(0.9979 -6.485399e-02 -6.485399e-02 -0.9979 22.8205 1444.2092)">
					<stop  offset="0" style="stop-color:#FFFFFF;stop-opacity:0.3"/>
					<stop  offset="1" style="stop-color:#F7F7F7;stop-opacity:0.3"/>
				</linearGradient>
				<path class="st34" d="M1937.9,1018.1c-46.7-37.9-93.3-75.7-140-113.7c1-1.3,2-2.5,3-3.7c46.7,37.9,93.3,75.7,139.9,113.6
					C1939.9,1015.7,1939,1016.8,1937.9,1018.1z"/>
				
					<linearGradient id="SVGID_34_" gradientUnits="userSpaceOnUse" x1="1592.0533" y1="415.8462" x2="1744.3438" y2="415.8462" gradientTransform="matrix(0.9979 -6.485399e-02 -6.485399e-02 -0.9979 22.8205 1444.2092)">
					<stop  offset="0" style="stop-color:#FFFFFF;stop-opacity:0.3"/>
					<stop  offset="1" style="stop-color:#F7F7F7;stop-opacity:0.3"/>
				</linearGradient>
				<path class="st35" d="M1734.9,891c-48.9,21.5-97.8,43-146.8,64.6c-0.6-1.5-1.3-2.9-1.9-4.4c48.9-21.5,97.8-43.1,146.7-64.7
					C1733.6,888,1734.2,889.4,1734.9,891z"/>
				
					<linearGradient id="SVGID_35_" gradientUnits="userSpaceOnUse" x1="1332.4078" y1="457.2865" x2="1440.9891" y2="457.2865" gradientTransform="matrix(0.9979 -6.485399e-02 -6.485399e-02 -0.9979 22.8205 1444.2092)">
					<stop  offset="0" style="stop-color:#FFFFFF;stop-opacity:0.3"/>
					<stop  offset="1" style="stop-color:#F7F7F7;stop-opacity:0.3"/>
				</linearGradient>
				<path class="st36" d="M1429.5,869.4c-34.3,20.4-68.4,40.8-102.6,61.2c-0.8-1.4-1.7-2.8-2.5-4.1c34.3-20.4,68.4-40.8,102.6-61.2
					C1427.8,866.6,1428.6,868,1429.5,869.4z"/>
				
					<linearGradient id="SVGID_36_" gradientUnits="userSpaceOnUse" x1="1480.7955" y1="434.5595" x2="1538.3618" y2="434.5595" gradientTransform="matrix(0.9979 -6.485399e-02 -6.485399e-02 -0.9979 22.8205 1444.2092)">
					<stop  offset="0" style="stop-color:#FFFFFF;stop-opacity:0.3"/>
					<stop  offset="1" style="stop-color:#F7F7F7;stop-opacity:0.3"/>
				</linearGradient>
				<path class="st37" d="M1473.8,872.8c19.5,25.7,38.9,51.3,58.4,77c-1.2,0.9-2.5,1.9-3.6,2.7c-19.6-25.6-39.2-51.2-58.8-76.8
					C1471.2,874.7,1472.5,873.8,1473.8,872.8z"/>
			</g>
			<g>
				
					<linearGradient id="SVGID_37_" gradientUnits="userSpaceOnUse" x1="3133.0186" y1="460.0084" x2="3428.6853" y2="460.0084" gradientTransform="matrix(0.9392 -0.3433 -0.3433 -0.9392 299.5517 2335.8379)">
					<stop  offset="0" style="stop-color:#FFFFFF;stop-opacity:0.3"/>
					<stop  offset="1" style="stop-color:#F7F7F7;stop-opacity:0.3"/>
				</linearGradient>
				<path class="st38" d="M3063.9,772.8c-0.1-1.8-0.7-3.7-0.1-5.3c2.1-5.7,6.9-3.5,10.8-3.3c27.8,1.4,55.5,2.8,83.4,4.2
					c70.1,3.6,140.2,6.9,210.2,10.9c4.8,0.3,14.5-3.9,14.2,5.8c-0.2,9.6-9.2,5.3-14.4,5.1c-94.8-4.5-189.7-9.2-284.6-14.2
					C3077,775.6,3070.6,773.9,3063.9,772.8z"/>
				
					<linearGradient id="SVGID_38_" gradientUnits="userSpaceOnUse" x1="3059.0764" y1="537.5314" x2="3119.9993" y2="537.5314" gradientTransform="matrix(0.9392 -0.3433 -0.3433 -0.9392 299.5517 2335.8379)">
					<stop  offset="0" style="stop-color:#FFFFFF;stop-opacity:0.3"/>
					<stop  offset="1" style="stop-color:#F7F7F7;stop-opacity:0.3"/>
				</linearGradient>
				<path class="st39" d="M2990.2,752.5c5.4-0.6,7.8-0.2,9-1.1c15.8-12.5,30.3-6.2,45,4.8c-1.2,5.7-8.5,12.9-1.3,21.4
					c2.8,3.3-1,5.8-3.9,5.5c-10.6-1.4-14.4,7-20.4,14.1c-7.7-6.5-11.2-20.5-28.7-12.1C2996.8,772.1,3001,762.9,2990.2,752.5z"/>
				
					<linearGradient id="SVGID_39_" gradientUnits="userSpaceOnUse" x1="2990.1128" y1="314.626" x2="3044.9531" y2="314.626" gradientTransform="matrix(0.9392 -0.3433 -0.3433 -0.9392 299.5517 2335.8379)">
					<stop  offset="0" style="stop-color:#FFFFFF;stop-opacity:0.3"/>
					<stop  offset="1" style="stop-color:#F7F7F7;stop-opacity:0.3"/>
				</linearGradient>
				<path class="st40" d="M3055.4,1011.4c-15.3,1.5-17.3,12.6-21.6,23.7c-8.6-9.8-17.7-14.3-27.9-7.2c-1.4-2.1-2.1-2.8-1.9-2.9
					c6-10.5-9-22.7-4.4-26c8.6-6,14.8-11.4,15.2-24.3c10.3,9.4,19.2,15.1,31.9,7.3C3044.9,993.8,3042.5,1004.3,3055.4,1011.4z"/>
				
					<linearGradient id="SVGID_40_" gradientUnits="userSpaceOnUse" x1="2840.2634" y1="529.6" x2="2896.6836" y2="529.6" gradientTransform="matrix(0.9392 -0.3433 -0.3433 -0.9392 299.5517 2335.8379)">
					<stop  offset="0" style="stop-color:#FFFFFF;stop-opacity:0.3"/>
					<stop  offset="1" style="stop-color:#F7F7F7;stop-opacity:0.3"/>
				</linearGradient>
				<path class="st41" d="M2780.7,850.5c14.8-1.6,8.8-33.7,31.4-19.5c25.4-15.7,7.7,27.1,28.6,19c-10.9,6.5-15.3,15-13.4,28.3
					c-10.9-9-20.3-9.1-30.6-0.1C2793.5,867.1,2794.7,854.6,2780.7,850.5z"/>
				
					<linearGradient id="SVGID_41_" gradientUnits="userSpaceOnUse" x1="3027.9084" y1="417.5759" x2="3079.2439" y2="417.5759" gradientTransform="matrix(0.9392 -0.3433 -0.3433 -0.9392 299.5517 2335.8379)">
					<stop  offset="0" style="stop-color:#FFFFFF;stop-opacity:0.3"/>
					<stop  offset="1" style="stop-color:#F7F7F7;stop-opacity:0.3"/>
				</linearGradient>
				<path class="st42" d="M3033.8,968.5c-2.6,0.3-5.1,1.1-7.4,0.8c-5.2-0.9-3.2-5.3-3.4-8.4c-1.8-28.4-3.4-56.8-5.2-85.2
					c-1-15.7-2-31.4-3.1-47.1c-0.2-3.8-0.3-7.6,4.9-7.9c4.7-0.3,6.1,2.4,6.4,6.6c2.8,45.3,5.8,90.5,8.6,135.8
					C3034.8,964.8,3034.2,966.4,3033.8,968.5z"/>
				
					<linearGradient id="SVGID_42_" gradientUnits="userSpaceOnUse" x1="3433.6633" y1="382.3943" x2="3497.3281" y2="382.3943" gradientTransform="matrix(0.9392 -0.3433 -0.3433 -0.9392 299.5517 2335.8379)">
					<stop  offset="0" style="stop-color:#FFFFFF;stop-opacity:0.3"/>
					<stop  offset="1" style="stop-color:#F7F7F7;stop-opacity:0.3"/>
				</linearGradient>
				<path class="st43" d="M3451.9,772.9c-9.8,12.1-10.1,20.9-3.1,30c-7.9,4.2-18.5-0.9-22.4,10c-1.8,5-7,5.5-9.2,0.2
					c-4.2-10.2-14-7.3-22.3-10.7c7.4-8.8,7.9-17.9-1-28.9c14.3,1.6,23.6-1.9,29-16.1C3428.3,770.2,3435,777.1,3451.9,772.9z"/>
				
					<linearGradient id="SVGID_43_" gradientUnits="userSpaceOnUse" x1="2670.156" y1="511.7021" x2="2728.9587" y2="511.7021" gradientTransform="matrix(0.9392 -0.3433 -0.3433 -0.9392 299.5517 2335.8379)">
					<stop  offset="0" style="stop-color:#FFFFFF;stop-opacity:0.3"/>
					<stop  offset="1" style="stop-color:#F7F7F7;stop-opacity:0.3"/>
				</linearGradient>
				<path class="st44" d="M2674.3,900.3c-1.6,14.1,4.7,20.7,15.8,26.4c-11,5.7-19.8,11.5-13.8,25.9c-12.8-2-23-12.8-32.3,3.4
					c-3.6-13-0.5-25.6-15.3-26c1.6-3.5,1.9-5.3,2.5-5.4c13.5-1.9,7.6-21.4,15.8-21.7C2655.6,902.9,2664.3,911.5,2674.3,900.3z"/>
				
					<linearGradient id="SVGID_44_" gradientUnits="userSpaceOnUse" x1="2903.2986" y1="540.7114" x2="3053.7954" y2="540.7114" gradientTransform="matrix(0.9392 -0.3433 -0.3433 -0.9392 299.5517 2335.8379)">
					<stop  offset="0" style="stop-color:#FFFFFF;stop-opacity:0.3"/>
					<stop  offset="1" style="stop-color:#F7F7F7;stop-opacity:0.3"/>
				</linearGradient>
				<path class="st45" d="M2841.7,833.7c-3.5-6.7,2-8.4,6.3-10.1c41.3-15.8,82.6-31.5,123.9-47.3c3.6-1.4,7.2-2.7,9.4,1.5
					c2.9,5.7-2,7.6-5.8,9c-22,8.6-44.1,16.8-66.2,25.2c-18.7,7.1-37.3,14.3-55.9,21.4C2849.6,834.9,2845.8,838,2841.7,833.7z"/>
				
					<linearGradient id="SVGID_45_" gradientUnits="userSpaceOnUse" x1="2733.0701" y1="524.3333" x2="2833.9741" y2="524.3333" gradientTransform="matrix(0.9392 -0.3433 -0.3433 -0.9392 299.5517 2335.8379)">
					<stop  offset="0" style="stop-color:#FFFFFF;stop-opacity:0.3"/>
					<stop  offset="1" style="stop-color:#F7F7F7;stop-opacity:0.3"/>
				</linearGradient>
				<path class="st46" d="M2771.7,873.5c-23.7,12.9-48.7,26.5-73.5,40.1c-3.4,1.9-6.7,3.2-9.1-1.4c-2.2-4.4,0.5-6.7,3.9-8.6
					c25.5-13.9,50.9-27.8,76.3-41.6c3.3-1.8,7.1-3.1,9.2,1.3C2781.5,869,2775.8,870.1,2771.7,873.5z"/>
			</g>
			<g>
				
					<linearGradient id="SVGID_46_" gradientUnits="userSpaceOnUse" x1="180.5034" y1="702.803" x2="277.767" y2="702.803" gradientTransform="matrix(1 0 0 -1 0 1339)">
					<stop  offset="0" style="stop-color:#FFFFFF;stop-opacity:0.3"/>
					<stop  offset="1" style="stop-color:#F7F7F7;stop-opacity:0.3"/>
				</linearGradient>
				<path class="st47" d="M270.7,722.5c-4.7-8.6-8.5-15.6-12.3-22.6c-24.9-47-49.8-94-74.8-141c-1.6-3.1-5.3-6.6-1.3-9.1
					c5-3.1,6.6,2.5,8.3,5.6c28.3,52.8,56.4,105.6,84.5,158.4c1.3,2.5,4.2,5.4,1.3,8.3C274.4,724.1,271.6,723.7,270.7,722.5z"/>
				
					<linearGradient id="SVGID_47_" gradientUnits="userSpaceOnUse" x1="529.1" y1="478.7" x2="587.3" y2="478.7" gradientTransform="matrix(1 0 0 -1 0 1339)">
					<stop  offset="0" style="stop-color:#FFFFFF;stop-opacity:0.3"/>
					<stop  offset="1" style="stop-color:#F7F7F7;stop-opacity:0.3"/>
				</linearGradient>
				<path class="st48" d="M579.4,838.2c-6.3,14.3-3.7,23,7.9,30.4c-12.5,2.1-19,8.1-20,21.4c-8.4-11.2-17.9-12.2-29.8-7.3
					c4.7-12,3.6-21.3-8.4-28.4c11.9-2.7,19.9-7.2,18.1-23.7C557.1,843.9,566,845.7,579.4,838.2z"/>
				
					<linearGradient id="SVGID_48_" gradientUnits="userSpaceOnUse" x1="142.8" y1="832.7" x2="203" y2="832.7" gradientTransform="matrix(1 0 0 -1 0 1339)">
					<stop  offset="0" style="stop-color:#FFFFFF;stop-opacity:0.3"/>
					<stop  offset="1" style="stop-color:#F7F7F7;stop-opacity:0.3"/>
				</linearGradient>
				<path class="st49" d="M182.9,535.4c-7.8-12.6-17.4-12.4-29.4-8.2c3.8-11.7,4.8-21.5-10.7-28.1c14.8-2.1,20.8-8.7,21.9-21.9
					c8,12,17.3,12.3,29.2,7.5c-3.6,11.7-3.8,21.4,9.1,28.7C189.4,515.1,184.2,522.4,182.9,535.4z"/>
				
					<linearGradient id="SVGID_49_" gradientUnits="userSpaceOnUse" x1="278.7" y1="582.3" x2="339.4" y2="582.3" gradientTransform="matrix(1 0 0 -1 0 1339)">
					<stop  offset="0" style="stop-color:#FFFFFF;stop-opacity:0.3"/>
					<stop  offset="1" style="stop-color:#F7F7F7;stop-opacity:0.3"/>
				</linearGradient>
				<path class="st50" d="M289.9,779.6c4.1-13.9,4.1-23.5-11.2-30.1c15.3-1.9,21.7-8.2,21.9-21.5c8.7,9.1,16.5,15.9,29.8,5.2
					c-3.8,13.8-3.4,23.6,9,30.4c-11.7,2.8-19.7,7.4-19.2,21.8C311.4,775.9,303.2,771.2,289.9,779.6z"/>
				
					<linearGradient id="SVGID_50_" gradientUnits="userSpaceOnUse" x1="690.4879" y1="485.3" x2="746.606" y2="485.3" gradientTransform="matrix(1 0 0 -1 0 1339)">
					<stop  offset="0" style="stop-color:#FFFFFF;stop-opacity:0.3"/>
					<stop  offset="1" style="stop-color:#F7F7F7;stop-opacity:0.3"/>
				</linearGradient>
				<path class="st51" d="M728,826.5c1.1,12,5.1,20.7,18.7,23c-9.9,6.8-14.8,13.9-9.3,26.7c-12-5.6-21.8-6.9-30.2,4.7
					c-2.4-10.5-2.9-20.1-14.1-22c-2.1-0.4-3.8-4.3-1.2-4.8c13.2-2.6,3.4-21.7,11.4-20.5C713.2,835,719.8,833,728,826.5z"/>
				
					<linearGradient id="SVGID_51_" gradientUnits="userSpaceOnUse" x1="343.0065" y1="527.7379" x2="505.3531" y2="527.7379" gradientTransform="matrix(1 0 0 -1 0 1339)">
					<stop  offset="0" style="stop-color:#FFFFFF;stop-opacity:0.3"/>
					<stop  offset="1" style="stop-color:#F7F7F7;stop-opacity:0.3"/>
				</linearGradient>
				<path class="st52" d="M502.4,841.6c4,1.7,3.1,3.8,2.1,5.8c-1.9,3.6-5,1.3-6.9,0.5c-12.3-5.1-24.3-10.7-36.5-16
					c-36.9-16.3-73.9-32.5-110.7-48.8c-3.3-1.4-9.3-1.7-6.8-7.5c2.1-4.9,6.2-1.1,9.1,0.1c48.7,21.2,97.4,42.5,146.1,63.8
					C500.3,840.2,501.8,841.2,502.4,841.6z"/>
				
					<linearGradient id="SVGID_52_" gradientUnits="userSpaceOnUse" x1="598.5778" y1="482.1173" x2="668.1025" y2="482.1173" gradientTransform="matrix(1 0 0 -1 0 1339)">
					<stop  offset="0" style="stop-color:#FFFFFF;stop-opacity:0.3"/>
					<stop  offset="1" style="stop-color:#F7F7F7;stop-opacity:0.3"/>
				</linearGradient>
				<path class="st53" d="M667.4,850.5c0.2,1,0.8,2.2,0.8,3.3c0,2.6-1.5,3.8-4.2,4c-19.9,2-39.8,4.1-59.7,6.2
					c-2.4,0.3-4.6-0.4-5.4-2.8c-0.8-2.6,0.6-4.3,3.2-4.6c20.8-2.3,41.5-4.7,62.3-6.9C665.2,849.7,666.1,850.2,667.4,850.5z"/>
			</g>
		</g>
	</g>
</g>
</svg>
